<svg xmlns="http://www.w3.org/2000/svg" xmlns:xlink="http://www.w3.org/1999/xlink" width="200" zoomAndPan="magnify" viewBox="0 0 150 149.999998" height="200" preserveAspectRatio="xMidYMid meet" version="1.0"><defs><g/><clipPath id="12cfc8d592"><path d="M 3 1.273438 L 140.25 1.273438 L 140.25 149.773438 L 3 149.773438 Z M 3 1.273438 " clip-rule="nonzero"/></clipPath></defs><g clip-path="url(#12cfc8d592)"><path fill="#000000" d="M 138.945312 111.042969 C 137.117188 112.84375 135.074219 114.328125 132.859375 115.574219 C 126.980469 118.878906 121.003906 121.992188 114.820312 124.707031 C 99.355469 131.484375 83.90625 138.296875 68.429688 145.03125 C 65.425781 146.335938 62.308594 147.378906 59.226562 148.480469 C 57.417969 149.128906 55.539062 149.519531 53.585938 149.359375 C 52.523438 149.273438 51.5 149.066406 50.570312 148.546875 C 50.476562 148.496094 50.367188 148.378906 50.316406 148.273438 C 49.542969 148.171875 48.808594 147.976562 48.144531 147.632812 C 48.121094 147.644531 48.101562 147.660156 48.070312 147.667969 C 47.53125 147.90625 46.980469 147.863281 46.433594 147.726562 C 45.214844 147.429688 44.125 146.855469 43.113281 146.125 C 40.617188 144.332031 38.566406 142.109375 37.023438 139.457031 C 35.90625 137.542969 34.867188 135.5625 34 133.515625 C 31.523438 127.652344 29.171875 121.746094 26.742188 115.863281 C 22.78125 106.269531 18.753906 96.703125 14.839844 87.097656 C 11.535156 78.964844 8.417969 70.769531 5.648438 62.445312 C 4.609375 59.332031 3.851562 56.148438 3.265625 52.929688 C 3.070312 51.84375 3.078125 50.710938 3 49.609375 C 3.027344 46.972656 3.484375 44.445312 4.558594 42.027344 C 4.890625 41.277344 5.273438 40.578125 6 40.152344 C 6.203125 40.039062 6.484375 39.9375 6.6875 39.988281 C 6.695312 39.988281 6.695312 39.988281 6.703125 39.996094 C 6.992188 39.539062 7.285156 39.085938 7.617188 38.65625 C 7.617188 38.554688 7.640625 38.445312 7.683594 38.386719 C 8.195312 37.777344 8.671875 37.105469 9.300781 36.632812 C 10.28125 35.890625 11.363281 35.269531 12.429688 34.644531 C 23.753906 28.015625 35.445312 22.089844 47.335938 16.542969 C 51.476562 14.605469 55.621094 12.648438 59.8125 10.820312 C 66.957031 7.699219 74.214844 4.890625 81.675781 2.621094 C 82.851562 2.261719 84.066406 1.972656 85.277344 1.773438 C 87.132812 1.46875 88.734375 1.996094 89.859375 3.558594 C 90.652344 4.660156 91.410156 5.796875 92.066406 6.988281 C 96.230469 14.570312 100.386719 22.160156 104.488281 29.78125 C 111.183594 42.25 117.84375 54.738281 124.488281 67.234375 C 126.546875 71.109375 128.503906 75.039062 130.464844 78.964844 C 130.90625 79.84375 131.222656 80.789062 131.496094 81.730469 C 131.605469 82.113281 131.539062 82.597656 131.410156 82.984375 C 131.316406 83.257812 131.101562 83.460938 130.847656 83.566406 C 130.644531 84.023438 130.25 84.394531 129.78125 84.691406 C 129.878906 84.921875 129.875 85.203125 129.707031 85.449219 C 128.769531 86.835938 129.042969 88.097656 129.96875 89.351562 C 132.347656 92.597656 134.476562 96.007812 136.367188 99.558594 C 137.328125 101.351562 138.171875 103.207031 139.03125 105.058594 C 139.363281 105.785156 139.601562 106.558594 139.847656 107.320312 C 140.273438 108.738281 140.078125 109.929688 138.945312 111.042969 Z M 138.945312 111.042969 " fill-opacity="1" fill-rule="nonzero"/></g><path fill="#82a190" d="M 137.140625 107.761719 C 135.300781 109.761719 132.933594 110.988281 130.585938 112.210938 C 124.230469 115.546875 117.777344 118.679688 111.199219 121.546875 C 102.746094 125.226562 94.296875 128.890625 85.863281 132.601562 C 78.898438 135.660156 71.964844 138.792969 65.007812 141.863281 C 62.859375 142.804688 60.65625 143.632812 58.476562 144.511719 C 56.476562 145.320312 54.386719 145.464844 52.269531 145.261719 C 51.730469 145.210938 51.195312 145.011719 50.667969 144.824219 C 50.53125 144.773438 50.359375 144.535156 50.367188 144.398438 C 50.375 144.339844 50.378906 144.269531 50.402344 144.203125 C 49.6875 144.203125 48.972656 144.058594 48.316406 143.792969 C 48.289062 143.820312 48.257812 143.851562 48.222656 143.871094 C 48 144.03125 47.644531 144.144531 47.386719 144.09375 C 46.75 143.980469 46.3125 143.511719 45.898438 143.050781 C 44.59375 141.558594 43.84375 139.808594 43.691406 137.851562 C 43.417969 134.386719 44.109375 131.089844 45.511719 127.925781 C 46.203125 126.378906 47.285156 125.109375 48.605469 124.042969 C 50.445312 122.566406 52.429688 121.316406 54.464844 120.132812 C 59.546875 117.179688 64.753906 114.449219 69.996094 111.785156 C 78.925781 107.242188 87.804688 102.597656 96.902344 98.398438 C 106.003906 94.199219 115.117188 90.058594 124.238281 85.902344 C 125.363281 85.390625 126.511719 84.929688 127.664062 84.476562 C 128.0625 84.316406 128.496094 84.203125 128.921875 84.179688 C 129.316406 84.160156 129.636719 84.390625 129.765625 84.691406 C 130.226562 84.394531 130.632812 84.023438 130.832031 83.566406 C 130.457031 83.734375 130.003906 83.691406 129.707031 83.378906 C 129.296875 82.941406 128.976562 82.394531 128.703125 81.847656 C 126.964844 78.433594 125.304688 74.976562 123.507812 71.597656 C 117.070312 59.476562 110.605469 47.375 104.132812 35.285156 C 99.347656 26.347656 94.535156 17.421875 89.730469 8.507812 C 89.230469 7.585938 88.65625 6.707031 88.136719 5.785156 C 87.523438 4.695312 86.648438 3.984375 85.402344 3.773438 C 85.21875 3.746094 85.046875 3.675781 85.0625 3.675781 C 80.175781 5.5625 75.472656 7.433594 70.722656 9.199219 C 63.703125 11.804688 56.890625 14.910156 50.128906 18.101562 C 43.085938 21.425781 36.058594 24.804688 29.09375 28.292969 C 23.898438 30.890625 18.804688 33.714844 13.65625 36.40625 C 11.90625 37.328125 10.121094 38.1875 8.339844 39.042969 C 8.179688 39.125 7.871094 39.007812 7.703125 38.886719 C 7.660156 38.855469 7.640625 38.75 7.640625 38.640625 C 7.308594 39.074219 7.003906 39.527344 6.722656 39.980469 C 6.902344 40.03125 7.089844 40.261719 7.171875 40.457031 C 7.222656 40.585938 7.078125 40.792969 7.003906 40.96875 C 5.273438 44.785156 5.070312 48.730469 5.902344 52.769531 C 6.917969 57.75 8.605469 62.523438 10.339844 67.285156 C 14.171875 77.792969 18.363281 88.148438 22.636719 98.484375 C 27.042969 109.15625 31.394531 119.859375 35.796875 130.535156 C 36.546875 132.355469 37.40625 134.140625 38.257812 135.921875 C 40.214844 139.988281 43.242188 143.101562 46.960938 145.601562 C 47.421875 145.910156 47.882812 146.21875 48.300781 146.582031 C 48.613281 146.847656 48.484375 147.410156 48.121094 147.617188 C 48.785156 147.964844 49.53125 148.164062 50.300781 148.257812 C 50.273438 148.199219 50.25 148.144531 50.257812 148.101562 C 50.292969 147.882812 50.425781 147.59375 50.597656 147.515625 C 50.980469 147.34375 51.414062 147.191406 51.824219 147.199219 C 54.601562 147.234375 57.1875 146.457031 59.761719 145.519531 C 64.761719 143.691406 69.617188 141.546875 74.484375 139.390625 C 87.378906 133.695312 100.273438 128 113.175781 122.316406 C 119.75 119.421875 126.105469 116.109375 132.355469 112.570312 C 133.648438 111.835938 134.960938 111.144531 136.253906 110.417969 C 137.644531 109.640625 137.703125 109.453125 137.140625 107.761719 Z M 103.363281 75.925781 C 103.1875 77.1875 102.796875 78.136719 102.25 79.015625 C 102.128906 79.210938 101.925781 79.382812 101.722656 79.492188 C 101.644531 79.535156 101.382812 79.390625 101.328125 79.269531 C 101.253906 79.125 101.277344 78.90625 101.3125 78.734375 C 101.515625 77.699219 101.996094 76.789062 102.726562 76.027344 C 102.8125 75.933594 103.035156 75.96875 103.363281 75.925781 Z M 99.105469 78.042969 C 99.585938 76.660156 100.050781 75.257812 101.21875 74.25 C 101.253906 74.210938 101.332031 74.21875 101.519531 74.183594 C 101.796875 74.738281 101.6875 75.226562 101.449219 75.660156 C 100.871094 76.71875 100.546875 77.9375 99.609375 78.742188 C 99.160156 78.640625 99.003906 78.339844 99.105469 78.042969 Z M 41.777344 122.144531 C 41.46875 121.957031 41.136719 121.738281 40.933594 121.453125 C 40.652344 121.054688 40.464844 120.585938 40.269531 120.132812 C 37.6875 114.183594 35.167969 108.207031 32.515625 102.285156 C 26.316406 88.472656 20.621094 74.457031 15.078125 60.371094 C 13.203125 55.601562 11.421875 50.789062 9.617188 46 C 9.402344 45.433594 9.277344 44.828125 9.15625 44.230469 C 9.132812 44.113281 9.320312 43.882812 9.457031 43.832031 C 9.589844 43.78125 9.847656 43.839844 9.933594 43.949219 C 10.164062 44.230469 10.375 44.546875 10.527344 44.878906 C 11.492188 47.015625 12.511719 49.132812 13.390625 51.308594 C 20.414062 68.789062 27.222656 86.355469 34.742188 103.625 C 36.375 107.363281 38.070312 111.074219 39.664062 114.824219 C 40.582031 116.984375 41.347656 119.203125 42.167969 121.402344 C 42.234375 121.566406 42.21875 121.761719 42.25 121.992188 C 42.082031 122.050781 41.867188 122.199219 41.777344 122.144531 Z M 41.777344 122.144531 " fill-opacity="1" fill-rule="nonzero"/><path fill="#ffffff" d="M 132.097656 108.34375 C 131.71875 108.539062 131.351562 108.738281 130.984375 108.933594 C 119.90625 114.730469 108.519531 119.867188 97.070312 124.867188 C 87.433594 129.070312 77.816406 133.304688 68.191406 137.535156 C 64.964844 138.953125 61.738281 140.371094 58.507812 141.785156 C 57.828125 142.078125 57.136719 142.351562 56.429688 142.574219 C 56.03125 142.707031 55.589844 142.707031 55.085938 142.777344 C 54.105469 141.640625 53.078125 140.566406 52.183594 139.390625 C 49.667969 136.109375 48.828125 132.289062 48.808594 128.242188 C 48.808594 127.769531 48.964844 127.394531 49.304688 127.097656 C 49.910156 126.574219 50.496094 126.003906 51.160156 125.5625 C 52.863281 124.441406 54.582031 123.332031 56.339844 122.300781 C 62.28125 118.84375 68.441406 115.8125 74.539062 112.644531 C 88.046875 105.621094 101.832031 99.191406 115.699219 92.910156 C 119.476562 91.203125 123.191406 89.359375 126.929688 87.578125 C 127.132812 87.484375 127.371094 87.449219 127.707031 87.363281 C 127.910156 90.230469 127.03125 92.980469 127.757812 95.726562 C 126.5625 96.242188 125.550781 96.683594 124.535156 97.117188 C 106.660156 104.714844 88.9375 112.65625 71.488281 121.199219 C 66.542969 123.621094 61.710938 126.253906 56.816406 128.796875 C 55.722656 129.367188 54.617188 129.9375 53.527344 130.519531 C 53.214844 130.683594 52.933594 130.914062 52.652344 131.09375 C 52.746094 131.628906 53.09375 131.613281 53.367188 131.535156 C 53.835938 131.40625 54.304688 131.21875 54.746094 131 C 56.414062 130.179688 58.085938 129.386719 59.726562 128.503906 C 68.335938 123.855469 77.21875 119.78125 86.058594 115.601562 C 95.113281 111.316406 104.320312 107.351562 113.507812 103.339844 C 117.640625 101.53125 121.703125 99.542969 125.796875 97.632812 C 126.359375 97.375 126.914062 97.109375 127.464844 96.847656 C 128.011719 97.257812 127.96875 97.851562 128.0625 98.382812 C 128.464844 100.710938 129.1875 102.941406 130.226562 105.058594 C 130.761719 106.167969 131.433594 107.199219 132.097656 108.34375 Z M 120.226562 94.191406 C 119.996094 94.277344 119.707031 94.363281 119.429688 94.488281 C 116.738281 95.734375 114.035156 96.964844 111.355469 98.238281 C 101.875 102.761719 92.40625 107.320312 82.917969 111.835938 C 77.332031 114.496094 71.703125 117.042969 66.140625 119.730469 C 62.574219 121.453125 59.089844 123.324219 55.578125 125.144531 C 54.8125 125.542969 54.089844 126.023438 53.367188 126.5 C 53.179688 126.621094 52.984375 126.875 53.203125 127.105469 C 53.296875 127.207031 53.5625 127.242188 53.699219 127.183594 C 54.71875 126.738281 55.734375 126.285156 56.738281 125.792969 C 60.96875 123.75 65.167969 121.632812 69.425781 119.644531 C 80.296875 114.589844 91.265625 109.71875 102.0625 104.492188 C 107.742188 101.738281 113.492188 99.140625 118.875 95.832031 C 119.402344 95.507812 119.929688 95.191406 120.421875 94.824219 C 120.660156 94.660156 120.535156 94.40625 120.226562 94.191406 Z M 54.207031 134.71875 C 54.59375 135.050781 54.871094 134.882812 55.144531 134.753906 C 57.488281 133.652344 59.855469 132.578125 62.1875 131.433594 C 68.125 128.523438 74.007812 125.492188 79.988281 122.660156 C 92.679688 116.664062 105.433594 110.792969 117.929688 104.402344 C 118.753906 103.980469 119.589844 103.574219 120.40625 103.136719 C 120.652344 103 120.851562 102.777344 121.179688 102.503906 C 120.851562 102.394531 120.671875 102.265625 120.542969 102.300781 C 120.1875 102.394531 119.84375 102.53125 119.503906 102.691406 C 113.167969 105.628906 106.804688 108.507812 100.503906 111.527344 C 86 118.457031 71.429688 125.253906 57.28125 132.894531 C 56.523438 133.304688 55.707031 133.625 54.949219 134.035156 C 54.667969 134.183594 54.457031 134.480469 54.207031 134.71875 Z M 83.351562 124.585938 C 84.015625 125.175781 84.5 124.921875 84.929688 124.722656 C 86.050781 124.195312 87.140625 123.605469 88.242188 123.058594 C 99.109375 117.707031 110.042969 112.492188 121.085938 107.492188 C 121.8125 107.164062 122.542969 106.824219 123.261719 106.464844 C 123.414062 106.390625 123.515625 106.21875 123.625 106.082031 C 123.652344 106.046875 123.625 105.953125 123.59375 105.902344 C 123.566406 105.851562 123.496094 105.78125 123.457031 105.792969 C 123.113281 105.867188 122.742188 105.902344 122.417969 106.046875 C 119.242188 107.414062 116.03125 108.726562 112.902344 110.1875 C 104.335938 114.191406 95.800781 118.261719 87.253906 122.308594 C 86.308594 122.753906 85.378906 123.246094 84.457031 123.757812 C 84.109375 123.949219 83.796875 124.246094 83.351562 124.585938 Z M 67.589844 135.617188 C 68.039062 135.617188 68.292969 135.675781 68.5 135.605469 C 69.027344 135.425781 69.53125 135.207031 70.042969 134.976562 C 75.96875 132.347656 81.902344 129.742188 87.804688 127.078125 C 89.9375 126.113281 92.019531 125.023438 94.117188 123.972656 C 94.484375 123.792969 94.804688 123.511719 95.164062 123.257812 C 94.664062 122.746094 94.289062 123.070312 93.914062 123.238281 C 90.804688 124.597656 87.761719 126.117188 84.585938 127.292969 C 78.882812 129.394531 73.574219 132.269531 68.175781 134.992188 C 67.988281 135.085938 67.871094 135.308594 67.589844 135.617188 Z M 99.839844 120.582031 C 100.238281 120.636719 100.429688 120.730469 100.570312 120.671875 C 101.203125 120.429688 101.824219 120.148438 102.4375 119.867188 C 109.410156 116.667969 116.371094 113.472656 123.34375 110.273438 C 124.46875 109.753906 125.59375 109.242188 126.710938 108.71875 C 126.980469 108.59375 127.296875 108.480469 127.289062 108.042969 C 127.136719 107.996094 126.949219 107.859375 126.820312 107.910156 C 121.914062 109.589844 101.933594 118.417969 99.839844 120.582031 Z M 57.820312 136.9375 C 57.898438 136.992188 57.957031 137.058594 58 137.058594 C 58.289062 137.023438 58.601562 137.007812 58.875 136.90625 C 61.609375 135.921875 64.214844 134.644531 66.777344 133.285156 C 70.371094 131.367188 73.984375 129.488281 77.578125 127.574219 C 77.980469 127.355469 78.539062 127.265625 78.625 126.671875 C 78.335938 126.335938 78.0625 126.523438 77.792969 126.660156 C 75.484375 127.824219 73.167969 128.992188 70.859375 130.167969 C 66.847656 132.210938 62.972656 134.515625 58.75 136.136719 C 58.519531 136.222656 58.296875 136.339844 58.101562 136.496094 C 57.972656 136.597656 57.914062 136.785156 57.820312 136.9375 Z M 57.820312 136.9375 " fill-opacity="1" fill-rule="nonzero"/><path fill="#688375" d="M 50.402344 144.203125 C 49.6875 144.203125 48.972656 144.058594 48.316406 143.792969 C 48.496094 143.585938 48.425781 143.296875 48.257812 143.050781 C 48.078125 142.800781 47.875 142.5625 47.6875 142.316406 C 46.84375 141.214844 46.363281 139.96875 46.09375 138.605469 C 45.753906 136.851562 46.09375 135.15625 46.425781 133.464844 C 46.585938 132.660156 46.613281 131.757812 47.25 131.074219 C 47.300781 131.226562 47.363281 131.332031 47.371094 131.457031 C 47.609375 135.683594 49.152344 139.371094 51.96875 142.539062 C 52.113281 142.699219 52.175781 142.929688 52.292969 143.160156 C 51.664062 143.390625 51.136719 143.539062 50.65625 143.785156 C 50.53125 143.851562 50.445312 144.03125 50.402344 144.203125 Z M 130.082031 93.613281 C 129.5625 96.546875 131.9375 103.753906 134.5625 107.164062 C 134.886719 107.105469 135.242188 107.019531 135.601562 106.976562 C 136.007812 106.925781 136.410156 106.910156 136.824219 106.882812 C 136.171875 104.496094 132.039062 96.375 130.082031 93.613281 Z M 130.082031 93.613281 " fill-opacity="1" fill-rule="nonzero"/><g fill="#000000" fill-opacity="1"><g transform="translate(75.328326, 138.487489)"><g><path d="M 0.140625 -0.640625 C 0.117188 -0.640625 0.101562 -0.644531 0.09375 -0.65625 C 0.0820312 -0.664062 0.078125 -0.679688 0.078125 -0.703125 C 0.078125 -0.710938 0.0820312 -0.722656 0.09375 -0.734375 C 0.101562 -0.742188 0.117188 -0.75 0.140625 -0.75 C 0.148438 -0.75 0.160156 -0.742188 0.171875 -0.734375 C 0.179688 -0.722656 0.1875 -0.710938 0.1875 -0.703125 C 0.1875 -0.679688 0.179688 -0.664062 0.171875 -0.65625 C 0.160156 -0.644531 0.148438 -0.640625 0.140625 -0.640625 Z M 0.09375 0 L 0.09375 -0.53125 L 0.171875 -0.53125 L 0.171875 0 Z M 0.09375 0 "/></g></g></g><g fill="#000000" fill-opacity="1"><g transform="translate(74.865882, 68.849997)"><g><path d="M 0.140625 -0.640625 C 0.117188 -0.640625 0.101562 -0.644531 0.09375 -0.65625 C 0.0820312 -0.664062 0.078125 -0.679688 0.078125 -0.703125 C 0.078125 -0.710938 0.0820312 -0.722656 0.09375 -0.734375 C 0.101562 -0.742188 0.117188 -0.75 0.140625 -0.75 C 0.148438 -0.75 0.160156 -0.742188 0.171875 -0.734375 C 0.179688 -0.722656 0.1875 -0.710938 0.1875 -0.703125 C 0.1875 -0.679688 0.179688 -0.664062 0.171875 -0.65625 C 0.160156 -0.644531 0.148438 -0.640625 0.140625 -0.640625 Z M 0.09375 0 L 0.09375 -0.53125 L 0.171875 -0.53125 L 0.171875 0 Z M 0.09375 0 "/></g></g></g><g fill="#000000" fill-opacity="1"><g transform="translate(56.361212, 82.027564)"><g><path d="M 0.140625 -0.640625 C 0.117188 -0.640625 0.101562 -0.644531 0.09375 -0.65625 C 0.0820312 -0.664062 0.078125 -0.679688 0.078125 -0.703125 C 0.078125 -0.710938 0.0820312 -0.722656 0.09375 -0.734375 C 0.101562 -0.742188 0.117188 -0.75 0.140625 -0.75 C 0.148438 -0.75 0.160156 -0.742188 0.171875 -0.734375 C 0.179688 -0.722656 0.1875 -0.710938 0.1875 -0.703125 C 0.1875 -0.679688 0.179688 -0.664062 0.171875 -0.65625 C 0.160156 -0.644531 0.148438 -0.640625 0.140625 -0.640625 Z M 0.09375 0 L 0.09375 -0.53125 L 0.171875 -0.53125 L 0.171875 0 Z M 0.09375 0 "/></g></g></g><g fill="#000000" fill-opacity="1"><g transform="translate(74.865882, 68.849997)"><g><path d="M 0.140625 -0.640625 C 0.117188 -0.640625 0.101562 -0.644531 0.09375 -0.65625 C 0.0820312 -0.664062 0.078125 -0.679688 0.078125 -0.703125 C 0.078125 -0.710938 0.0820312 -0.722656 0.09375 -0.734375 C 0.101562 -0.742188 0.117188 -0.75 0.140625 -0.75 C 0.148438 -0.75 0.160156 -0.742188 0.171875 -0.734375 C 0.179688 -0.722656 0.1875 -0.710938 0.1875 -0.703125 C 0.1875 -0.679688 0.179688 -0.664062 0.171875 -0.65625 C 0.160156 -0.644531 0.148438 -0.640625 0.140625 -0.640625 Z M 0.09375 0 L 0.09375 -0.53125 L 0.171875 -0.53125 L 0.171875 0 Z M 0.09375 0 "/></g></g></g></svg>