<svg xmlns="http://www.w3.org/2000/svg" xmlns:xlink="http://www.w3.org/1999/xlink" width="200" zoomAndPan="magnify" viewBox="0 0 150 30.000001" height="40" preserveAspectRatio="xMidYMid meet" version="1.0"><defs><g/><clipPath id="1530acea95"><path d="M 2.417969 0.503906 L 31.453125 0.503906 L 31.453125 28.8125 L 2.417969 28.8125 Z M 2.417969 0.503906 " clip-rule="nonzero"/></clipPath><clipPath id="edb280b8bc"><path d="M 2.417969 1 L 31 1 L 31 28 L 2.417969 28 Z M 2.417969 1 " clip-rule="nonzero"/></clipPath></defs><path fill="#ffffff" d="M 30.480469 21.585938 C 26.371094 23.410156 21.714844 25.390625 17.484375 27.113281 C 16.878906 27.359375 16.285156 27.644531 15.652344 27.824219 C 15.492188 27.871094 15.308594 27.90625 15.164062 27.824219 C 15.039062 27.753906 14.96875 27.621094 14.917969 27.492188 C 14.230469 25.925781 14.324219 24.03125 15.15625 22.546875 L 15.402344 22.449219 C 20.277344 20.582031 23.9375 19.03125 29.269531 16.855469 C 28.269531 19.792969 29.261719 20.261719 30.480469 21.585938 Z M 30.480469 21.585938 " fill-opacity="1" fill-rule="nonzero"/><g clip-path="url(#1530acea95)"><path fill="#4a59a7" d="M 28.234375 20.863281 C 24.988281 22.304688 21.710938 23.667969 18.421875 24.984375 C 18.390625 24.691406 18.367188 24.40625 18.34375 24.132812 C 19.550781 23.648438 20.757812 23.160156 21.960938 22.671875 C 22.949219 22.269531 23.925781 21.847656 24.910156 21.429688 C 25.871094 21.023438 26.910156 20.695312 27.8125 20.171875 C 27.945312 20.09375 27.859375 19.878906 27.707031 19.921875 C 26.695312 20.195312 25.710938 20.71875 24.746094 21.125 C 23.773438 21.535156 22.796875 21.9375 21.828125 22.355469 C 20.65625 22.859375 19.492188 23.375 18.320312 23.886719 C 18.296875 23.589844 18.28125 23.316406 18.273438 23.074219 C 19.546875 22.5625 20.804688 22.019531 22.0625 21.488281 C 22.996094 21.09375 23.925781 20.683594 24.859375 20.273438 C 25.835938 19.835938 26.839844 19.449219 27.800781 18.964844 C 27.871094 18.929688 27.824219 18.808594 27.746094 18.835938 C 26.753906 19.152344 25.777344 19.554688 24.8125 19.957031 C 23.699219 20.421875 22.710938 20.851562 21.722656 21.273438 C 19.796875 22.097656 17.953125 22.773438 16.085938 23.714844 C 15.988281 23.761719 16.058594 23.941406 16.164062 23.898438 C 16.320312 23.839844 16.480469 23.78125 16.636719 23.71875 C 16.660156 24.011719 16.683594 24.304688 16.714844 24.597656 C 16.445312 24.714844 16.175781 24.835938 15.90625 24.953125 C 15.828125 24.984375 15.882812 25.117188 15.957031 25.085938 C 16.214844 24.984375 16.472656 24.878906 16.730469 24.777344 C 16.761719 25.054688 16.789062 25.335938 16.824219 25.625 C 16.625 25.699219 16.425781 25.785156 16.226562 25.863281 C 16.097656 25.910156 16.152344 26.117188 16.285156 26.070312 C 16.480469 26 16.667969 25.933594 16.859375 25.863281 C 16.867188 25.910156 16.871094 25.957031 16.878906 26.011719 C 16.898438 25.953125 16.929688 25.890625 16.953125 25.824219 C 17.402344 25.660156 17.847656 25.492188 18.292969 25.324219 C 18.351562 25.390625 18.410156 25.457031 18.472656 25.527344 C 18.46875 25.4375 18.457031 25.347656 18.449219 25.265625 C 21.804688 23.988281 25.113281 22.59375 28.386719 21.105469 C 28.542969 21.042969 28.398438 20.792969 28.234375 20.863281 Z M 17.085938 25.515625 C 17.269531 25.132812 17.457031 24.78125 17.550781 24.597656 C 17.691406 24.726562 17.855469 24.871094 18.089844 25.117188 C 17.753906 25.253906 17.421875 25.382812 17.085938 25.515625 Z M 30.9375 21.03125 C 30.707031 20.988281 30.484375 21.03125 30.269531 21.101562 C 30.101562 20.992188 29.9375 20.875 29.785156 20.714844 C 29.46875 20.367188 29.210938 19.9375 29.09375 19.480469 C 28.894531 18.710938 29.035156 17.902344 29.332031 17.175781 C 29.378906 17.152344 29.425781 17.132812 29.472656 17.117188 C 29.917969 16.917969 30.738281 16.667969 30.375 16.023438 C 30.042969 15.433594 29.609375 14.878906 29.222656 14.316406 C 27.589844 11.957031 25.933594 9.617188 24.273438 7.277344 C 22.773438 5.179688 21.324219 3.03125 19.714844 1.019531 C 19.613281 0.894531 19.503906 0.753906 19.398438 0.621094 C 19.335938 0.539062 19.195312 0.515625 19.09375 0.539062 C 15.917969 1.484375 12.765625 2.53125 9.65625 3.695312 C 8.429688 4.152344 7.195312 4.625 6 5.171875 C 5.644531 5.335938 5.285156 5.507812 4.945312 5.714844 C 4.648438 5.894531 4.304688 5.941406 4.003906 6.117188 C 3.652344 6.320312 3.441406 6.699219 3.269531 7.058594 C 2.496094 8.652344 2.417969 10.410156 2.589844 12.148438 C 2.59375 12.1875 2.613281 12.222656 2.640625 12.242188 C 2.648438 12.253906 2.648438 12.261719 2.652344 12.273438 C 3.558594 14.097656 4.789062 15.757812 5.964844 17.402344 C 7.9375 20.164062 9.960938 22.886719 11.960938 25.628906 C 12.449219 26.296875 12.933594 26.960938 13.441406 27.609375 C 13.617188 27.835938 13.777344 28.082031 13.957031 28.300781 C 14.050781 28.414062 14.144531 28.523438 14.253906 28.617188 C 14.347656 28.703125 14.460938 28.796875 14.582031 28.796875 C 14.742188 28.804688 14.894531 28.730469 15.039062 28.683594 C 15.839844 28.410156 16.636719 28.09375 17.425781 27.789062 C 17.835938 27.628906 18.246094 27.464844 18.65625 27.304688 C 19.46875 26.984375 20.28125 26.65625 21.089844 26.320312 C 21.898438 25.988281 22.703125 25.648438 23.511719 25.308594 C 24.320312 24.960938 25.121094 24.613281 25.921875 24.261719 C 26.71875 23.910156 27.515625 23.558594 28.308594 23.199219 C 28.761719 23 29.210938 22.796875 29.65625 22.582031 C 29.902344 22.460938 30.140625 22.347656 30.382812 22.222656 C 30.625 22.089844 30.972656 21.964844 31.175781 21.769531 C 31.453125 21.488281 31.28125 21.09375 30.9375 21.03125 Z M 29.613281 21.394531 C 27.351562 22.425781 25.054688 23.410156 22.78125 24.414062 C 20.40625 25.460938 18.03125 26.507812 15.648438 27.550781 C 15.542969 27.484375 15.542969 27.484375 15.542969 27.484375 C 15.238281 27.25 15.097656 26.921875 14.976562 26.625 C 14.777344 26.128906 14.671875 25.582031 14.671875 25.042969 C 14.671875 24.4375 14.859375 23.863281 15.082031 23.300781 C 15.257812 22.867188 15.734375 22.757812 16.132812 22.597656 C 17.691406 21.960938 19.253906 21.332031 20.808594 20.703125 C 23.542969 19.597656 26.292969 18.523438 28.984375 17.332031 C 28.707031 18.054688 28.648438 18.839844 28.824219 19.617188 C 28.9375 20.109375 29.132812 20.582031 29.4375 20.980469 C 29.519531 21.09375 29.625 21.214844 29.738281 21.332031 C 29.695312 21.351562 29.65625 21.371094 29.613281 21.394531 Z M 29.613281 21.394531 " fill-opacity="1" fill-rule="nonzero"/></g><g clip-path="url(#edb280b8bc)"><path fill="#2f3c87" d="M 28.296875 15.273438 C 28.355469 15.300781 28.414062 15.328125 28.472656 15.351562 C 28.65625 15.421875 28.738281 15.125 28.554688 15.050781 C 28.46875 15.015625 28.378906 14.972656 28.296875 14.925781 C 28.25 14.652344 28.164062 14.371094 28.027344 14.132812 C 27.917969 13.941406 27.753906 13.691406 27.527344 13.636719 C 27.238281 13.574219 27.152344 13.882812 27.222656 14.117188 C 27.304688 14.382812 27.492188 14.617188 27.679688 14.820312 C 27.800781 14.949219 27.941406 15.070312 28.097656 15.160156 C 28.09375 15.203125 28.082031 15.238281 28.0625 15.273438 C 28.039062 15.316406 28.003906 15.339844 27.964844 15.351562 C 27.804688 15.105469 27.621094 14.878906 27.402344 14.6875 C 27.199219 14.507812 26.976562 14.359375 26.722656 14.253906 C 26.519531 14.167969 26.199219 14.089844 26.011719 14.265625 C 25.789062 14.46875 25.976562 14.765625 26.121094 14.949219 C 26.273438 15.136719 26.472656 15.273438 26.6875 15.367188 C 26.90625 15.464844 27.132812 15.53125 27.367188 15.570312 C 27.496094 15.59375 27.644531 15.625 27.78125 15.625 C 27.789062 15.644531 27.800781 15.660156 27.804688 15.671875 C 27.851562 15.773438 27.863281 15.851562 27.777344 15.921875 C 27.742188 15.945312 27.710938 15.972656 27.671875 15.996094 C 27.597656 15.929688 27.507812 15.863281 27.421875 15.804688 C 27.226562 15.679688 27.003906 15.542969 26.777344 15.511719 C 26.589844 15.488281 26.402344 15.570312 26.367188 15.773438 C 26.320312 16.03125 26.511719 16.246094 26.730469 16.339844 C 27.046875 16.484375 27.425781 16.453125 27.734375 16.300781 C 27.789062 16.351562 27.839844 16.40625 27.894531 16.460938 C 27.953125 16.519531 28.058594 16.441406 28.003906 16.371094 C 27.964844 16.316406 27.921875 16.261719 27.882812 16.210938 C 27.910156 16.191406 27.941406 16.167969 27.964844 16.148438 C 28.164062 15.984375 28.15625 15.773438 28.074219 15.570312 C 28.199219 15.511719 28.269531 15.398438 28.296875 15.273438 Z M 27.632812 14.332031 C 27.574219 14.257812 27.527344 14.179688 27.484375 14.097656 C 27.457031 14.039062 27.398438 13.917969 27.421875 13.847656 C 27.480469 13.691406 27.742188 14.050781 27.777344 14.105469 C 27.886719 14.269531 27.96875 14.457031 28.015625 14.652344 C 28.023438 14.683594 28.035156 14.710938 28.039062 14.746094 C 27.886719 14.628906 27.746094 14.484375 27.632812 14.332031 Z M 27.082031 15.238281 C 26.753906 15.148438 26.425781 14.992188 26.222656 14.707031 C 26.179688 14.644531 26.0625 14.496094 26.144531 14.4375 C 26.214844 14.382812 26.359375 14.425781 26.4375 14.445312 C 26.628906 14.496094 26.792969 14.617188 26.957031 14.734375 C 27.191406 14.902344 27.421875 15.105469 27.597656 15.34375 C 27.421875 15.316406 27.25 15.285156 27.082031 15.238281 Z M 27.117188 16.1875 C 26.929688 16.199219 26.765625 16.144531 26.648438 15.988281 C 26.601562 15.929688 26.523438 15.804688 26.601562 15.738281 C 26.648438 15.695312 26.730469 15.707031 26.78125 15.71875 C 26.980469 15.757812 27.1875 15.875 27.351562 15.988281 C 27.398438 16.019531 27.445312 16.054688 27.484375 16.089844 C 27.367188 16.136719 27.246094 16.179688 27.117188 16.1875 Z M 16.597656 20.886719 C 16.625 20.878906 16.648438 20.875 16.679688 20.867188 C 16.679688 20.929688 16.679688 20.980469 16.683594 21.042969 C 16.695312 21.195312 16.921875 21.203125 16.921875 21.042969 C 16.921875 20.945312 16.933594 20.855469 16.941406 20.761719 C 17.09375 20.675781 17.234375 20.558594 17.355469 20.433594 C 17.550781 20.230469 17.71875 20.007812 17.8125 19.746094 C 17.890625 19.539062 17.902344 19.199219 17.609375 19.191406 C 17.367188 19.1875 17.140625 19.425781 17.015625 19.609375 C 16.835938 19.871094 16.75 20.210938 16.703125 20.523438 C 16.703125 20.527344 16.703125 20.527344 16.703125 20.535156 C 16.550781 20.589844 16.386719 20.613281 16.269531 20.476562 C 16.246094 20.449219 16.226562 20.425781 16.214844 20.398438 C 16.601562 19.949219 16.800781 19.382812 16.8125 18.78125 C 16.820312 18.523438 16.761719 18.140625 16.449219 18.101562 C 16.144531 18.058594 15.933594 18.386719 15.835938 18.636719 C 15.625 19.175781 15.648438 19.859375 15.863281 20.398438 C 15.8125 20.445312 15.757812 20.492188 15.707031 20.523438 C 15.515625 20.636719 15.316406 20.492188 15.175781 20.347656 C 15.328125 20.0625 15.378906 19.722656 15.386719 19.394531 C 15.386719 19.136719 15.363281 18.816406 15.164062 18.632812 C 14.980469 18.464844 14.671875 18.421875 14.511719 18.636719 C 14.367188 18.839844 14.390625 19.15625 14.425781 19.390625 C 14.472656 19.675781 14.582031 19.949219 14.742188 20.1875 C 14.792969 20.265625 14.851562 20.34375 14.917969 20.421875 C 14.859375 20.515625 14.789062 20.613281 14.707031 20.695312 C 14.660156 20.742188 14.722656 20.839844 14.78125 20.796875 C 14.882812 20.726562 14.96875 20.640625 15.046875 20.550781 C 15.152344 20.648438 15.261719 20.730469 15.390625 20.777344 C 15.625 20.867188 15.824219 20.773438 15.992188 20.625 C 16.128906 20.828125 16.34375 20.921875 16.597656 20.886719 Z M 17.035156 20.261719 C 17.097656 20.035156 17.179688 19.800781 17.34375 19.628906 C 17.390625 19.578125 17.667969 19.339844 17.679688 19.507812 C 17.683594 19.605469 17.609375 19.734375 17.5625 19.8125 C 17.507812 19.90625 17.4375 20.003906 17.367188 20.085938 C 17.261719 20.207031 17.140625 20.308594 17 20.390625 C 17.011719 20.347656 17.023438 20.300781 17.035156 20.261719 Z M 16.058594 19.089844 C 16.09375 18.910156 16.140625 18.714844 16.25 18.570312 C 16.285156 18.53125 16.367188 18.429688 16.414062 18.457031 C 16.480469 18.496094 16.484375 18.644531 16.484375 18.703125 C 16.515625 19.175781 16.402344 19.632812 16.152344 20.027344 C 16.132812 20.058594 16.117188 20.085938 16.09375 20.117188 C 16.074219 20.035156 16.058594 19.949219 16.046875 19.878906 C 16.003906 19.617188 16.011719 19.347656 16.058594 19.089844 Z M 15.015625 20.1875 C 14.765625 19.878906 14.605469 19.484375 14.601562 19.078125 C 14.601562 18.976562 14.59375 18.851562 14.652344 18.761719 C 14.730469 18.644531 14.882812 18.671875 14.976562 18.75 C 15.144531 18.894531 15.128906 19.191406 15.132812 19.394531 C 15.144531 19.675781 15.109375 19.945312 15.015625 20.1875 Z M 19.644531 1.675781 C 19.621094 1.636719 19.679688 1.601562 19.707031 1.640625 C 20.488281 2.859375 21.351562 4.027344 22.191406 5.207031 C 23.015625 6.367188 23.828125 7.53125 24.664062 8.679688 C 25.519531 9.863281 26.382812 11.03125 27.25 12.207031 C 28.132812 13.398438 29.050781 14.5625 29.917969 15.761719 C 29.984375 15.851562 29.753906 15.929688 29.691406 15.84375 C 28.75 14.640625 27.933594 13.417969 27.003906 12.199219 C 26.164062 11.089844 25.148438 9.671875 24.3125 8.554688 C 23.460938 7.421875 22.816406 6.527344 22.019531 5.347656 C 21.183594 4.125 20.394531 2.941406 19.644531 1.675781 Z M 29.085938 16.710938 C 28.074219 17.15625 27.167969 17.496094 26.152344 17.914062 C 25.546875 18.160156 24.945312 18.410156 24.34375 18.660156 C 23.679688 18.9375 23.015625 19.210938 22.351562 19.484375 C 21.691406 19.757812 21.023438 20.035156 20.359375 20.300781 C 19.75 20.546875 19.148438 20.792969 18.539062 21.035156 C 18.046875 21.226562 17.554688 21.417969 17.0625 21.597656 C 16.75 21.710938 16.433594 21.828125 16.109375 21.90625 C 16.085938 21.914062 15.78125 21.988281 15.859375 21.882812 C 15.800781 21.90625 15.769531 21.804688 15.828125 21.78125 C 16.082031 21.679688 16.339844 21.574219 16.589844 21.472656 C 17.414062 21.136719 18.238281 20.804688 19.070312 20.476562 C 19.960938 20.117188 20.851562 19.765625 21.734375 19.40625 C 22.609375 19.054688 23.496094 18.703125 24.371094 18.34375 C 25.171875 18.023438 26.058594 17.699219 26.851562 17.371094 C 27.34375 17.167969 27.777344 16.996094 28.261719 16.789062 C 28.761719 16.574219 29.257812 16.347656 29.75 16.113281 C 29.902344 16.042969 30.011719 16.3125 29.859375 16.386719 C 29.660156 16.496094 29.304688 16.613281 29.085938 16.710938 Z M 30.507812 21.738281 C 29.953125 22.074219 29.339844 22.304688 28.742188 22.570312 C 28.144531 22.832031 27.550781 23.085938 26.953125 23.351562 C 25.792969 23.851562 24.628906 24.351562 23.464844 24.839844 C 21.066406 25.851562 18.65625 26.828125 16.226562 27.757812 C 16.152344 27.789062 16.121094 27.667969 16.191406 27.640625 C 18.585938 26.621094 20.984375 25.609375 23.371094 24.578125 C 24.558594 24.066406 25.753906 23.558594 26.941406 23.039062 C 28.085938 22.539062 29.234375 21.917969 30.425781 21.546875 C 30.542969 21.511719 30.609375 21.679688 30.507812 21.738281 Z M 4.09375 7.023438 C 3.0625 8.515625 3 10.28125 3.074219 12.039062 C 3.082031 12.136719 2.941406 12.136719 2.929688 12.039062 C 2.769531 10.304688 2.851562 8.363281 3.933594 6.925781 C 4.003906 6.832031 4.15625 6.921875 4.09375 7.023438 Z M 18.679688 2.078125 C 18.632812 2.046875 18.585938 2.015625 18.539062 2 C 18.460938 1.964844 18.378906 1.945312 18.296875 1.941406 C 18.316406 1.878906 18.328125 1.820312 18.34375 1.761719 C 18.363281 1.675781 18.238281 1.640625 18.222656 1.726562 C 18.207031 1.796875 18.183594 1.867188 18.164062 1.933594 C 18.042969 1.945312 17.917969 1.980469 17.8125 2.046875 C 17.457031 2.273438 17.082031 2.542969 16.878906 2.929688 C 16.800781 3.074219 16.660156 3.335938 16.796875 3.480469 C 16.980469 3.679688 17.246094 3.527344 17.414062 3.378906 C 17.796875 3.042969 18.089844 2.644531 18.246094 2.15625 C 18.25 2.136719 18.257812 2.125 18.257812 2.105469 C 18.351562 2.117188 18.4375 2.15625 18.519531 2.230469 C 18.492188 2.269531 18.46875 2.296875 18.4375 2.332031 C 18.355469 2.441406 18.269531 2.546875 18.199219 2.660156 C 18.058594 2.894531 17.972656 3.164062 17.9375 3.429688 C 17.902344 3.6875 17.917969 3.972656 18.128906 4.152344 C 18.308594 4.308594 18.578125 4.242188 18.726562 4.070312 C 18.894531 3.871094 18.953125 3.617188 18.972656 3.359375 C 18.988281 3.078125 18.972656 2.785156 18.917969 2.511719 C 18.902344 2.429688 18.890625 2.328125 18.847656 2.25 C 18.867188 2.238281 18.890625 2.226562 18.914062 2.226562 C 19.007812 2.203125 19.082031 2.238281 19.160156 2.304688 C 19.070312 2.792969 19.023438 3.3125 19.1875 3.796875 C 19.234375 3.925781 19.328125 4.148438 19.464844 4.238281 C 19.625 4.34375 19.835938 4.261719 19.941406 4.105469 C 20.007812 4.007812 20.035156 3.890625 20.046875 3.769531 C 20.066406 3.597656 20.042969 3.417969 19.996094 3.253906 C 19.972656 3.164062 19.9375 3.078125 19.894531 2.996094 C 19.820312 2.835938 19.726562 2.679688 19.621094 2.535156 C 19.585938 2.484375 19.476562 2.386719 19.464844 2.328125 C 19.453125 2.269531 19.539062 2.136719 19.5625 2.078125 C 19.597656 2 19.585938 1.910156 19.511719 1.863281 C 19.445312 1.820312 19.335938 1.839844 19.300781 1.914062 C 19.277344 1.976562 19.253906 2.035156 19.230469 2.09375 C 19.082031 2 18.917969 1.957031 18.738281 2.054688 C 18.714844 2.054688 18.695312 2.066406 18.679688 2.078125 Z M 17.738281 2.816406 C 17.613281 2.976562 17.472656 3.132812 17.316406 3.265625 C 17.238281 3.328125 17.132812 3.394531 17.039062 3.40625 C 16.941406 3.417969 16.898438 3.347656 16.917969 3.265625 C 16.980469 2.941406 17.203125 2.703125 17.445312 2.5 C 17.621094 2.351562 17.859375 2.160156 18.101562 2.113281 C 18.011719 2.363281 17.902344 2.601562 17.738281 2.816406 Z M 18.660156 3.359375 C 18.644531 3.527344 18.613281 3.722656 18.519531 3.867188 C 18.484375 3.921875 18.457031 3.949219 18.398438 3.96875 C 18.292969 3.992188 18.230469 3.945312 18.1875 3.84375 C 18.113281 3.65625 18.164062 3.429688 18.21875 3.246094 C 18.269531 3.042969 18.351562 2.871094 18.46875 2.703125 C 18.527344 2.625 18.578125 2.542969 18.636719 2.464844 C 18.644531 2.546875 18.644531 2.636719 18.648438 2.714844 C 18.671875 2.929688 18.683594 3.144531 18.660156 3.359375 Z M 19.324219 2.847656 C 19.335938 2.769531 19.351562 2.691406 19.375 2.613281 C 19.429688 2.710938 19.765625 3.269531 19.785156 3.539062 C 19.789062 3.664062 19.808594 3.894531 19.683594 3.945312 C 19.621094 3.96875 19.5625 3.949219 19.515625 3.910156 C 19.492188 3.871094 19.46875 3.835938 19.453125 3.796875 C 19.421875 3.734375 19.398438 3.675781 19.382812 3.617188 C 19.347656 3.453125 19.300781 3.125 19.324219 2.847656 Z M 6.066406 6.855469 C 6.085938 6.875 6.109375 6.890625 6.132812 6.902344 C 5.949219 7.367188 6.34375 7.957031 6.691406 8.234375 C 6.996094 8.472656 8.066406 8.882812 7.9375 8.085938 C 7.902344 7.851562 7.707031 7.65625 7.507812 7.480469 C 7.75 7.554688 8 7.601562 8.253906 7.59375 C 8.488281 7.59375 8.878906 7.582031 9.046875 7.378906 C 9.457031 6.890625 8.386719 6.605469 8.125 6.539062 C 7.730469 6.445312 7.054688 6.324219 6.578125 6.492188 C 6.578125 6.472656 6.578125 6.457031 6.585938 6.4375 C 6.601562 6.335938 6.667969 6.253906 6.75 6.179688 C 7.253906 6.355469 7.847656 6.414062 8.324219 6.210938 C 8.691406 6.050781 8.523438 5.574219 8.164062 5.519531 C 7.742188 5.460938 7.058594 5.632812 6.671875 5.972656 C 6.601562 5.949219 6.539062 5.925781 6.46875 5.894531 C 6.378906 5.851562 6.296875 5.984375 6.386719 6.03125 C 6.433594 6.054688 6.484375 6.078125 6.539062 6.105469 C 6.496094 6.152344 6.46875 6.203125 6.4375 6.257812 C 6.378906 6.382812 6.355469 6.496094 6.367188 6.597656 C 6.351562 6.609375 6.339844 6.621094 6.328125 6.628906 C 6.28125 6.605469 6.226562 6.582031 6.175781 6.558594 C 6.007812 6.496094 5.9375 6.761719 6.066406 6.855469 Z M 7.300781 5.914062 C 7.515625 5.839844 7.882812 5.710938 8.105469 5.78125 C 8.515625 5.914062 8.152344 6.03125 7.996094 6.0625 C 7.65625 6.132812 7.300781 6.128906 6.960938 6.054688 C 7.078125 5.992188 7.199219 5.949219 7.300781 5.914062 Z M 7.300781 6.695312 C 7.507812 6.695312 9.007812 6.8125 8.84375 7.242188 C 8.796875 7.367188 8.253906 7.332031 8.128906 7.320312 C 7.871094 7.304688 7.613281 7.25 7.375 7.152344 C 7.1875 7.082031 6.832031 6.960938 6.667969 6.746094 C 6.867188 6.6875 7.117188 6.695312 7.300781 6.695312 Z M 6.367188 7.070312 C 6.679688 7.277344 6.988281 7.476562 7.277344 7.730469 C 7.347656 7.796875 7.460938 7.871094 7.507812 7.953125 C 7.609375 8.136719 7.480469 8.25 7.316406 8.234375 C 7.089844 8.210938 6.824219 7.996094 6.671875 7.828125 C 6.515625 7.65625 6.316406 7.332031 6.367188 7.070312 Z M 14.523438 23.039062 C 13.964844 24.601562 13.894531 26.339844 14.484375 27.902344 C 14.5 27.949219 14.417969 27.984375 14.394531 27.9375 C 13.710938 26.351562 13.613281 24.574219 14.273438 22.96875 C 14.335938 22.820312 14.582031 22.878906 14.523438 23.039062 Z M 15.238281 21.960938 C 15.308594 22.054688 15.152344 22.144531 15.085938 22.050781 C 14.175781 20.777344 13.214844 19.539062 12.300781 18.265625 C 11.402344 17.015625 10.511719 15.761719 9.628906 14.503906 C 7.847656 11.96875 6.121094 9.382812 4.460938 6.765625 C 4.351562 6.59375 4.621094 6.4375 4.730469 6.605469 C 6.515625 9.144531 8.277344 11.699219 10.015625 14.269531 C 10.875 15.542969 11.738281 16.8125 12.605469 18.082031 C 13.488281 19.378906 14.335938 20.691406 15.238281 21.960938 Z M 8.675781 4.511719 C 10.324219 3.871094 11.96875 3.222656 13.640625 2.648438 C 14.488281 2.363281 15.339844 2.078125 16.1875 1.800781 C 17 1.539062 17.84375 1.1875 18.683594 1.0625 C 18.765625 1.050781 18.835938 1.171875 18.75 1.210938 C 17.972656 1.59375 17.082031 1.789062 16.257812 2.058594 C 15.433594 2.328125 14.605469 2.609375 13.78125 2.886719 C 12.089844 3.46875 10.386719 4.015625 8.703125 4.625 C 8.632812 4.652344 8.605469 4.539062 8.675781 4.511719 Z M 8.675781 4.511719 " fill-opacity="1" fill-rule="nonzero"/></g><g fill="#000000" fill-opacity="1"><g transform="translate(78.841631, 12.929704)"><g><path d="M 0 0 L 0 -0.015625 C 0 -0.015625 0.00390625 -0.015625 0.015625 -0.015625 L 0.015625 0 L 0.015625 -0.015625 C 0.015625 -0.015625 0.015625 -0.0078125 0.015625 0 L 0.015625 -0.015625 C 0.015625 -0.015625 0.0078125 -0.015625 0 -0.015625 C 0 -0.015625 0 -0.0078125 0 0 Z M 0 0 "/></g></g></g><g fill="#000000" fill-opacity="1"><g transform="translate(32.449183, 20.409921)"><g><path d="M 5.640625 -1.296875 C 6.035156 -1.296875 6.390625 -1.390625 6.703125 -1.578125 C 7.023438 -1.765625 7.269531 -1.945312 7.4375 -2.125 C 7.832031 -2.539062 8.03125 -3.046875 8.03125 -3.640625 C 8.03125 -4.566406 7.726562 -5.273438 7.125 -5.765625 C 6.519531 -6.253906 5.703125 -6.5 4.671875 -6.5 L 3.609375 -6.5 C 3.535156 -6.5 3.5 -6.570312 3.5 -6.71875 L 3.5 -7.625 C 3.5 -7.769531 3.535156 -7.84375 3.609375 -7.84375 L 4.671875 -7.84375 C 5.503906 -7.84375 6.113281 -8.0625 6.5 -8.5 C 6.894531 -8.945312 7.09375 -9.425781 7.09375 -9.9375 C 7.09375 -10.257812 7.035156 -10.539062 6.921875 -10.78125 C 6.804688 -11.019531 6.617188 -11.234375 6.359375 -11.421875 C 6.109375 -11.609375 5.851562 -11.722656 5.59375 -11.765625 L 5.421875 -11.796875 L 3.546875 -11.796875 C 3.421875 -11.796875 3.3125 -11.753906 3.21875 -11.671875 C 3.132812 -11.597656 3.09375 -11.503906 3.09375 -11.390625 L 3.09375 -1.703125 C 3.09375 -1.585938 3.132812 -1.488281 3.21875 -1.40625 C 3.3125 -1.332031 3.421875 -1.296875 3.546875 -1.296875 Z M 5.34375 0 L 1.015625 0 C 0.953125 0 0.921875 -0.046875 0.921875 -0.140625 C 0.921875 -0.234375 0.929688 -0.285156 0.953125 -0.296875 C 0.972656 -0.316406 1.003906 -0.335938 1.046875 -0.359375 C 1.097656 -0.378906 1.15625 -0.421875 1.21875 -0.484375 C 1.28125 -0.554688 1.347656 -0.679688 1.421875 -0.859375 C 1.503906 -1.035156 1.546875 -1.210938 1.546875 -1.390625 L 1.546875 -11.6875 C 1.546875 -12.070312 1.414062 -12.394531 1.15625 -12.65625 C 1.132812 -12.675781 1.085938 -12.703125 1.015625 -12.734375 C 0.953125 -12.765625 0.921875 -12.828125 0.921875 -12.921875 C 0.921875 -13.023438 0.953125 -13.078125 1.015625 -13.078125 L 5.296875 -13.078125 C 5.753906 -13.078125 6.191406 -12.988281 6.609375 -12.8125 C 7.023438 -12.644531 7.375 -12.414062 7.65625 -12.125 C 8.289062 -11.488281 8.609375 -10.804688 8.609375 -10.078125 C 8.609375 -9.523438 8.46875 -9.050781 8.1875 -8.65625 C 7.914062 -8.269531 7.460938 -7.84375 6.828125 -7.375 L 6.828125 -7.203125 C 8.691406 -6.441406 9.625 -5.257812 9.625 -3.65625 C 9.625 -2.800781 9.238281 -1.992188 8.46875 -1.234375 C 8.113281 -0.867188 7.660156 -0.570312 7.109375 -0.34375 C 6.566406 -0.113281 5.976562 0 5.34375 0 Z M 5.34375 0 "/></g></g></g><g fill="#000000" fill-opacity="1"><g transform="translate(42.60953, 20.409921)"><g><path d="M 2.59375 -6.359375 C 2.25 -6.140625 1.992188 -5.851562 1.828125 -5.5 C 1.671875 -5.144531 1.59375 -4.695312 1.59375 -4.15625 C 1.59375 -3.613281 1.742188 -3.070312 2.046875 -2.53125 C 2.347656 -1.988281 2.757812 -1.554688 3.28125 -1.234375 C 3.800781 -0.921875 4.320312 -0.765625 4.84375 -0.765625 C 5.363281 -0.765625 5.785156 -0.878906 6.109375 -1.109375 C 6.441406 -1.347656 6.691406 -1.65625 6.859375 -2.03125 C 7.035156 -2.40625 7.125 -2.816406 7.125 -3.265625 C 7.125 -4.203125 6.820312 -5.007812 6.21875 -5.6875 C 5.625 -6.363281 4.820312 -6.703125 3.8125 -6.703125 C 3.351562 -6.703125 2.945312 -6.585938 2.59375 -6.359375 Z M 1.625 -0.96875 C 1.269531 -1.3125 0.984375 -1.722656 0.765625 -2.203125 C 0.546875 -2.679688 0.4375 -3.25 0.4375 -3.90625 C 0.4375 -4.5625 0.601562 -5.195312 0.9375 -5.8125 C 1.28125 -6.425781 1.765625 -6.90625 2.390625 -7.25 C 3.015625 -7.601562 3.664062 -7.78125 4.34375 -7.78125 C 5.582031 -7.78125 6.566406 -7.390625 7.296875 -6.609375 C 8.023438 -5.835938 8.390625 -4.894531 8.390625 -3.78125 C 8.390625 -2.675781 8.003906 -1.742188 7.234375 -0.984375 C 6.460938 -0.234375 5.488281 0.140625 4.3125 0.140625 C 3.8125 0.140625 3.328125 0.0390625 2.859375 -0.15625 C 2.390625 -0.363281 1.976562 -0.632812 1.625 -0.96875 Z M 1.625 -0.96875 "/></g></g></g><g fill="#000000" fill-opacity="1"><g transform="translate(51.427945, 20.409921)"><g><path d="M 2.59375 -6.359375 C 2.25 -6.140625 1.992188 -5.851562 1.828125 -5.5 C 1.671875 -5.144531 1.59375 -4.695312 1.59375 -4.15625 C 1.59375 -3.613281 1.742188 -3.070312 2.046875 -2.53125 C 2.347656 -1.988281 2.757812 -1.554688 3.28125 -1.234375 C 3.800781 -0.921875 4.320312 -0.765625 4.84375 -0.765625 C 5.363281 -0.765625 5.785156 -0.878906 6.109375 -1.109375 C 6.441406 -1.347656 6.691406 -1.65625 6.859375 -2.03125 C 7.035156 -2.40625 7.125 -2.816406 7.125 -3.265625 C 7.125 -4.203125 6.820312 -5.007812 6.21875 -5.6875 C 5.625 -6.363281 4.820312 -6.703125 3.8125 -6.703125 C 3.351562 -6.703125 2.945312 -6.585938 2.59375 -6.359375 Z M 1.625 -0.96875 C 1.269531 -1.3125 0.984375 -1.722656 0.765625 -2.203125 C 0.546875 -2.679688 0.4375 -3.25 0.4375 -3.90625 C 0.4375 -4.5625 0.601562 -5.195312 0.9375 -5.8125 C 1.28125 -6.425781 1.765625 -6.90625 2.390625 -7.25 C 3.015625 -7.601562 3.664062 -7.78125 4.34375 -7.78125 C 5.582031 -7.78125 6.566406 -7.390625 7.296875 -6.609375 C 8.023438 -5.835938 8.390625 -4.894531 8.390625 -3.78125 C 8.390625 -2.675781 8.003906 -1.742188 7.234375 -0.984375 C 6.460938 -0.234375 5.488281 0.140625 4.3125 0.140625 C 3.8125 0.140625 3.328125 0.0390625 2.859375 -0.15625 C 2.390625 -0.363281 1.976562 -0.632812 1.625 -0.96875 Z M 1.625 -0.96875 "/></g></g></g><g fill="#000000" fill-opacity="1"><g transform="translate(60.24636, 20.409921)"><g><path d="M 2.734375 -1.390625 L 2.71875 -1.046875 C 2.71875 -0.929688 2.742188 -0.804688 2.796875 -0.671875 C 2.859375 -0.546875 2.960938 -0.453125 3.109375 -0.390625 C 3.265625 -0.335938 3.34375 -0.28125 3.34375 -0.21875 C 3.34375 -0.0703125 3.3125 0 3.25 0 L 0.890625 0 C 0.828125 0 0.796875 -0.046875 0.796875 -0.140625 C 0.796875 -0.234375 0.816406 -0.296875 0.859375 -0.328125 C 0.898438 -0.359375 0.953125 -0.382812 1.015625 -0.40625 C 1.085938 -0.4375 1.140625 -0.46875 1.171875 -0.5 C 1.210938 -0.539062 1.25 -0.585938 1.28125 -0.640625 C 1.3125 -0.691406 1.335938 -0.734375 1.359375 -0.765625 C 1.378906 -0.804688 1.390625 -0.859375 1.390625 -0.921875 C 1.398438 -0.984375 1.40625 -1.023438 1.40625 -1.046875 L 1.40625 -11.09375 C 1.40625 -11.269531 1.363281 -11.394531 1.28125 -11.46875 C 1.207031 -11.539062 1.117188 -11.578125 1.015625 -11.578125 C 0.921875 -11.585938 0.859375 -11.601562 0.828125 -11.625 C 0.785156 -11.65625 0.765625 -11.695312 0.765625 -11.75 L 0.765625 -11.890625 C 0.765625 -11.921875 0.78125 -11.941406 0.8125 -11.953125 C 0.84375 -11.972656 0.859375 -11.988281 0.859375 -12 L 2.296875 -13.0625 C 2.316406 -13.070312 2.375 -13.078125 2.46875 -13.078125 C 2.5625 -13.078125 2.628906 -13.066406 2.671875 -13.046875 C 2.710938 -13.023438 2.734375 -12.957031 2.734375 -12.84375 L 2.734375 -4.25 L 2.75 -4.25 L 5.359375 -6.734375 C 5.441406 -6.828125 5.484375 -6.914062 5.484375 -7 C 5.484375 -7.132812 5.421875 -7.21875 5.296875 -7.25 C 5.171875 -7.28125 5.109375 -7.328125 5.109375 -7.390625 C 5.109375 -7.535156 5.144531 -7.609375 5.21875 -7.609375 L 7.046875 -7.609375 C 7.117188 -7.609375 7.15625 -7.5625 7.15625 -7.46875 C 7.15625 -7.375 7.140625 -7.304688 7.109375 -7.265625 C 7.078125 -7.222656 7.023438 -7.171875 6.953125 -7.109375 C 6.890625 -7.054688 6.847656 -7.019531 6.828125 -7 L 4.4375 -4.71875 L 4.4375 -4.703125 L 6.8125 -1.28125 C 7.269531 -0.71875 7.5 -0.363281 7.5 -0.21875 C 7.5 -0.0703125 7.460938 0 7.390625 0 L 5.390625 0 C 5.316406 0 5.28125 -0.046875 5.28125 -0.140625 C 5.28125 -0.234375 5.316406 -0.300781 5.390625 -0.34375 C 5.609375 -0.46875 5.71875 -0.5625 5.71875 -0.625 C 5.71875 -0.726562 5.695312 -0.796875 5.65625 -0.828125 L 3.53125 -3.859375 L 3.5 -3.859375 L 2.734375 -3.109375 Z M 2.734375 -1.390625 "/></g></g></g><g fill="#000000" fill-opacity="1"><g transform="translate(67.874614, 20.409921)"><g/></g></g><g fill="#000000" fill-opacity="1"><g transform="translate(71.964314, 20.409921)"><g><path d="M 7.375 -0.90625 C 8.570312 -0.90625 9.644531 -1.175781 10.59375 -1.71875 C 11.550781 -2.269531 12.335938 -3.003906 12.953125 -3.921875 C 13.015625 -4.023438 13.0625 -4.054688 13.09375 -4.015625 C 13.132812 -3.972656 13.179688 -3.914062 13.234375 -3.84375 L 13.484375 -3.484375 C 13.566406 -3.347656 13.597656 -3.265625 13.578125 -3.234375 C 13.253906 -2.585938 12.71875 -1.953125 11.96875 -1.328125 C 10.570312 -0.160156 9.039062 0.421875 7.375 0.421875 C 6.40625 0.421875 5.492188 0.234375 4.640625 -0.140625 C 3.796875 -0.515625 3.082031 -1.015625 2.5 -1.640625 C 1.925781 -2.273438 1.472656 -3.015625 1.140625 -3.859375 C 0.804688 -4.703125 0.640625 -5.578125 0.640625 -6.484375 C 0.640625 -7.390625 0.816406 -8.253906 1.171875 -9.078125 C 1.535156 -9.910156 2.015625 -10.628906 2.609375 -11.234375 C 3.210938 -11.835938 3.925781 -12.320312 4.75 -12.6875 C 5.582031 -13.050781 6.421875 -13.234375 7.265625 -13.234375 C 8.265625 -13.234375 9.269531 -13.039062 10.28125 -12.65625 L 10.65625 -12.515625 C 10.707031 -12.492188 10.78125 -12.515625 10.875 -12.578125 C 10.96875 -12.640625 11.066406 -12.671875 11.171875 -12.671875 C 11.285156 -12.671875 11.375 -12.625 11.4375 -12.53125 C 11.457031 -12.507812 11.460938 -12.453125 11.453125 -12.359375 C 11.441406 -12.203125 11.503906 -11.847656 11.640625 -11.296875 L 11.84375 -10.421875 C 11.894531 -10.191406 11.921875 -10.046875 11.921875 -9.984375 C 11.921875 -9.941406 11.851562 -9.890625 11.71875 -9.828125 C 11.582031 -9.765625 11.503906 -9.75 11.484375 -9.78125 C 11.046875 -10.550781 10.488281 -11.082031 9.8125 -11.375 C 9.144531 -11.675781 8.3125 -11.828125 7.3125 -11.828125 C 6.320312 -11.828125 5.421875 -11.597656 4.609375 -11.140625 C 3.804688 -10.691406 3.1875 -10.0625 2.75 -9.25 C 2.3125 -8.445312 2.09375 -7.535156 2.09375 -6.515625 C 2.09375 -5.835938 2.25 -5.15625 2.5625 -4.46875 C 2.875 -3.789062 3.269531 -3.191406 3.75 -2.671875 C 4.238281 -2.148438 4.804688 -1.722656 5.453125 -1.390625 C 6.097656 -1.066406 6.738281 -0.90625 7.375 -0.90625 Z M 7.375 -0.90625 "/></g></g></g><g fill="#000000" fill-opacity="1"><g transform="translate(86.078576, 20.409921)"><g><path d="M 2.59375 -6.359375 C 2.25 -6.140625 1.992188 -5.851562 1.828125 -5.5 C 1.671875 -5.144531 1.59375 -4.695312 1.59375 -4.15625 C 1.59375 -3.613281 1.742188 -3.070312 2.046875 -2.53125 C 2.347656 -1.988281 2.757812 -1.554688 3.28125 -1.234375 C 3.800781 -0.921875 4.320312 -0.765625 4.84375 -0.765625 C 5.363281 -0.765625 5.785156 -0.878906 6.109375 -1.109375 C 6.441406 -1.347656 6.691406 -1.65625 6.859375 -2.03125 C 7.035156 -2.40625 7.125 -2.816406 7.125 -3.265625 C 7.125 -4.203125 6.820312 -5.007812 6.21875 -5.6875 C 5.625 -6.363281 4.820312 -6.703125 3.8125 -6.703125 C 3.351562 -6.703125 2.945312 -6.585938 2.59375 -6.359375 Z M 1.625 -0.96875 C 1.269531 -1.3125 0.984375 -1.722656 0.765625 -2.203125 C 0.546875 -2.679688 0.4375 -3.25 0.4375 -3.90625 C 0.4375 -4.5625 0.601562 -5.195312 0.9375 -5.8125 C 1.28125 -6.425781 1.765625 -6.90625 2.390625 -7.25 C 3.015625 -7.601562 3.664062 -7.78125 4.34375 -7.78125 C 5.582031 -7.78125 6.566406 -7.390625 7.296875 -6.609375 C 8.023438 -5.835938 8.390625 -4.894531 8.390625 -3.78125 C 8.390625 -2.675781 8.003906 -1.742188 7.234375 -0.984375 C 6.460938 -0.234375 5.488281 0.140625 4.3125 0.140625 C 3.8125 0.140625 3.328125 0.0390625 2.859375 -0.15625 C 2.390625 -0.363281 1.976562 -0.632812 1.625 -0.96875 Z M 1.625 -0.96875 "/></g></g></g><g fill="#000000" fill-opacity="1"><g transform="translate(94.896991, 20.409921)"><g><path d="M 0.75 -11.75 L 0.765625 -11.890625 C 0.765625 -11.921875 0.773438 -11.941406 0.796875 -11.953125 C 0.828125 -11.972656 0.847656 -11.988281 0.859375 -12 L 2.296875 -13.0625 C 2.316406 -13.070312 2.34375 -13.078125 2.375 -13.078125 C 2.601562 -13.078125 2.71875 -13 2.71875 -12.84375 L 2.71875 -1.390625 C 2.71875 -1.359375 2.71875 -1.300781 2.71875 -1.21875 C 2.71875 -1.144531 2.71875 -1.085938 2.71875 -1.046875 C 2.75 -0.703125 2.859375 -0.5 3.046875 -0.4375 C 3.242188 -0.351562 3.34375 -0.28125 3.34375 -0.21875 C 3.34375 -0.0703125 3.304688 0 3.234375 0 L 0.890625 0 C 0.816406 0 0.78125 -0.046875 0.78125 -0.140625 C 0.78125 -0.234375 0.800781 -0.296875 0.84375 -0.328125 C 0.882812 -0.359375 0.941406 -0.382812 1.015625 -0.40625 C 1.085938 -0.4375 1.140625 -0.46875 1.171875 -0.5 C 1.210938 -0.539062 1.25 -0.585938 1.28125 -0.640625 C 1.3125 -0.691406 1.332031 -0.734375 1.34375 -0.765625 C 1.363281 -0.804688 1.378906 -0.859375 1.390625 -0.921875 C 1.398438 -0.984375 1.40625 -1.023438 1.40625 -1.046875 L 1.40625 -11.09375 C 1.40625 -11.269531 1.363281 -11.394531 1.28125 -11.46875 C 1.195312 -11.539062 1.109375 -11.578125 1.015625 -11.578125 C 0.921875 -11.585938 0.859375 -11.601562 0.828125 -11.625 C 0.773438 -11.65625 0.75 -11.695312 0.75 -11.75 Z M 0.75 -11.75 "/></g></g></g><g fill="#000000" fill-opacity="1"><g transform="translate(99.130469, 20.409921)"><g><path d="M 0.75 -11.75 L 0.765625 -11.890625 C 0.765625 -11.921875 0.773438 -11.941406 0.796875 -11.953125 C 0.828125 -11.972656 0.847656 -11.988281 0.859375 -12 L 2.296875 -13.0625 C 2.316406 -13.070312 2.34375 -13.078125 2.375 -13.078125 C 2.601562 -13.078125 2.71875 -13 2.71875 -12.84375 L 2.71875 -1.390625 C 2.71875 -1.359375 2.71875 -1.300781 2.71875 -1.21875 C 2.71875 -1.144531 2.71875 -1.085938 2.71875 -1.046875 C 2.75 -0.703125 2.859375 -0.5 3.046875 -0.4375 C 3.242188 -0.351562 3.34375 -0.28125 3.34375 -0.21875 C 3.34375 -0.0703125 3.304688 0 3.234375 0 L 0.890625 0 C 0.816406 0 0.78125 -0.046875 0.78125 -0.140625 C 0.78125 -0.234375 0.800781 -0.296875 0.84375 -0.328125 C 0.882812 -0.359375 0.941406 -0.382812 1.015625 -0.40625 C 1.085938 -0.4375 1.140625 -0.46875 1.171875 -0.5 C 1.210938 -0.539062 1.25 -0.585938 1.28125 -0.640625 C 1.3125 -0.691406 1.332031 -0.734375 1.34375 -0.765625 C 1.363281 -0.804688 1.378906 -0.859375 1.390625 -0.921875 C 1.398438 -0.984375 1.40625 -1.023438 1.40625 -1.046875 L 1.40625 -11.09375 C 1.40625 -11.269531 1.363281 -11.394531 1.28125 -11.46875 C 1.195312 -11.539062 1.109375 -11.578125 1.015625 -11.578125 C 0.921875 -11.585938 0.859375 -11.601562 0.828125 -11.625 C 0.773438 -11.65625 0.75 -11.695312 0.75 -11.75 Z M 0.75 -11.75 "/></g></g></g><g fill="#000000" fill-opacity="1"><g transform="translate(103.363947, 20.409921)"><g><path d="M 6.15625 -5.546875 C 5.832031 -6.453125 5.148438 -6.90625 4.109375 -6.90625 C 3.640625 -6.90625 3.207031 -6.773438 2.8125 -6.515625 C 2.414062 -6.265625 2.113281 -5.941406 1.90625 -5.546875 C 1.695312 -5.160156 1.59375 -4.796875 1.59375 -4.453125 C 1.59375 -4.109375 1.601562 -3.9375 1.625 -3.9375 L 6.140625 -5.515625 L 6.140625 -5.5625 Z M 1.796875 -3.09375 C 2.023438 -2.46875 2.410156 -1.972656 2.953125 -1.609375 C 3.492188 -1.253906 4.113281 -1.078125 4.8125 -1.078125 C 5.6875 -1.078125 6.488281 -1.488281 7.21875 -2.3125 C 7.320312 -2.414062 7.484375 -2.363281 7.703125 -2.15625 C 7.722656 -2.132812 7.722656 -2.109375 7.703125 -2.078125 C 7.097656 -1.234375 6.625 -0.695312 6.28125 -0.46875 C 5.71875 -0.0625 5.0625 0.140625 4.3125 0.140625 C 3.800781 0.140625 3.3125 0.0390625 2.84375 -0.15625 C 1.863281 -0.582031 1.171875 -1.265625 0.765625 -2.203125 C 0.546875 -2.679688 0.4375 -3.25 0.4375 -3.90625 C 0.4375 -4.5625 0.601562 -5.191406 0.9375 -5.796875 C 1.269531 -6.410156 1.75 -6.894531 2.375 -7.25 C 3.007812 -7.601562 3.738281 -7.78125 4.5625 -7.78125 C 5.5625 -7.78125 6.453125 -7.316406 7.234375 -6.390625 C 7.617188 -5.921875 7.8125 -5.546875 7.8125 -5.265625 Z M 1.796875 -3.09375 "/></g></g></g><g fill="#000000" fill-opacity="1"><g transform="translate(111.711094, 20.409921)"><g><path d="M 7.21875 -2.0625 C 7.300781 -2.15625 7.453125 -2.085938 7.671875 -1.859375 C 7.691406 -1.847656 7.691406 -1.828125 7.671875 -1.796875 C 6.734375 -0.503906 5.613281 0.140625 4.3125 0.140625 C 3.800781 0.140625 3.3125 0.0390625 2.84375 -0.15625 C 1.863281 -0.582031 1.171875 -1.265625 0.765625 -2.203125 C 0.546875 -2.679688 0.4375 -3.25 0.4375 -3.90625 C 0.4375 -4.5625 0.601562 -5.191406 0.9375 -5.796875 C 1.269531 -6.410156 1.75 -6.894531 2.375 -7.25 C 3.007812 -7.601562 3.765625 -7.78125 4.640625 -7.78125 C 5.515625 -7.78125 6.265625 -7.46875 6.890625 -6.84375 C 6.890625 -6.84375 6.9375 -6.804688 7.03125 -6.734375 C 7.039062 -6.722656 7.039062 -6.695312 7.03125 -6.65625 L 6.609375 -5.3125 C 6.578125 -5.226562 6.539062 -5.179688 6.5 -5.171875 C 6.46875 -5.171875 6.40625 -5.1875 6.3125 -5.21875 C 6.21875 -5.25 6.164062 -5.273438 6.15625 -5.296875 C 6.144531 -5.316406 6.125 -5.441406 6.09375 -5.671875 C 6.0625 -5.910156 5.960938 -6.113281 5.796875 -6.28125 C 5.359375 -6.695312 4.796875 -6.90625 4.109375 -6.90625 C 3.640625 -6.90625 3.207031 -6.773438 2.8125 -6.515625 C 2.414062 -6.265625 2.113281 -5.941406 1.90625 -5.546875 C 1.695312 -5.160156 1.59375 -4.695312 1.59375 -4.15625 C 1.59375 -3.625 1.734375 -3.109375 2.015625 -2.609375 C 2.304688 -2.117188 2.695312 -1.738281 3.1875 -1.46875 C 3.675781 -1.207031 4.1875 -1.078125 4.71875 -1.078125 C 5.257812 -1.085938 5.722656 -1.164062 6.109375 -1.3125 C 6.492188 -1.46875 6.863281 -1.71875 7.21875 -2.0625 Z M 7.21875 -2.0625 "/></g></g></g><g fill="#000000" fill-opacity="1"><g transform="translate(119.922444, 20.409921)"><g><path d="M 1.734375 -9.03125 C 1.753906 -9.132812 1.851562 -9.1875 2.03125 -9.1875 C 2.207031 -9.1875 2.296875 -9.132812 2.296875 -9.03125 L 2.296875 -7.609375 L 3.71875 -7.609375 C 3.988281 -7.609375 4.125 -7.578125 4.125 -7.515625 L 4.125 -6.8125 C 4.125 -6.738281 3.988281 -6.703125 3.71875 -6.703125 L 2.296875 -6.703125 L 2.296875 -1.734375 C 2.296875 -1.109375 2.484375 -0.753906 2.859375 -0.671875 C 3.140625 -0.617188 3.429688 -0.726562 3.734375 -1 C 3.859375 -1.113281 3.945312 -1.140625 4 -1.078125 C 4.050781 -1.015625 4.085938 -0.96875 4.109375 -0.9375 C 4.128906 -0.90625 4.140625 -0.875 4.140625 -0.84375 C 4.140625 -0.820312 4.140625 -0.800781 4.140625 -0.78125 C 4.140625 -0.757812 4.109375 -0.710938 4.046875 -0.640625 L 3.875 -0.5 C 3.320312 -0.0195312 2.785156 0.195312 2.265625 0.15625 C 1.742188 0.113281 1.375 -0.191406 1.15625 -0.765625 C 1.039062 -1.078125 0.984375 -1.453125 0.984375 -1.890625 L 0.984375 -6.703125 L 0.609375 -6.703125 C 0.335938 -6.703125 0.203125 -6.738281 0.203125 -6.8125 L 0.203125 -7.515625 C 0.203125 -7.578125 0.316406 -7.609375 0.546875 -7.609375 C 0.941406 -7.609375 1.222656 -7.742188 1.390625 -8.015625 C 1.566406 -8.296875 1.679688 -8.632812 1.734375 -9.03125 Z M 1.734375 -9.03125 "/></g></g></g><g fill="#000000" fill-opacity="1"><g transform="translate(124.171898, 20.409921)"><g><path d="M 2.671875 -11.59375 L 2.671875 -10.9375 C 2.671875 -10.882812 2.65625 -10.847656 2.625 -10.828125 C 2.601562 -10.804688 2.488281 -10.757812 2.28125 -10.6875 C 2.082031 -10.613281 1.9375 -10.550781 1.84375 -10.5 C 1.75 -10.457031 1.664062 -10.425781 1.59375 -10.40625 C 1.53125 -10.382812 1.488281 -10.378906 1.46875 -10.390625 C 1.457031 -10.410156 1.453125 -10.515625 1.453125 -10.703125 L 1.453125 -11.46875 C 1.453125 -11.476562 1.453125 -11.5 1.453125 -11.53125 C 1.453125 -11.5625 1.453125 -11.582031 1.453125 -11.59375 C 1.453125 -11.601562 1.453125 -11.617188 1.453125 -11.640625 C 1.460938 -11.660156 1.476562 -11.679688 1.5 -11.703125 C 1.519531 -11.734375 1.628906 -11.785156 1.828125 -11.859375 C 2.023438 -11.929688 2.171875 -11.988281 2.265625 -12.03125 C 2.484375 -12.132812 2.601562 -12.175781 2.625 -12.15625 C 2.65625 -12.132812 2.671875 -11.945312 2.671875 -11.59375 Z M 0.84375 0 C 0.78125 0 0.75 -0.046875 0.75 -0.140625 C 0.75 -0.234375 0.769531 -0.296875 0.8125 -0.328125 C 0.851562 -0.359375 0.90625 -0.382812 0.96875 -0.40625 C 1.226562 -0.507812 1.363281 -0.765625 1.375 -1.171875 L 1.375 -5.625 C 1.375 -5.789062 1.332031 -5.910156 1.25 -5.984375 C 1.164062 -6.066406 1.070312 -6.109375 0.96875 -6.109375 C 0.875 -6.117188 0.804688 -6.132812 0.765625 -6.15625 C 0.734375 -6.1875 0.71875 -6.242188 0.71875 -6.328125 C 0.71875 -6.410156 0.722656 -6.457031 0.734375 -6.46875 C 0.742188 -6.476562 0.757812 -6.488281 0.78125 -6.5 C 0.800781 -6.507812 0.8125 -6.519531 0.8125 -6.53125 L 2.25 -7.59375 C 2.289062 -7.613281 2.320312 -7.617188 2.34375 -7.609375 C 2.363281 -7.597656 2.425781 -7.578125 2.53125 -7.546875 C 2.632812 -7.515625 2.6875 -7.453125 2.6875 -7.359375 L 2.6875 -1.140625 C 2.6875 -0.753906 2.816406 -0.507812 3.078125 -0.40625 C 3.234375 -0.34375 3.3125 -0.28125 3.3125 -0.21875 C 3.3125 -0.0703125 3.28125 0 3.21875 0 Z M 0.84375 0 "/></g></g></g><g fill="#000000" fill-opacity="1"><g transform="translate(128.221665, 20.409921)"><g><path d="M 2.59375 -6.359375 C 2.25 -6.140625 1.992188 -5.851562 1.828125 -5.5 C 1.671875 -5.144531 1.59375 -4.695312 1.59375 -4.15625 C 1.59375 -3.613281 1.742188 -3.070312 2.046875 -2.53125 C 2.347656 -1.988281 2.757812 -1.554688 3.28125 -1.234375 C 3.800781 -0.921875 4.320312 -0.765625 4.84375 -0.765625 C 5.363281 -0.765625 5.785156 -0.878906 6.109375 -1.109375 C 6.441406 -1.347656 6.691406 -1.65625 6.859375 -2.03125 C 7.035156 -2.40625 7.125 -2.816406 7.125 -3.265625 C 7.125 -4.203125 6.820312 -5.007812 6.21875 -5.6875 C 5.625 -6.363281 4.820312 -6.703125 3.8125 -6.703125 C 3.351562 -6.703125 2.945312 -6.585938 2.59375 -6.359375 Z M 1.625 -0.96875 C 1.269531 -1.3125 0.984375 -1.722656 0.765625 -2.203125 C 0.546875 -2.679688 0.4375 -3.25 0.4375 -3.90625 C 0.4375 -4.5625 0.601562 -5.195312 0.9375 -5.8125 C 1.28125 -6.425781 1.765625 -6.90625 2.390625 -7.25 C 3.015625 -7.601562 3.664062 -7.78125 4.34375 -7.78125 C 5.582031 -7.78125 6.566406 -7.390625 7.296875 -6.609375 C 8.023438 -5.835938 8.390625 -4.894531 8.390625 -3.78125 C 8.390625 -2.675781 8.003906 -1.742188 7.234375 -0.984375 C 6.460938 -0.234375 5.488281 0.140625 4.3125 0.140625 C 3.8125 0.140625 3.328125 0.0390625 2.859375 -0.15625 C 2.390625 -0.363281 1.976562 -0.632812 1.625 -0.96875 Z M 1.625 -0.96875 "/></g></g></g><g fill="#000000" fill-opacity="1"><g transform="translate(137.04008, 20.409921)"><g><path d="M 0.8125 0 C 0.738281 0 0.703125 -0.046875 0.703125 -0.140625 C 0.703125 -0.234375 0.722656 -0.296875 0.765625 -0.328125 C 0.816406 -0.359375 0.875 -0.382812 0.9375 -0.40625 C 1.007812 -0.4375 1.066406 -0.46875 1.109375 -0.5 C 1.265625 -0.664062 1.34375 -0.847656 1.34375 -1.046875 C 1.34375 -1.253906 1.34375 -1.367188 1.34375 -1.390625 L 1.34375 -5.625 C 1.34375 -5.789062 1.300781 -5.910156 1.21875 -5.984375 C 1.132812 -6.066406 1.039062 -6.109375 0.9375 -6.109375 C 0.84375 -6.117188 0.78125 -6.132812 0.75 -6.15625 C 0.71875 -6.175781 0.695312 -6.195312 0.6875 -6.21875 C 0.6875 -6.238281 0.679688 -6.253906 0.671875 -6.265625 C 0.671875 -6.285156 0.671875 -6.3125 0.671875 -6.34375 C 0.679688 -6.375 0.6875 -6.398438 0.6875 -6.421875 C 0.6875 -6.441406 0.6875 -6.457031 0.6875 -6.46875 C 0.695312 -6.476562 0.710938 -6.488281 0.734375 -6.5 C 0.765625 -6.507812 0.78125 -6.519531 0.78125 -6.53125 L 2.21875 -7.59375 C 2.238281 -7.601562 2.296875 -7.609375 2.390625 -7.609375 C 2.492188 -7.609375 2.566406 -7.597656 2.609375 -7.578125 C 2.648438 -7.554688 2.671875 -7.484375 2.671875 -7.359375 L 2.671875 -6.78125 L 3.078125 -7.015625 L 3.3125 -7.140625 C 4.050781 -7.503906 4.742188 -7.6875 5.390625 -7.6875 C 6.035156 -7.6875 6.671875 -7.457031 7.296875 -7 C 7.578125 -6.789062 7.804688 -6.539062 7.984375 -6.25 C 8.160156 -5.957031 8.25 -5.648438 8.25 -5.328125 L 8.25 -1.046875 C 8.25 -0.929688 8.28125 -0.804688 8.34375 -0.671875 C 8.40625 -0.546875 8.507812 -0.453125 8.65625 -0.390625 C 8.800781 -0.335938 8.875 -0.28125 8.875 -0.21875 C 8.875 -0.0703125 8.835938 0 8.765625 0 L 6.4375 0 C 6.363281 0 6.328125 -0.046875 6.328125 -0.140625 C 6.328125 -0.234375 6.347656 -0.296875 6.390625 -0.328125 C 6.441406 -0.359375 6.5 -0.382812 6.5625 -0.40625 C 6.625 -0.4375 6.675781 -0.472656 6.71875 -0.515625 C 6.769531 -0.554688 6.8125 -0.601562 6.84375 -0.65625 C 6.875 -0.707031 6.894531 -0.769531 6.90625 -0.84375 C 6.925781 -0.914062 6.9375 -0.96875 6.9375 -1 C 6.9375 -1.03125 6.9375 -1.09375 6.9375 -1.1875 C 6.9375 -1.289062 6.9375 -1.359375 6.9375 -1.390625 L 6.9375 -5.125 C 6.9375 -5.445312 6.828125 -5.726562 6.609375 -5.96875 C 6.203125 -6.414062 5.628906 -6.640625 4.890625 -6.640625 C 4.148438 -6.640625 3.40625 -6.453125 2.65625 -6.078125 L 2.65625 -1.046875 C 2.65625 -0.929688 2.6875 -0.804688 2.75 -0.671875 C 2.820312 -0.546875 2.925781 -0.453125 3.0625 -0.390625 C 3.207031 -0.335938 3.28125 -0.28125 3.28125 -0.21875 C 3.28125 -0.0703125 3.242188 0 3.171875 0 Z M 0.8125 0 "/></g></g></g><g fill="#000000" fill-opacity="1"><g transform="translate(146.427201, 20.409921)"><g/></g></g></svg>