<svg xmlns="http://www.w3.org/2000/svg" xmlns:xlink="http://www.w3.org/1999/xlink" width="222" zoomAndPan="magnify" viewBox="0 0 166.5 30.000001" height="40" preserveAspectRatio="xMidYMid meet" version="1.0"><defs><g/><clipPath id="e7740a5a26"><path d="M 14 17 L 32 17 L 32 28.988281 L 14 28.988281 Z M 14 17 " clip-rule="nonzero"/></clipPath><clipPath id="ee97e95617"><path d="M 2.445312 0.683594 L 32.203125 0.683594 L 32.203125 28.988281 L 2.445312 28.988281 Z M 2.445312 0.683594 " clip-rule="nonzero"/></clipPath><clipPath id="323ce53aff"><path d="M 2.445312 1 L 32 1 L 32 28.988281 L 2.445312 28.988281 Z M 2.445312 1 " clip-rule="nonzero"/></clipPath></defs><g clip-path="url(#e7740a5a26)"><path fill="#ffffff" d="M 31.207031 21.765625 C 26.996094 23.589844 22.222656 25.570312 17.886719 27.296875 C 17.261719 27.539062 16.65625 27.828125 16.007812 28.003906 C 15.839844 28.054688 15.65625 28.089844 15.503906 28.003906 C 15.378906 27.933594 15.308594 27.804688 15.253906 27.671875 C 14.550781 26.109375 14.648438 24.210938 15.5 22.726562 L 15.75 22.628906 C 20.746094 20.761719 24.5 19.210938 29.964844 17.03125 C 28.9375 19.972656 29.957031 20.441406 31.207031 21.765625 Z M 31.207031 21.765625 " fill-opacity="1" fill-rule="nonzero"/></g><g clip-path="url(#ee97e95617)"><path fill="#4a59a7" d="M 28.902344 21.042969 C 25.574219 22.484375 22.214844 23.847656 18.847656 25.164062 C 18.816406 24.875 18.792969 24.585938 18.769531 24.3125 C 20.003906 23.828125 21.238281 23.339844 22.472656 22.851562 C 23.488281 22.449219 24.488281 22.027344 25.496094 21.609375 C 26.480469 21.203125 27.546875 20.875 28.472656 20.351562 C 28.609375 20.273438 28.519531 20.058594 28.363281 20.097656 C 27.324219 20.375 26.320312 20.898438 25.328125 21.304688 C 24.332031 21.714844 23.332031 22.117188 22.335938 22.535156 C 21.136719 23.042969 19.941406 23.554688 18.742188 24.066406 C 18.71875 23.769531 18.703125 23.496094 18.695312 23.257812 C 19.996094 22.742188 21.285156 22.199219 22.574219 21.667969 C 23.535156 21.273438 24.488281 20.863281 25.441406 20.453125 C 26.445312 20.015625 27.476562 19.628906 28.460938 19.144531 C 28.53125 19.109375 28.484375 18.988281 28.40625 19.011719 C 27.386719 19.328125 26.382812 19.734375 25.394531 20.136719 C 24.253906 20.601562 23.242188 21.03125 22.226562 21.453125 C 20.253906 22.277344 18.367188 22.953125 16.453125 23.894531 C 16.351562 23.941406 16.421875 24.121094 16.53125 24.078125 C 16.691406 24.019531 16.855469 23.960938 17.015625 23.902344 C 17.039062 24.191406 17.066406 24.484375 17.09375 24.777344 C 16.820312 24.898438 16.542969 25.015625 16.265625 25.136719 C 16.1875 25.164062 16.242188 25.296875 16.320312 25.265625 C 16.585938 25.164062 16.847656 25.058594 17.113281 24.957031 C 17.144531 25.238281 17.171875 25.515625 17.207031 25.804688 C 17.003906 25.882812 16.800781 25.964844 16.597656 26.042969 C 16.464844 26.089844 16.519531 26.300781 16.65625 26.25 C 16.855469 26.179688 17.046875 26.113281 17.246094 26.042969 C 17.25 26.089844 17.257812 26.136719 17.261719 26.191406 C 17.285156 26.132812 17.316406 26.074219 17.339844 26.007812 C 17.800781 25.839844 18.257812 25.671875 18.714844 25.503906 C 18.773438 25.570312 18.832031 25.636719 18.898438 25.707031 C 18.894531 25.617188 18.882812 25.53125 18.875 25.445312 C 22.3125 24.167969 25.707031 22.773438 29.058594 21.285156 C 29.222656 21.222656 29.070312 20.96875 28.902344 21.042969 Z M 17.476562 25.695312 C 17.664062 25.316406 17.855469 24.960938 17.953125 24.777344 C 18.097656 24.910156 18.265625 25.050781 18.503906 25.296875 C 18.164062 25.433594 17.820312 25.566406 17.476562 25.695312 Z M 31.675781 21.210938 C 31.441406 21.167969 31.210938 21.210938 30.988281 21.28125 C 30.816406 21.171875 30.648438 21.054688 30.492188 20.894531 C 30.167969 20.546875 29.90625 20.117188 29.785156 19.65625 C 29.582031 18.886719 29.726562 18.082031 30.03125 17.355469 C 30.078125 17.332031 30.125 17.3125 30.175781 17.292969 C 30.628906 17.097656 31.46875 16.847656 31.097656 16.203125 C 30.757812 15.613281 30.3125 15.058594 29.917969 14.496094 C 28.242188 12.132812 26.546875 9.792969 24.84375 7.453125 C 23.308594 5.355469 21.820312 3.207031 20.171875 1.195312 C 20.070312 1.070312 19.957031 0.925781 19.847656 0.796875 C 19.78125 0.710938 19.636719 0.6875 19.535156 0.710938 C 16.277344 1.660156 13.046875 2.707031 9.863281 3.867188 C 8.601562 4.328125 7.335938 4.800781 6.113281 5.347656 C 5.746094 5.507812 5.382812 5.683594 5.035156 5.890625 C 4.726562 6.070312 4.375 6.117188 4.070312 6.292969 C 3.707031 6.496094 3.492188 6.875 3.3125 7.234375 C 2.523438 8.828125 2.445312 10.585938 2.617188 12.324219 C 2.625 12.367188 2.640625 12.402344 2.671875 12.417969 C 2.675781 12.429688 2.675781 12.4375 2.683594 12.449219 C 3.613281 14.277344 4.871094 15.933594 6.078125 17.582031 C 8.097656 20.34375 10.175781 23.066406 12.226562 25.808594 C 12.722656 26.476562 13.21875 27.140625 13.742188 27.792969 C 13.921875 28.019531 14.085938 28.261719 14.269531 28.484375 C 14.367188 28.597656 14.460938 28.703125 14.574219 28.800781 C 14.671875 28.882812 14.785156 28.976562 14.910156 28.976562 C 15.074219 28.984375 15.230469 28.914062 15.378906 28.863281 C 16.199219 28.589844 17.015625 28.273438 17.828125 27.96875 C 18.246094 27.808594 18.664062 27.648438 19.085938 27.488281 C 19.917969 27.164062 20.753906 26.835938 21.582031 26.503906 C 22.40625 26.167969 23.234375 25.828125 24.0625 25.488281 C 24.890625 25.140625 25.710938 24.796875 26.535156 24.445312 C 27.351562 24.089844 28.164062 23.738281 28.980469 23.382812 C 29.441406 23.179688 29.90625 22.976562 30.359375 22.761719 C 30.613281 22.640625 30.859375 22.527344 31.105469 22.402344 C 31.355469 22.269531 31.710938 22.144531 31.917969 21.949219 C 32.203125 21.667969 32.027344 21.273438 31.675781 21.210938 Z M 30.320312 21.574219 C 27.996094 22.605469 25.648438 23.589844 23.3125 24.59375 C 20.878906 25.644531 18.445312 26.6875 16.003906 27.730469 C 15.894531 27.664062 15.894531 27.664062 15.894531 27.664062 C 15.582031 27.433594 15.441406 27.105469 15.3125 26.804688 C 15.109375 26.3125 15 25.761719 15 25.226562 C 15 24.617188 15.195312 24.042969 15.421875 23.484375 C 15.601562 23.046875 16.09375 22.941406 16.5 22.777344 C 18.097656 22.140625 19.699219 21.511719 21.292969 20.882812 C 24.09375 19.777344 26.910156 18.703125 29.671875 17.507812 C 29.390625 18.230469 29.328125 19.019531 29.507812 19.796875 C 29.621094 20.289062 29.828125 20.761719 30.136719 21.160156 C 30.222656 21.273438 30.332031 21.394531 30.445312 21.511719 C 30.402344 21.53125 30.359375 21.550781 30.320312 21.574219 Z M 30.320312 21.574219 " fill-opacity="1" fill-rule="nonzero"/></g><g clip-path="url(#323ce53aff)"><path fill="#2f3c87" d="M 28.96875 15.449219 C 29.027344 15.480469 29.089844 15.503906 29.148438 15.527344 C 29.335938 15.601562 29.417969 15.300781 29.234375 15.230469 C 29.144531 15.195312 29.054688 15.152344 28.96875 15.105469 C 28.921875 14.832031 28.832031 14.550781 28.691406 14.3125 C 28.578125 14.121094 28.410156 13.871094 28.175781 13.816406 C 27.882812 13.75 27.792969 14.0625 27.867188 14.292969 C 27.949219 14.5625 28.140625 14.792969 28.332031 14.996094 C 28.460938 15.128906 28.601562 15.25 28.765625 15.335938 C 28.757812 15.378906 28.746094 15.414062 28.730469 15.449219 C 28.707031 15.492188 28.667969 15.515625 28.628906 15.527344 C 28.464844 15.285156 28.273438 15.058594 28.050781 14.867188 C 27.839844 14.6875 27.613281 14.539062 27.355469 14.429688 C 27.144531 14.347656 26.816406 14.269531 26.625 14.441406 C 26.394531 14.644531 26.589844 14.945312 26.738281 15.128906 C 26.894531 15.3125 27.097656 15.449219 27.320312 15.546875 C 27.542969 15.640625 27.777344 15.707031 28.015625 15.75 C 28.148438 15.773438 28.296875 15.804688 28.441406 15.804688 C 28.449219 15.820312 28.460938 15.839844 28.464844 15.851562 C 28.511719 15.953125 28.523438 16.03125 28.433594 16.101562 C 28.398438 16.125 28.371094 16.148438 28.328125 16.171875 C 28.25 16.105469 28.160156 16.042969 28.070312 15.980469 C 27.871094 15.855469 27.644531 15.71875 27.410156 15.691406 C 27.21875 15.664062 27.027344 15.75 26.988281 15.953125 C 26.941406 16.207031 27.140625 16.421875 27.363281 16.519531 C 27.6875 16.664062 28.074219 16.632812 28.394531 16.476562 C 28.449219 16.53125 28.5 16.585938 28.554688 16.636719 C 28.617188 16.699219 28.722656 16.621094 28.667969 16.550781 C 28.628906 16.496094 28.585938 16.441406 28.542969 16.386719 C 28.574219 16.371094 28.601562 16.347656 28.628906 16.328125 C 28.832031 16.160156 28.824219 15.953125 28.742188 15.75 C 28.867188 15.691406 28.9375 15.578125 28.96875 15.449219 Z M 28.285156 14.507812 C 28.226562 14.4375 28.175781 14.359375 28.136719 14.277344 C 28.105469 14.214844 28.046875 14.097656 28.070312 14.023438 C 28.128906 13.871094 28.398438 14.226562 28.433594 14.28125 C 28.550781 14.449219 28.632812 14.632812 28.679688 14.832031 C 28.6875 14.859375 28.699219 14.890625 28.707031 14.925781 C 28.550781 14.804688 28.40625 14.664062 28.285156 14.507812 Z M 27.722656 15.414062 C 27.386719 15.324219 27.050781 15.171875 26.839844 14.882812 C 26.796875 14.824219 26.679688 14.675781 26.761719 14.617188 C 26.835938 14.5625 26.984375 14.605469 27.0625 14.621094 C 27.261719 14.675781 27.429688 14.792969 27.597656 14.914062 C 27.835938 15.082031 28.070312 15.285156 28.25 15.523438 C 28.070312 15.492188 27.894531 15.460938 27.722656 15.414062 Z M 27.757812 16.363281 C 27.566406 16.375 27.398438 16.320312 27.277344 16.167969 C 27.230469 16.105469 27.152344 15.980469 27.230469 15.917969 C 27.277344 15.875 27.363281 15.886719 27.414062 15.898438 C 27.621094 15.933594 27.828125 16.054688 27.996094 16.167969 C 28.046875 16.195312 28.09375 16.234375 28.136719 16.269531 C 28.015625 16.316406 27.890625 16.359375 27.757812 16.363281 Z M 16.976562 21.066406 C 17.003906 21.058594 17.027344 21.054688 17.058594 21.046875 C 17.058594 21.109375 17.058594 21.160156 17.066406 21.222656 C 17.078125 21.375 17.3125 21.382812 17.3125 21.222656 C 17.3125 21.125 17.324219 21.035156 17.328125 20.941406 C 17.484375 20.855469 17.628906 20.738281 17.753906 20.613281 C 17.953125 20.410156 18.125 20.1875 18.222656 19.925781 C 18.300781 19.71875 18.3125 19.378906 18.011719 19.371094 C 17.765625 19.367188 17.53125 19.605469 17.40625 19.789062 C 17.21875 20.050781 17.128906 20.390625 17.082031 20.703125 C 17.082031 20.707031 17.082031 20.707031 17.082031 20.714844 C 16.925781 20.769531 16.757812 20.792969 16.640625 20.65625 C 16.613281 20.628906 16.597656 20.605469 16.585938 20.578125 C 16.980469 20.128906 17.183594 19.5625 17.195312 18.960938 C 17.203125 18.703125 17.144531 18.320312 16.824219 18.28125 C 16.511719 18.238281 16.296875 18.566406 16.195312 18.816406 C 15.980469 19.351562 16.003906 20.039062 16.226562 20.578125 C 16.171875 20.625 16.117188 20.671875 16.0625 20.703125 C 15.867188 20.816406 15.660156 20.671875 15.515625 20.527344 C 15.671875 20.242188 15.726562 19.902344 15.734375 19.574219 C 15.734375 19.316406 15.710938 18.996094 15.503906 18.808594 C 15.320312 18.644531 15 18.601562 14.839844 18.816406 C 14.691406 19.019531 14.714844 19.335938 14.75 19.566406 C 14.796875 19.855469 14.910156 20.128906 15.074219 20.367188 C 15.128906 20.445312 15.1875 20.523438 15.253906 20.601562 C 15.195312 20.695312 15.121094 20.792969 15.039062 20.875 C 14.988281 20.921875 15.054688 21.019531 15.117188 20.976562 C 15.21875 20.90625 15.308594 20.820312 15.386719 20.730469 C 15.492188 20.828125 15.605469 20.910156 15.738281 20.957031 C 15.980469 21.046875 16.183594 20.953125 16.355469 20.804688 C 16.496094 21.007812 16.71875 21.101562 16.976562 21.066406 Z M 17.425781 20.441406 C 17.492188 20.210938 17.574219 19.980469 17.742188 19.808594 C 17.789062 19.757812 18.070312 19.519531 18.085938 19.6875 C 18.089844 19.78125 18.011719 19.914062 17.964844 19.992188 C 17.910156 20.085938 17.839844 20.183594 17.765625 20.265625 C 17.660156 20.386719 17.53125 20.488281 17.386719 20.570312 C 17.402344 20.527344 17.414062 20.480469 17.425781 20.441406 Z M 16.421875 19.269531 C 16.457031 19.089844 16.507812 18.894531 16.621094 18.75 C 16.65625 18.710938 16.742188 18.609375 16.789062 18.636719 C 16.855469 18.671875 16.859375 18.824219 16.859375 18.882812 C 16.890625 19.351562 16.777344 19.8125 16.519531 20.207031 C 16.5 20.238281 16.484375 20.265625 16.457031 20.296875 C 16.441406 20.210938 16.421875 20.128906 16.410156 20.058594 C 16.367188 19.796875 16.375 19.527344 16.421875 19.269531 Z M 15.355469 20.367188 C 15.097656 20.058594 14.9375 19.664062 14.929688 19.257812 C 14.929688 19.15625 14.921875 19.03125 14.984375 18.941406 C 15.0625 18.824219 15.21875 18.851562 15.3125 18.929688 C 15.488281 19.074219 15.46875 19.371094 15.476562 19.574219 C 15.488281 19.855469 15.453125 20.125 15.355469 20.367188 Z M 20.097656 1.851562 C 20.074219 1.808594 20.136719 1.773438 20.164062 1.816406 C 20.960938 3.035156 21.851562 4.203125 22.707031 5.382812 C 23.554688 6.542969 24.386719 7.707031 25.246094 8.855469 C 26.121094 10.039062 27.007812 11.207031 27.894531 12.382812 C 28.800781 13.578125 29.742188 14.742188 30.628906 15.941406 C 30.695312 16.03125 30.460938 16.105469 30.394531 16.023438 C 29.429688 14.820312 28.597656 13.59375 27.644531 12.378906 C 26.78125 11.269531 25.742188 9.847656 24.886719 8.730469 C 24.007812 7.597656 23.351562 6.703125 22.535156 5.523438 C 21.675781 4.296875 20.867188 3.117188 20.097656 1.851562 Z M 29.777344 16.890625 C 28.742188 17.335938 27.8125 17.675781 26.769531 18.09375 C 26.152344 18.339844 25.53125 18.589844 24.914062 18.839844 C 24.238281 19.113281 23.554688 19.390625 22.875 19.664062 C 22.199219 19.9375 21.515625 20.210938 20.832031 20.480469 C 20.207031 20.726562 19.589844 20.96875 18.964844 21.214844 C 18.460938 21.40625 17.957031 21.597656 17.453125 21.777344 C 17.128906 21.890625 16.808594 22.007812 16.476562 22.085938 C 16.453125 22.09375 16.140625 22.171875 16.21875 22.0625 C 16.160156 22.085938 16.128906 21.984375 16.1875 21.960938 C 16.445312 21.859375 16.710938 21.753906 16.96875 21.652344 C 17.8125 21.316406 18.660156 20.984375 19.511719 20.65625 C 20.421875 20.296875 21.335938 19.945312 22.242188 19.585938 C 23.140625 19.234375 24.046875 18.882812 24.945312 18.523438 C 25.765625 18.203125 26.671875 17.878906 27.488281 17.550781 C 27.992188 17.347656 28.433594 17.175781 28.933594 16.964844 C 29.441406 16.75 29.953125 16.523438 30.457031 16.292969 C 30.613281 16.222656 30.726562 16.488281 30.570312 16.566406 C 30.367188 16.675781 30 16.792969 29.777344 16.890625 Z M 31.234375 21.917969 C 30.667969 22.253906 30.035156 22.484375 29.425781 22.75 C 28.8125 23.011719 28.203125 23.269531 27.589844 23.53125 C 26.402344 24.03125 25.207031 24.53125 24.015625 25.023438 C 21.554688 26.03125 19.085938 27.007812 16.597656 27.941406 C 16.519531 27.96875 16.488281 27.851562 16.5625 27.820312 C 19.015625 26.800781 21.472656 25.792969 23.917969 24.757812 C 25.136719 24.246094 26.359375 23.738281 27.578125 23.21875 C 28.753906 22.71875 29.929688 22.097656 31.152344 21.726562 C 31.273438 21.691406 31.339844 21.859375 31.234375 21.917969 Z M 4.160156 7.199219 C 3.101562 8.691406 3.039062 10.457031 3.113281 12.214844 C 3.121094 12.3125 2.976562 12.3125 2.964844 12.214844 C 2.804688 10.480469 2.886719 8.539062 3.996094 7.101562 C 4.070312 7.007812 4.226562 7.097656 4.160156 7.199219 Z M 19.109375 2.25 C 19.0625 2.222656 19.015625 2.191406 18.964844 2.175781 C 18.886719 2.136719 18.804688 2.121094 18.71875 2.113281 C 18.738281 2.054688 18.75 1.996094 18.769531 1.933594 C 18.785156 1.851562 18.660156 1.816406 18.640625 1.898438 C 18.625 1.972656 18.601562 2.042969 18.582031 2.109375 C 18.457031 2.121094 18.332031 2.15625 18.222656 2.222656 C 17.855469 2.449219 17.472656 2.71875 17.261719 3.105469 C 17.183594 3.25 17.039062 3.511719 17.179688 3.652344 C 17.371094 3.855469 17.640625 3.703125 17.8125 3.550781 C 18.203125 3.21875 18.503906 2.820312 18.664062 2.328125 C 18.671875 2.3125 18.679688 2.300781 18.679688 2.28125 C 18.773438 2.292969 18.863281 2.328125 18.949219 2.40625 C 18.917969 2.441406 18.894531 2.472656 18.863281 2.507812 C 18.78125 2.617188 18.691406 2.722656 18.617188 2.835938 C 18.472656 3.070312 18.382812 3.335938 18.347656 3.605469 C 18.3125 3.863281 18.332031 4.148438 18.546875 4.328125 C 18.730469 4.484375 19.007812 4.417969 19.15625 4.246094 C 19.332031 4.046875 19.390625 3.792969 19.410156 3.535156 C 19.425781 3.253906 19.410156 2.960938 19.355469 2.6875 C 19.335938 2.605469 19.324219 2.503906 19.285156 2.425781 C 19.300781 2.414062 19.324219 2.402344 19.351562 2.402344 C 19.445312 2.375 19.523438 2.414062 19.601562 2.476562 C 19.511719 2.96875 19.464844 3.488281 19.632812 3.96875 C 19.679688 4.101562 19.777344 4.320312 19.914062 4.410156 C 20.082031 4.519531 20.296875 4.4375 20.40625 4.28125 C 20.472656 4.183594 20.5 4.066406 20.511719 3.945312 C 20.53125 3.773438 20.507812 3.59375 20.460938 3.425781 C 20.433594 3.335938 20.398438 3.253906 20.355469 3.171875 C 20.277344 3.007812 20.183594 2.855469 20.074219 2.710938 C 20.039062 2.65625 19.925781 2.5625 19.914062 2.503906 C 19.902344 2.441406 19.992188 2.3125 20.015625 2.25 C 20.050781 2.175781 20.039062 2.085938 19.960938 2.035156 C 19.894531 1.996094 19.78125 2.011719 19.746094 2.089844 C 19.722656 2.148438 19.699219 2.210938 19.671875 2.269531 C 19.523438 2.175781 19.355469 2.132812 19.167969 2.226562 C 19.144531 2.226562 19.128906 2.238281 19.109375 2.25 Z M 18.144531 2.992188 C 18.019531 3.152344 17.875 3.308594 17.710938 3.4375 C 17.632812 3.503906 17.527344 3.570312 17.429688 3.582031 C 17.328125 3.59375 17.285156 3.523438 17.304688 3.4375 C 17.371094 3.117188 17.597656 2.878906 17.84375 2.675781 C 18.023438 2.527344 18.269531 2.335938 18.515625 2.289062 C 18.425781 2.539062 18.3125 2.777344 18.144531 2.992188 Z M 19.089844 3.535156 C 19.074219 3.703125 19.042969 3.898438 18.949219 4.042969 C 18.910156 4.09375 18.882812 4.125 18.820312 4.144531 C 18.714844 4.167969 18.648438 4.121094 18.605469 4.019531 C 18.527344 3.832031 18.582031 3.605469 18.636719 3.421875 C 18.691406 3.21875 18.773438 3.046875 18.894531 2.878906 C 18.953125 2.800781 19.007812 2.71875 19.066406 2.640625 C 19.074219 2.722656 19.074219 2.8125 19.078125 2.890625 C 19.105469 3.105469 19.117188 3.320312 19.089844 3.535156 Z M 19.769531 3.019531 C 19.78125 2.945312 19.800781 2.867188 19.824219 2.789062 C 19.878906 2.882812 20.226562 3.445312 20.242188 3.714844 C 20.25 3.839844 20.265625 4.070312 20.140625 4.121094 C 20.074219 4.144531 20.015625 4.125 19.96875 4.082031 C 19.941406 4.046875 19.917969 4.011719 19.902344 3.96875 C 19.871094 3.910156 19.847656 3.851562 19.828125 3.792969 C 19.792969 3.628906 19.746094 3.300781 19.769531 3.019531 Z M 6.179688 7.03125 C 6.203125 7.050781 6.226562 7.066406 6.25 7.078125 C 6.058594 7.542969 6.46875 8.136719 6.820312 8.410156 C 7.132812 8.648438 8.230469 9.058594 8.097656 8.261719 C 8.0625 8.027344 7.863281 7.832031 7.660156 7.65625 C 7.90625 7.730469 8.164062 7.777344 8.421875 7.769531 C 8.664062 7.769531 9.0625 7.757812 9.238281 7.554688 C 9.65625 7.066406 8.5625 6.78125 8.289062 6.714844 C 7.890625 6.621094 7.191406 6.5 6.707031 6.667969 C 6.707031 6.648438 6.707031 6.632812 6.714844 6.613281 C 6.730469 6.511719 6.796875 6.429688 6.882812 6.355469 C 7.398438 6.53125 8.007812 6.589844 8.496094 6.386719 C 8.871094 6.226562 8.699219 5.75 8.332031 5.695312 C 7.902344 5.636719 7.199219 5.808594 6.804688 6.148438 C 6.730469 6.125 6.664062 6.101562 6.59375 6.070312 C 6.503906 6.027344 6.417969 6.160156 6.507812 6.207031 C 6.558594 6.230469 6.613281 6.253906 6.664062 6.28125 C 6.625 6.328125 6.59375 6.378906 6.5625 6.433594 C 6.503906 6.558594 6.480469 6.671875 6.492188 6.773438 C 6.472656 6.785156 6.460938 6.796875 6.449219 6.804688 C 6.402344 6.78125 6.347656 6.757812 6.292969 6.734375 C 6.121094 6.671875 6.046875 6.9375 6.179688 7.03125 Z M 7.445312 6.089844 C 7.667969 6.015625 8.046875 5.886719 8.273438 5.957031 C 8.691406 6.089844 8.320312 6.207031 8.160156 6.238281 C 7.8125 6.308594 7.445312 6.304688 7.097656 6.230469 C 7.21875 6.167969 7.34375 6.125 7.445312 6.089844 Z M 7.445312 6.871094 C 7.660156 6.871094 9.195312 6.988281 9.027344 7.417969 C 8.980469 7.542969 8.421875 7.507812 8.296875 7.496094 C 8.03125 7.480469 7.769531 7.425781 7.523438 7.328125 C 7.332031 7.257812 6.964844 7.140625 6.796875 6.925781 C 7 6.863281 7.257812 6.871094 7.445312 6.871094 Z M 6.492188 7.246094 C 6.808594 7.453125 7.128906 7.652344 7.421875 7.910156 C 7.492188 7.972656 7.613281 8.046875 7.660156 8.128906 C 7.761719 8.3125 7.632812 8.425781 7.464844 8.410156 C 7.230469 8.386719 6.960938 8.171875 6.804688 8.003906 C 6.640625 7.832031 6.4375 7.507812 6.492188 7.246094 Z M 14.851562 23.21875 C 14.277344 24.785156 14.203125 26.519531 14.808594 28.082031 C 14.828125 28.132812 14.742188 28.167969 14.71875 28.121094 C 14.019531 26.53125 13.917969 24.753906 14.59375 23.148438 C 14.660156 23 14.910156 23.058594 14.851562 23.21875 Z M 15.582031 22.140625 C 15.65625 22.234375 15.492188 22.324219 15.425781 22.230469 C 14.492188 20.957031 13.507812 19.71875 12.574219 18.445312 C 11.648438 17.191406 10.738281 15.941406 9.832031 14.679688 C 8.007812 12.144531 6.238281 9.5625 4.535156 6.941406 C 4.421875 6.769531 4.699219 6.613281 4.8125 6.78125 C 6.640625 9.324219 8.445312 11.875 10.226562 14.449219 C 11.109375 15.71875 11.996094 16.992188 12.882812 18.261719 C 13.789062 19.554688 14.660156 20.867188 15.582031 22.140625 Z M 8.855469 4.6875 C 10.546875 4.046875 12.230469 3.398438 13.945312 2.824219 C 14.816406 2.539062 15.683594 2.25 16.554688 1.976562 C 17.386719 1.714844 18.253906 1.363281 19.117188 1.238281 C 19.199219 1.226562 19.273438 1.34375 19.183594 1.386719 C 18.382812 1.769531 17.472656 1.964844 16.625 2.234375 C 15.78125 2.503906 14.9375 2.78125 14.089844 3.0625 C 12.355469 3.640625 10.613281 4.191406 8.882812 4.800781 C 8.8125 4.828125 8.78125 4.714844 8.855469 4.6875 Z M 8.855469 4.6875 " fill-opacity="1" fill-rule="nonzero"/></g><g fill="#000000" fill-opacity="1"><g transform="translate(83.663405, 13.98541)"><g><path d="M 0 0 L 0 -0.015625 C 0.0078125 -0.015625 0.015625 -0.015625 0.015625 -0.015625 C 0.015625 -0.015625 0.0195312 -0.015625 0.03125 -0.015625 L 0.03125 0 L 0.03125 -0.015625 C 0.03125 -0.015625 0.0234375 -0.015625 0.015625 -0.015625 L 0.015625 0 L 0.015625 -0.015625 C 0.015625 -0.015625 0.0078125 -0.015625 0 -0.015625 Z M 0 0 "/></g></g></g><g fill="#000000" fill-opacity="1"><g transform="translate(32.026025, 18.647778)"><g><path d="M 1.765625 0 L 1.765625 -11.671875 L 6.1875 -11.671875 C 6.90625 -11.671875 7.515625 -11.554688 8.015625 -11.328125 C 8.515625 -11.097656 8.890625 -10.769531 9.140625 -10.34375 C 9.398438 -9.925781 9.53125 -9.425781 9.53125 -8.84375 C 9.53125 -8.332031 9.390625 -7.875 9.109375 -7.46875 C 8.835938 -7.0625 8.445312 -6.742188 7.9375 -6.515625 L 7.9375 -6.34375 C 8.71875 -6.15625 9.304688 -5.804688 9.703125 -5.296875 C 10.109375 -4.785156 10.3125 -4.148438 10.3125 -3.390625 C 10.3125 -2.296875 9.992188 -1.457031 9.359375 -0.875 C 8.722656 -0.289062 7.78125 0 6.53125 0 Z M 6.125 -6.78125 C 6.769531 -6.78125 7.269531 -6.945312 7.625 -7.28125 C 7.976562 -7.613281 8.15625 -8.078125 8.15625 -8.671875 C 8.15625 -9.296875 7.984375 -9.765625 7.640625 -10.078125 C 7.304688 -10.390625 6.800781 -10.546875 6.125 -10.546875 L 3.140625 -10.546875 L 3.140625 -6.78125 Z M 6.421875 -1.140625 C 8.085938 -1.140625 8.921875 -1.890625 8.921875 -3.390625 C 8.921875 -4.890625 8.085938 -5.640625 6.421875 -5.640625 L 3.140625 -5.640625 L 3.140625 -1.140625 Z M 6.421875 -1.140625 "/></g></g><g transform="translate(43.264146, 18.647778)"><g><path d="M 5.0625 0.171875 C 4.226562 0.171875 3.503906 -0.00390625 2.890625 -0.359375 C 2.273438 -0.710938 1.800781 -1.226562 1.46875 -1.90625 C 1.132812 -2.59375 0.96875 -3.425781 0.96875 -4.40625 C 0.96875 -5.375 1.132812 -6.203125 1.46875 -6.890625 C 1.800781 -7.578125 2.273438 -8.097656 2.890625 -8.453125 C 3.503906 -8.804688 4.226562 -8.984375 5.0625 -8.984375 C 5.882812 -8.984375 6.601562 -8.804688 7.21875 -8.453125 C 7.832031 -8.097656 8.304688 -7.578125 8.640625 -6.890625 C 8.972656 -6.203125 9.140625 -5.375 9.140625 -4.40625 C 9.140625 -3.425781 8.972656 -2.59375 8.640625 -1.90625 C 8.304688 -1.226562 7.832031 -0.710938 7.21875 -0.359375 C 6.601562 -0.00390625 5.882812 0.171875 5.0625 0.171875 Z M 5.0625 -1 C 5.9375 -1 6.601562 -1.273438 7.0625 -1.828125 C 7.53125 -2.378906 7.765625 -3.238281 7.765625 -4.40625 C 7.765625 -5.570312 7.53125 -6.429688 7.0625 -6.984375 C 6.601562 -7.535156 5.9375 -7.8125 5.0625 -7.8125 C 4.175781 -7.8125 3.5 -7.53125 3.03125 -6.96875 C 2.5625 -6.414062 2.328125 -5.5625 2.328125 -4.40625 C 2.328125 -3.238281 2.5625 -2.378906 3.03125 -1.828125 C 3.5 -1.273438 4.175781 -1 5.0625 -1 Z M 5.0625 -1 "/></g></g><g transform="translate(53.376057, 18.647778)"><g><path d="M 5.0625 0.171875 C 4.226562 0.171875 3.503906 -0.00390625 2.890625 -0.359375 C 2.273438 -0.710938 1.800781 -1.226562 1.46875 -1.90625 C 1.132812 -2.59375 0.96875 -3.425781 0.96875 -4.40625 C 0.96875 -5.375 1.132812 -6.203125 1.46875 -6.890625 C 1.800781 -7.578125 2.273438 -8.097656 2.890625 -8.453125 C 3.503906 -8.804688 4.226562 -8.984375 5.0625 -8.984375 C 5.882812 -8.984375 6.601562 -8.804688 7.21875 -8.453125 C 7.832031 -8.097656 8.304688 -7.578125 8.640625 -6.890625 C 8.972656 -6.203125 9.140625 -5.375 9.140625 -4.40625 C 9.140625 -3.425781 8.972656 -2.59375 8.640625 -1.90625 C 8.304688 -1.226562 7.832031 -0.710938 7.21875 -0.359375 C 6.601562 -0.00390625 5.882812 0.171875 5.0625 0.171875 Z M 5.0625 -1 C 5.9375 -1 6.601562 -1.273438 7.0625 -1.828125 C 7.53125 -2.378906 7.765625 -3.238281 7.765625 -4.40625 C 7.765625 -5.570312 7.53125 -6.429688 7.0625 -6.984375 C 6.601562 -7.535156 5.9375 -7.8125 5.0625 -7.8125 C 4.175781 -7.8125 3.5 -7.53125 3.03125 -6.96875 C 2.5625 -6.414062 2.328125 -5.5625 2.328125 -4.40625 C 2.328125 -3.238281 2.5625 -2.378906 3.03125 -1.828125 C 3.5 -1.273438 4.175781 -1 5.0625 -1 Z M 5.0625 -1 "/></g></g><g transform="translate(63.487969, 18.647778)"><g><path d="M 1.53125 0 L 1.53125 -12.34375 L 2.828125 -12.34375 L 2.828125 -5.140625 L 3.046875 -5.140625 L 6.328125 -8.8125 L 7.6875 -8.8125 L 7.6875 -8.625 L 4.203125 -4.671875 L 8.03125 -0.203125 L 8.03125 0 L 6.578125 0 L 3.046875 -4.078125 L 2.828125 -4.078125 L 2.828125 0 Z M 1.53125 0 "/></g></g><g transform="translate(71.682931, 18.647778)"><g/></g><g transform="translate(75.692552, 18.647778)"><g><path d="M 6.453125 0.171875 C 5.429688 0.171875 4.519531 -0.0625 3.71875 -0.53125 C 2.925781 -1 2.300781 -1.6875 1.84375 -2.59375 C 1.394531 -3.5 1.171875 -4.582031 1.171875 -5.84375 C 1.171875 -7.101562 1.394531 -8.179688 1.84375 -9.078125 C 2.300781 -9.984375 2.925781 -10.671875 3.71875 -11.140625 C 4.519531 -11.609375 5.429688 -11.84375 6.453125 -11.84375 C 7.546875 -11.84375 8.453125 -11.632812 9.171875 -11.21875 C 9.898438 -10.8125 10.425781 -10.191406 10.75 -9.359375 L 9.859375 -8.78125 L 9.671875 -8.78125 C 9.347656 -9.445312 8.929688 -9.914062 8.421875 -10.1875 C 7.910156 -10.46875 7.253906 -10.609375 6.453125 -10.609375 C 5.722656 -10.609375 5.070312 -10.445312 4.5 -10.125 C 3.925781 -9.800781 3.472656 -9.28125 3.140625 -8.5625 C 2.804688 -7.851562 2.640625 -6.945312 2.640625 -5.84375 C 2.640625 -4.726562 2.804688 -3.816406 3.140625 -3.109375 C 3.472656 -2.398438 3.925781 -1.882812 4.5 -1.5625 C 5.070312 -1.238281 5.722656 -1.078125 6.453125 -1.078125 C 7.296875 -1.078125 7.988281 -1.265625 8.53125 -1.640625 C 9.070312 -2.023438 9.472656 -2.640625 9.734375 -3.484375 L 9.921875 -3.484375 L 10.84375 -3.03125 C 10.570312 -2 10.0625 -1.207031 9.3125 -0.65625 C 8.5625 -0.101562 7.609375 0.171875 6.453125 0.171875 Z M 6.453125 0.171875 "/></g></g><g transform="translate(87.146329, 18.647778)"><g><path d="M 5.0625 0.171875 C 4.226562 0.171875 3.503906 -0.00390625 2.890625 -0.359375 C 2.273438 -0.710938 1.800781 -1.226562 1.46875 -1.90625 C 1.132812 -2.59375 0.96875 -3.425781 0.96875 -4.40625 C 0.96875 -5.375 1.132812 -6.203125 1.46875 -6.890625 C 1.800781 -7.578125 2.273438 -8.097656 2.890625 -8.453125 C 3.503906 -8.804688 4.226562 -8.984375 5.0625 -8.984375 C 5.882812 -8.984375 6.601562 -8.804688 7.21875 -8.453125 C 7.832031 -8.097656 8.304688 -7.578125 8.640625 -6.890625 C 8.972656 -6.203125 9.140625 -5.375 9.140625 -4.40625 C 9.140625 -3.425781 8.972656 -2.59375 8.640625 -1.90625 C 8.304688 -1.226562 7.832031 -0.710938 7.21875 -0.359375 C 6.601562 -0.00390625 5.882812 0.171875 5.0625 0.171875 Z M 5.0625 -1 C 5.9375 -1 6.601562 -1.273438 7.0625 -1.828125 C 7.53125 -2.378906 7.765625 -3.238281 7.765625 -4.40625 C 7.765625 -5.570312 7.53125 -6.429688 7.0625 -6.984375 C 6.601562 -7.535156 5.9375 -7.8125 5.0625 -7.8125 C 4.175781 -7.8125 3.5 -7.53125 3.03125 -6.96875 C 2.5625 -6.414062 2.328125 -5.5625 2.328125 -4.40625 C 2.328125 -3.238281 2.5625 -2.378906 3.03125 -1.828125 C 3.5 -1.273438 4.175781 -1 5.0625 -1 Z M 5.0625 -1 "/></g></g><g transform="translate(97.25824, 18.647778)"><g><path d="M 3.5 0.171875 C 2.882812 0.171875 2.394531 -0.00390625 2.03125 -0.359375 C 1.675781 -0.710938 1.5 -1.242188 1.5 -1.953125 L 1.5 -12.34375 L 2.796875 -12.34375 L 2.796875 -2.03125 C 2.796875 -1.664062 2.867188 -1.398438 3.015625 -1.234375 C 3.160156 -1.078125 3.378906 -1 3.671875 -1 C 3.859375 -1 4.039062 -1.03125 4.21875 -1.09375 L 4.34375 -1.046875 L 4.484375 -0.03125 C 4.390625 0.03125 4.253906 0.078125 4.078125 0.109375 C 3.898438 0.148438 3.707031 0.171875 3.5 0.171875 Z M 3.5 0.171875 "/></g></g><g transform="translate(102.050616, 18.647778)"><g><path d="M 3.5 0.171875 C 2.882812 0.171875 2.394531 -0.00390625 2.03125 -0.359375 C 1.675781 -0.710938 1.5 -1.242188 1.5 -1.953125 L 1.5 -12.34375 L 2.796875 -12.34375 L 2.796875 -2.03125 C 2.796875 -1.664062 2.867188 -1.398438 3.015625 -1.234375 C 3.160156 -1.078125 3.378906 -1 3.671875 -1 C 3.859375 -1 4.039062 -1.03125 4.21875 -1.09375 L 4.34375 -1.046875 L 4.484375 -0.03125 C 4.390625 0.03125 4.253906 0.078125 4.078125 0.109375 C 3.898438 0.148438 3.707031 0.171875 3.5 0.171875 Z M 3.5 0.171875 "/></g></g><g transform="translate(106.842991, 18.647778)"><g><path d="M 8.390625 -4.109375 L 2.34375 -4.109375 C 2.375 -3.035156 2.628906 -2.25 3.109375 -1.75 C 3.585938 -1.25 4.242188 -1 5.078125 -1 C 5.703125 -1 6.207031 -1.109375 6.59375 -1.328125 C 6.976562 -1.554688 7.28125 -1.910156 7.5 -2.390625 L 7.65625 -2.390625 L 8.5 -1.890625 C 8.25 -1.242188 7.84375 -0.738281 7.28125 -0.375 C 6.71875 -0.0078125 5.984375 0.171875 5.078125 0.171875 C 4.222656 0.171875 3.488281 0.00390625 2.875 -0.328125 C 2.257812 -0.671875 1.785156 -1.179688 1.453125 -1.859375 C 1.128906 -2.546875 0.96875 -3.394531 0.96875 -4.40625 C 0.96875 -5.40625 1.140625 -6.25 1.484375 -6.9375 C 1.835938 -7.625 2.316406 -8.132812 2.921875 -8.46875 C 3.523438 -8.8125 4.21875 -8.984375 5 -8.984375 C 6.125 -8.984375 7.003906 -8.660156 7.640625 -8.015625 C 8.273438 -7.378906 8.59375 -6.4375 8.59375 -5.1875 C 8.59375 -4.695312 8.582031 -4.367188 8.5625 -4.203125 Z M 7.3125 -5.1875 C 7.289062 -6.125 7.082031 -6.804688 6.6875 -7.234375 C 6.289062 -7.660156 5.726562 -7.875 5 -7.875 C 4.21875 -7.875 3.609375 -7.660156 3.171875 -7.234375 C 2.734375 -6.804688 2.46875 -6.125 2.375 -5.1875 Z M 7.3125 -5.1875 "/></g></g><g transform="translate(116.236047, 18.647778)"><g><path d="M 5.0625 0.171875 C 4.28125 0.171875 3.578125 -0.00390625 2.953125 -0.359375 C 2.335938 -0.710938 1.851562 -1.234375 1.5 -1.921875 C 1.144531 -2.617188 0.96875 -3.445312 0.96875 -4.40625 C 0.96875 -5.363281 1.144531 -6.1875 1.5 -6.875 C 1.851562 -7.570312 2.335938 -8.097656 2.953125 -8.453125 C 3.578125 -8.804688 4.28125 -8.984375 5.0625 -8.984375 C 5.988281 -8.984375 6.726562 -8.804688 7.28125 -8.453125 C 7.832031 -8.097656 8.226562 -7.628906 8.46875 -7.046875 L 7.59375 -6.40625 L 7.421875 -6.40625 C 7.179688 -6.894531 6.875 -7.25 6.5 -7.46875 C 6.125 -7.695312 5.644531 -7.8125 5.0625 -7.8125 C 4.507812 -7.8125 4.03125 -7.679688 3.625 -7.421875 C 3.21875 -7.171875 2.898438 -6.789062 2.671875 -6.28125 C 2.441406 -5.769531 2.328125 -5.144531 2.328125 -4.40625 C 2.328125 -3.664062 2.441406 -3.039062 2.671875 -2.53125 C 2.898438 -2.019531 3.21875 -1.632812 3.625 -1.375 C 4.03125 -1.125 4.507812 -1 5.0625 -1 C 5.664062 -1 6.171875 -1.132812 6.578125 -1.40625 C 6.984375 -1.6875 7.300781 -2.125 7.53125 -2.71875 L 7.6875 -2.71875 L 8.546875 -2.21875 C 8.316406 -1.476562 7.90625 -0.894531 7.3125 -0.46875 C 6.726562 -0.0390625 5.976562 0.171875 5.0625 0.171875 Z M 5.0625 0.171875 "/></g></g><g transform="translate(125.317598, 18.647778)"><g><path d="M 5.953125 -1.390625 L 6.375 -0.46875 C 6.164062 -0.257812 5.890625 -0.101562 5.546875 0 C 5.210938 0.113281 4.847656 0.171875 4.453125 0.171875 C 2.773438 0.171875 1.9375 -0.679688 1.9375 -2.390625 L 1.9375 -7.75 L 0.40625 -7.75 L 0.40625 -8.8125 L 1.9375 -8.8125 L 1.9375 -10.6875 L 3.234375 -10.890625 L 3.234375 -8.8125 L 6.078125 -8.8125 L 6.078125 -7.75 L 3.234375 -7.75 L 3.234375 -2.515625 C 3.234375 -1.503906 3.671875 -1 4.546875 -1 C 5.023438 -1 5.441406 -1.128906 5.796875 -1.390625 Z M 5.953125 -1.390625 "/></g></g><g transform="translate(132.026923, 18.647778)"><g><path d="M 2.1875 -10.515625 C 1.90625 -10.515625 1.675781 -10.597656 1.5 -10.765625 C 1.332031 -10.941406 1.25 -11.164062 1.25 -11.4375 C 1.25 -11.695312 1.332031 -11.910156 1.5 -12.078125 C 1.675781 -12.253906 1.90625 -12.34375 2.1875 -12.34375 C 2.46875 -12.34375 2.691406 -12.253906 2.859375 -12.078125 C 3.035156 -11.910156 3.125 -11.695312 3.125 -11.4375 C 3.125 -11.164062 3.035156 -10.941406 2.859375 -10.765625 C 2.691406 -10.597656 2.46875 -10.515625 2.1875 -10.515625 Z M 1.53125 0 L 1.53125 -8.8125 L 2.828125 -8.8125 L 2.828125 0 Z M 1.53125 0 "/></g></g><g transform="translate(136.395972, 18.647778)"><g><path d="M 5.0625 0.171875 C 4.226562 0.171875 3.503906 -0.00390625 2.890625 -0.359375 C 2.273438 -0.710938 1.800781 -1.226562 1.46875 -1.90625 C 1.132812 -2.59375 0.96875 -3.425781 0.96875 -4.40625 C 0.96875 -5.375 1.132812 -6.203125 1.46875 -6.890625 C 1.800781 -7.578125 2.273438 -8.097656 2.890625 -8.453125 C 3.503906 -8.804688 4.226562 -8.984375 5.0625 -8.984375 C 5.882812 -8.984375 6.601562 -8.804688 7.21875 -8.453125 C 7.832031 -8.097656 8.304688 -7.578125 8.640625 -6.890625 C 8.972656 -6.203125 9.140625 -5.375 9.140625 -4.40625 C 9.140625 -3.425781 8.972656 -2.59375 8.640625 -1.90625 C 8.304688 -1.226562 7.832031 -0.710938 7.21875 -0.359375 C 6.601562 -0.00390625 5.882812 0.171875 5.0625 0.171875 Z M 5.0625 -1 C 5.9375 -1 6.601562 -1.273438 7.0625 -1.828125 C 7.53125 -2.378906 7.765625 -3.238281 7.765625 -4.40625 C 7.765625 -5.570312 7.53125 -6.429688 7.0625 -6.984375 C 6.601562 -7.535156 5.9375 -7.8125 5.0625 -7.8125 C 4.175781 -7.8125 3.5 -7.53125 3.03125 -6.96875 C 2.5625 -6.414062 2.328125 -5.5625 2.328125 -4.40625 C 2.328125 -3.238281 2.5625 -2.378906 3.03125 -1.828125 C 3.5 -1.273438 4.175781 -1 5.0625 -1 Z M 5.0625 -1 "/></g></g><g transform="translate(146.507884, 18.647778)"><g><path d="M 1.53125 0 L 1.53125 -8.8125 L 2.765625 -8.8125 L 2.765625 -7.421875 L 2.9375 -7.390625 C 3.226562 -7.898438 3.601562 -8.289062 4.0625 -8.5625 C 4.519531 -8.84375 5.078125 -8.984375 5.734375 -8.984375 C 6.785156 -8.984375 7.550781 -8.710938 8.03125 -8.171875 C 8.507812 -7.628906 8.75 -6.796875 8.75 -5.671875 L 8.75 0 L 7.4375 0 L 7.4375 -5.640625 C 7.4375 -6.171875 7.367188 -6.597656 7.234375 -6.921875 C 7.097656 -7.242188 6.890625 -7.476562 6.609375 -7.625 C 6.328125 -7.769531 5.953125 -7.84375 5.484375 -7.84375 C 4.691406 -7.84375 4.050781 -7.578125 3.5625 -7.046875 C 3.070312 -6.523438 2.828125 -5.679688 2.828125 -4.515625 L 2.828125 0 Z M 1.53125 0 "/></g></g></g><g fill="#000000" fill-opacity="1"><g transform="translate(156.659732, 18.647778)"><g/></g></g></svg>