<svg xmlns="http://www.w3.org/2000/svg" xmlns:xlink="http://www.w3.org/1999/xlink" width="200" zoomAndPan="magnify" viewBox="0 0 150 149.999998" height="200" preserveAspectRatio="xMidYMid meet" version="1.0"><defs><g/><clipPath id="3f0dd312bc"><path d="M 3.003906 47.078125 L 141 47.078125 L 141 148 L 3.003906 148 Z M 3.003906 47.078125 " clip-rule="nonzero"/></clipPath><clipPath id="bdcfda6189"><path d="M 8 47.078125 L 110 47.078125 L 110 87 L 8 87 Z M 8 47.078125 " clip-rule="nonzero"/></clipPath><clipPath id="959d660592"><path d="M 3.003906 47.078125 L 141.753906 47.078125 L 141.753906 149 L 3.003906 149 Z M 3.003906 47.078125 " clip-rule="nonzero"/></clipPath></defs><g clip-path="url(#3f0dd312bc)"><path fill="#faaf43" d="M 139.703125 114.507812 L 91.398438 143.808594 C 84.945312 149.8125 77.617188 146.882812 77.617188 146.882812 L 33.683594 139.921875 C 32.832031 139.78125 32.097656 139.25 31.703125 138.472656 L 3.894531 83.585938 C 3.316406 82.457031 4.21875 81.148438 5.480469 81.273438 L 8.300781 81.546875 L 51.816406 85.816406 C 51.816406 85.816406 55.40625 86.609375 59.214844 85.164062 C 59.5625 85.03125 59.90625 84.878906 60.253906 84.707031 C 61.75 83.964844 63.234375 82.835938 64.496094 81.132812 L 109.074219 52.253906 L 115.429688 48.140625 C 116.550781 47.414062 118.0625 47.925781 118.507812 49.1875 L 140.722656 111.652344 C 141.105469 112.726562 140.675781 113.917969 139.703125 114.507812 Z M 139.703125 114.507812 " fill-opacity="1" fill-rule="nonzero"/></g><g clip-path="url(#bdcfda6189)"><path fill="#fefbdb" d="M 109.074219 52.253906 L 64.496094 81.132812 C 63.234375 82.835938 61.75 83.964844 60.253906 84.707031 C 62.035156 80.78125 67.429688 70.734375 79.328125 61.804688 C 86.296875 56.578125 95.480469 51.734375 107.480469 48.730469 C 107.480469 48.730469 107.6875 51.125 109.074219 52.253906 Z M 74.609375 47.808594 C 74.609375 47.808594 56.226562 61.828125 58.5 81.300781 L 58.507812 81.300781 C 58.515625 81.425781 58.527344 81.550781 58.550781 81.671875 C 58.695312 82.824219 58.910156 83.984375 59.214844 85.164062 C 59.5625 85.03125 59.90625 84.878906 60.253906 84.707031 C 62.035156 80.78125 67.429688 70.730469 79.328125 61.804688 C 75.945312 56.140625 74.609375 47.808594 74.609375 47.808594 Z M 34.703125 77.707031 C 22.433594 73.53125 16.347656 67.566406 16.347656 67.566406 C 16.347656 67.566406 16.945312 74.304688 18.726562 77.503906 L 47.777344 80.820312 C 42.828125 80.101562 38.476562 78.988281 34.703125 77.707031 Z M 59.214844 85.164062 C 55.410156 86.613281 51.816406 85.816406 51.816406 85.816406 L 8.300781 81.550781 L 11.144531 77.75 C 11.648438 77.117188 12.4375 76.792969 13.242188 76.882812 L 18.726562 77.507812 L 47.777344 80.824219 C 42.828125 80.101562 38.472656 78.988281 34.703125 77.707031 C 32.152344 69.472656 33.609375 56.417969 33.609375 56.417969 C 37.421875 72.226562 57.171875 78.824219 59.214844 85.164062 Z M 59.214844 85.164062 " fill-opacity="1" fill-rule="nonzero"/></g><g clip-path="url(#959d660592)"><path fill="#010101" d="M 141.28125 111.453125 L 119.0625 48.992188 C 118.792969 48.21875 118.191406 47.625 117.414062 47.363281 C 116.636719 47.09375 115.796875 47.199219 115.105469 47.648438 L 108.835938 51.707031 C 107.875 50.566406 107.699219 48.734375 107.699219 48.710938 C 107.691406 48.648438 107.660156 48.589844 107.605469 48.550781 C 107.554688 48.511719 107.484375 48.5 107.425781 48.515625 C 96.800781 51.175781 87.371094 55.539062 79.398438 61.480469 C 76.167969 55.921875 74.839844 47.855469 74.828125 47.773438 C 74.816406 47.695312 74.765625 47.632812 74.691406 47.601562 C 74.621094 47.574219 74.539062 47.585938 74.476562 47.632812 C 74.289062 47.773438 56.019531 61.949219 58.28125 81.324219 C 58.28125 81.339844 58.285156 81.355469 58.289062 81.367188 C 58.296875 81.480469 58.3125 81.59375 58.328125 81.699219 C 58.410156 82.332031 58.511719 82.960938 58.632812 83.578125 C 57.246094 81.613281 54.515625 79.597656 51.230469 77.183594 C 44.523438 72.25 36.175781 66.109375 33.824219 56.363281 C 33.800781 56.261719 33.695312 56.183594 33.59375 56.195312 C 33.488281 56.203125 33.402344 56.285156 33.390625 56.390625 C 33.375 56.519531 32.007812 69.152344 34.371094 77.355469 C 22.570312 73.25 16.566406 67.46875 16.503906 67.410156 C 16.4375 67.34375 16.339844 67.328125 16.253906 67.367188 C 16.171875 67.40625 16.121094 67.496094 16.128906 67.585938 C 16.152344 67.851562 16.707031 73.929688 18.339844 77.238281 L 13.269531 76.660156 C 12.386719 76.5625 11.527344 76.917969 10.96875 77.613281 L 8.457031 80.96875 L 5.539062 80.683594 C 4.726562 80.601562 3.96875 80.957031 3.507812 81.628906 C 3.050781 82.296875 2.996094 83.128906 3.367188 83.851562 L 31.175781 138.742188 C 31.652344 139.679688 32.554688 140.335938 33.59375 140.503906 L 77.46875 147.457031 C 77.832031 147.585938 79.582031 148.167969 81.980469 148.167969 C 84.75 148.167969 88.382812 147.394531 91.753906 144.28125 L 140.011719 115.011719 C 141.21875 114.277344 141.75 112.785156 141.28125 111.453125 Z M 108.46875 51.949219 L 64.175781 80.636719 C 64.117188 80.675781 64.0625 80.726562 64.019531 80.78125 C 63.183594 81.914062 62.179688 82.851562 61.035156 83.582031 C 61.054688 83.542969 61.070312 83.503906 61.09375 83.464844 C 61.136719 83.371094 61.1875 83.277344 61.234375 83.183594 C 61.269531 83.117188 61.300781 83.050781 61.335938 82.984375 C 61.386719 82.886719 61.4375 82.789062 61.488281 82.6875 C 61.527344 82.617188 61.5625 82.546875 61.601562 82.476562 C 61.65625 82.375 61.710938 82.269531 61.769531 82.164062 C 61.808594 82.089844 61.847656 82.015625 61.890625 81.9375 C 61.949219 81.832031 62.011719 81.71875 62.074219 81.609375 C 62.113281 81.53125 62.15625 81.457031 62.199219 81.378906 C 62.265625 81.261719 62.332031 81.144531 62.402344 81.023438 C 62.445312 80.945312 62.488281 80.867188 62.535156 80.789062 C 62.609375 80.664062 62.683594 80.535156 62.761719 80.40625 C 62.804688 80.332031 62.847656 80.257812 62.894531 80.179688 C 62.980469 80.035156 63.066406 79.890625 63.15625 79.746094 C 63.199219 79.679688 63.238281 79.613281 63.277344 79.546875 C 63.378906 79.382812 63.484375 79.214844 63.589844 79.046875 C 63.621094 78.992188 63.652344 78.941406 63.6875 78.886719 C 63.972656 78.441406 64.269531 77.980469 64.589844 77.511719 C 64.625 77.457031 64.667969 77.398438 64.703125 77.34375 C 64.824219 77.164062 64.949219 76.984375 65.074219 76.800781 C 65.136719 76.714844 65.199219 76.625 65.261719 76.539062 C 65.367188 76.382812 65.476562 76.230469 65.589844 76.074219 C 65.65625 75.976562 65.730469 75.878906 65.800781 75.78125 C 65.910156 75.632812 66.019531 75.480469 66.132812 75.332031 C 66.207031 75.226562 66.289062 75.121094 66.367188 75.015625 C 66.476562 74.867188 66.589844 74.722656 66.703125 74.574219 C 66.785156 74.464844 66.871094 74.351562 66.957031 74.242188 C 67.070312 74.097656 67.183594 73.949219 67.300781 73.800781 C 67.390625 73.6875 67.484375 73.574219 67.574219 73.460938 C 67.691406 73.3125 67.808594 73.167969 67.929688 73.019531 C 68.023438 72.902344 68.121094 72.785156 68.21875 72.667969 C 68.339844 72.523438 68.464844 72.375 68.589844 72.226562 C 68.6875 72.105469 68.792969 71.988281 68.894531 71.867188 C 69.019531 71.71875 69.148438 71.570312 69.277344 71.425781 C 69.382812 71.304688 69.488281 71.183594 69.597656 71.0625 C 69.726562 70.910156 69.863281 70.761719 69.996094 70.613281 C 70.109375 70.492188 70.21875 70.367188 70.328125 70.246094 C 70.46875 70.097656 70.609375 69.945312 70.75 69.796875 C 70.863281 69.671875 70.980469 69.546875 71.097656 69.425781 C 71.238281 69.277344 71.382812 69.125 71.53125 68.972656 C 71.652344 68.847656 71.773438 68.722656 71.894531 68.597656 C 72.042969 68.449219 72.195312 68.296875 72.347656 68.148438 C 72.472656 68.023438 72.597656 67.898438 72.722656 67.773438 C 72.878906 67.621094 73.039062 67.464844 73.199219 67.3125 C 73.324219 67.191406 73.453125 67.066406 73.585938 66.945312 C 73.75 66.789062 73.917969 66.632812 74.085938 66.476562 C 74.214844 66.355469 74.347656 66.234375 74.480469 66.113281 C 74.652344 65.953125 74.828125 65.796875 75.003906 65.640625 C 75.136719 65.519531 75.269531 65.402344 75.40625 65.28125 C 75.589844 65.121094 75.777344 64.960938 75.964844 64.800781 C 76.101562 64.683594 76.234375 64.566406 76.371094 64.453125 C 76.570312 64.285156 76.773438 64.117188 76.976562 63.949219 C 77.105469 63.839844 77.234375 63.730469 77.367188 63.625 C 77.589844 63.441406 77.820312 63.261719 78.050781 63.078125 C 78.167969 62.988281 78.28125 62.894531 78.398438 62.800781 C 78.746094 62.527344 79.101562 62.253906 79.464844 61.984375 C 87.371094 56.050781 96.734375 51.683594 107.292969 49.007812 C 107.371094 49.574219 107.65625 50.957031 108.46875 51.949219 Z M 74.453125 48.214844 C 74.757812 49.882812 76.144531 56.800781 79.039062 61.746094 C 78.886719 61.863281 78.738281 61.980469 78.585938 62.09375 C 78.398438 62.242188 78.207031 62.386719 78.019531 62.53125 C 77.851562 62.664062 77.683594 62.796875 77.515625 62.933594 C 77.332031 63.082031 77.148438 63.226562 76.96875 63.375 C 76.800781 63.507812 76.640625 63.644531 76.480469 63.777344 C 76.304688 63.925781 76.125 64.070312 75.949219 64.21875 C 75.789062 64.355469 75.632812 64.492188 75.476562 64.632812 C 75.308594 64.777344 75.136719 64.921875 74.972656 65.070312 C 74.816406 65.207031 74.667969 65.339844 74.515625 65.476562 C 74.351562 65.625 74.183594 65.773438 74.023438 65.921875 C 73.878906 66.054688 73.738281 66.1875 73.597656 66.320312 C 73.433594 66.472656 73.273438 66.621094 73.113281 66.769531 C 72.976562 66.902344 72.839844 67.035156 72.703125 67.167969 C 72.550781 67.320312 72.390625 67.46875 72.238281 67.621094 C 72.105469 67.75 71.980469 67.878906 71.851562 68.007812 C 71.699219 68.160156 71.546875 68.316406 71.394531 68.46875 C 71.273438 68.59375 71.15625 68.71875 71.039062 68.84375 C 70.886719 69 70.734375 69.15625 70.589844 69.3125 C 70.484375 69.425781 70.382812 69.535156 70.277344 69.648438 C 70.121094 69.816406 69.964844 69.984375 69.8125 70.152344 C 69.726562 70.242188 69.648438 70.335938 69.566406 70.425781 C 69.398438 70.613281 69.230469 70.796875 69.070312 70.984375 C 69.003906 71.058594 68.9375 71.132812 68.871094 71.210938 C 68.699219 71.410156 68.527344 71.609375 68.355469 71.808594 C 67.441406 72.886719 66.609375 73.941406 65.851562 74.957031 C 65.847656 74.964844 65.839844 74.972656 65.835938 74.980469 C 65.667969 75.207031 65.503906 75.429688 65.34375 75.652344 C 65.320312 75.683594 65.296875 75.714844 65.277344 75.742188 C 65.136719 75.941406 65 76.132812 64.867188 76.324219 C 64.828125 76.378906 64.785156 76.4375 64.746094 76.496094 C 64.621094 76.671875 64.503906 76.84375 64.386719 77.019531 C 64.339844 77.085938 64.289062 77.15625 64.242188 77.226562 C 64.125 77.398438 64.011719 77.570312 63.898438 77.742188 C 63.855469 77.808594 63.8125 77.871094 63.773438 77.9375 C 63.664062 78.101562 63.558594 78.261719 63.457031 78.425781 C 63.414062 78.492188 63.367188 78.5625 63.324219 78.628906 C 63.226562 78.785156 63.132812 78.9375 63.035156 79.089844 C 62.992188 79.160156 62.949219 79.234375 62.90625 79.300781 C 62.8125 79.453125 62.726562 79.597656 62.636719 79.742188 C 62.597656 79.8125 62.554688 79.882812 62.511719 79.949219 C 62.429688 80.09375 62.347656 80.230469 62.269531 80.367188 C 62.226562 80.4375 62.183594 80.507812 62.144531 80.578125 C 62.066406 80.710938 61.996094 80.839844 61.921875 80.96875 C 61.882812 81.035156 61.839844 81.109375 61.800781 81.179688 C 61.730469 81.304688 61.667969 81.421875 61.601562 81.542969 C 61.5625 81.613281 61.519531 81.683594 61.484375 81.753906 C 61.421875 81.871094 61.359375 81.980469 61.300781 82.09375 C 61.261719 82.164062 61.226562 82.234375 61.191406 82.300781 C 61.132812 82.410156 61.074219 82.519531 61.019531 82.625 C 60.988281 82.6875 60.953125 82.753906 60.921875 82.816406 C 60.867188 82.921875 60.816406 83.023438 60.765625 83.125 C 60.734375 83.183594 60.703125 83.246094 60.675781 83.304688 C 60.625 83.402344 60.578125 83.496094 60.535156 83.585938 C 60.507812 83.644531 60.476562 83.703125 60.449219 83.761719 C 60.414062 83.832031 60.382812 83.902344 60.351562 83.96875 C 60.226562 84.039062 60.113281 84.113281 59.988281 84.179688 C 59.753906 84.296875 59.519531 84.390625 59.285156 84.488281 C 59.066406 83.566406 58.890625 82.613281 58.765625 81.636719 C 58.746094 81.519531 58.734375 81.402344 58.726562 81.285156 C 58.726562 81.265625 58.722656 81.242188 58.714844 81.222656 C 56.675781 63.464844 72.132812 50.113281 74.453125 48.214844 Z M 18.867188 77.296875 C 17.464844 74.6875 16.816406 69.789062 16.628906 68.121094 C 18.234375 69.527344 24.269531 74.386719 34.632812 77.914062 C 36.898438 78.683594 39.238281 79.347656 41.628906 79.894531 Z M 11.316406 77.886719 C 11.777344 77.3125 12.488281 77.019531 13.21875 77.101562 L 47.75 81.042969 C 47.757812 81.042969 47.769531 81.042969 47.777344 81.042969 C 47.78125 81.042969 47.785156 81.039062 47.789062 81.039062 C 47.835938 81.035156 47.878906 81.019531 47.914062 80.992188 C 47.921875 80.984375 47.925781 80.980469 47.929688 80.976562 C 47.964844 80.941406 47.988281 80.902344 47.996094 80.851562 C 48.011719 80.730469 47.929688 80.621094 47.808594 80.601562 C 47.246094 80.519531 46.6875 80.433594 46.128906 80.339844 C 45.929688 80.304688 45.734375 80.269531 45.535156 80.234375 C 45.179688 80.167969 44.820312 80.109375 44.464844 80.039062 C 44.210938 79.992188 43.960938 79.9375 43.710938 79.886719 C 43.410156 79.828125 43.113281 79.769531 42.8125 79.707031 C 42.539062 79.644531 42.269531 79.582031 41.996094 79.519531 C 41.726562 79.460938 41.449219 79.402344 41.179688 79.335938 C 40.886719 79.265625 40.59375 79.191406 40.300781 79.117188 C 40.054688 79.054688 39.808594 78.996094 39.566406 78.933594 C 39.25 78.851562 38.9375 78.761719 38.625 78.675781 C 38.40625 78.617188 38.1875 78.558594 37.972656 78.496094 C 37.644531 78.402344 37.324219 78.300781 37 78.203125 C 36.796875 78.144531 36.597656 78.085938 36.394531 78.023438 C 36.054688 77.917969 35.71875 77.804688 35.382812 77.695312 C 35.214844 77.640625 35.046875 77.585938 34.878906 77.527344 C 32.863281 70.898438 33.429688 61.078125 33.710938 57.664062 C 36.464844 66.871094 44.472656 72.765625 50.964844 77.539062 C 53.273438 79.238281 55.394531 80.800781 56.902344 82.277344 C 56.011719 81.832031 54.761719 81.425781 52.992188 81.175781 C 52.949219 81.164062 52.871094 81.175781 52.832031 81.195312 C 52.722656 81.25 52.675781 81.382812 52.730469 81.492188 C 52.773438 81.578125 52.859375 81.625 52.949219 81.617188 C 58.464844 82.40625 58.628906 84.691406 58.628906 84.710938 C 58.628906 84.71875 58.632812 84.726562 58.632812 84.738281 C 55.1875 85.917969 51.976562 85.246094 51.941406 85.238281 C 51.917969 85.230469 51.894531 85.226562 51.871094 85.226562 L 8.972656 81.019531 Z M 32.230469 138.207031 L 4.421875 83.316406 C 4.25 82.984375 4.273438 82.601562 4.484375 82.292969 C 4.675781 82.015625 4.980469 81.855469 5.316406 81.855469 C 5.351562 81.855469 5.386719 81.855469 5.425781 81.859375 L 51.730469 86.398438 C 51.753906 86.402344 51.792969 86.410156 51.835938 86.421875 L 77.089844 146.199219 L 33.78125 139.339844 C 33.113281 139.230469 32.535156 138.808594 32.230469 138.207031 Z M 77.835938 146.332031 C 77.796875 146.316406 77.753906 146.304688 77.710938 146.296875 L 77.605469 146.28125 L 52.351562 86.503906 C 53.59375 86.667969 56.429688 86.855469 59.421875 85.714844 C 59.785156 85.578125 60.152344 85.414062 60.515625 85.234375 C 62.101562 84.449219 63.472656 83.34375 64.605469 81.945312 L 90.972656 143.394531 C 84.890625 149.035156 78.121094 146.445312 77.835938 146.332031 Z M 139.398438 114 L 91.351562 143.144531 L 64.925781 81.558594 L 115.75 48.636719 C 116.132812 48.390625 116.601562 48.332031 117.035156 48.480469 C 117.464844 48.625 117.800781 48.957031 117.949219 49.386719 L 140.167969 111.851562 C 140.449219 112.652344 140.128906 113.558594 139.398438 114 Z M 139.398438 114 " fill-opacity="1" fill-rule="nonzero"/></g><g fill="#000000" fill-opacity="1"><g transform="translate(75.328326, 138.487489)"><g><path d="M 0.140625 -0.640625 C 0.117188 -0.640625 0.101562 -0.644531 0.09375 -0.65625 C 0.0820312 -0.664062 0.078125 -0.679688 0.078125 -0.703125 C 0.078125 -0.710938 0.0820312 -0.722656 0.09375 -0.734375 C 0.101562 -0.742188 0.117188 -0.75 0.140625 -0.75 C 0.148438 -0.75 0.160156 -0.742188 0.171875 -0.734375 C 0.179688 -0.722656 0.1875 -0.710938 0.1875 -0.703125 C 0.1875 -0.679688 0.179688 -0.664062 0.171875 -0.65625 C 0.160156 -0.644531 0.148438 -0.640625 0.140625 -0.640625 Z M 0.09375 0 L 0.09375 -0.53125 L 0.171875 -0.53125 L 0.171875 0 Z M 0.09375 0 "/></g></g></g><g fill="#000000" fill-opacity="1"><g transform="translate(74.865882, 68.849997)"><g><path d="M 0.140625 -0.640625 C 0.117188 -0.640625 0.101562 -0.644531 0.09375 -0.65625 C 0.0820312 -0.664062 0.078125 -0.679688 0.078125 -0.703125 C 0.078125 -0.710938 0.0820312 -0.722656 0.09375 -0.734375 C 0.101562 -0.742188 0.117188 -0.75 0.140625 -0.75 C 0.148438 -0.75 0.160156 -0.742188 0.171875 -0.734375 C 0.179688 -0.722656 0.1875 -0.710938 0.1875 -0.703125 C 0.1875 -0.679688 0.179688 -0.664062 0.171875 -0.65625 C 0.160156 -0.644531 0.148438 -0.640625 0.140625 -0.640625 Z M 0.09375 0 L 0.09375 -0.53125 L 0.171875 -0.53125 L 0.171875 0 Z M 0.09375 0 "/></g></g></g><g fill="#000000" fill-opacity="1"><g transform="translate(56.361212, 82.027564)"><g><path d="M 0.140625 -0.640625 C 0.117188 -0.640625 0.101562 -0.644531 0.09375 -0.65625 C 0.0820312 -0.664062 0.078125 -0.679688 0.078125 -0.703125 C 0.078125 -0.710938 0.0820312 -0.722656 0.09375 -0.734375 C 0.101562 -0.742188 0.117188 -0.75 0.140625 -0.75 C 0.148438 -0.75 0.160156 -0.742188 0.171875 -0.734375 C 0.179688 -0.722656 0.1875 -0.710938 0.1875 -0.703125 C 0.1875 -0.679688 0.179688 -0.664062 0.171875 -0.65625 C 0.160156 -0.644531 0.148438 -0.640625 0.140625 -0.640625 Z M 0.09375 0 L 0.09375 -0.53125 L 0.171875 -0.53125 L 0.171875 0 Z M 0.09375 0 "/></g></g></g></svg>