<svg xmlns="http://www.w3.org/2000/svg" xmlns:xlink="http://www.w3.org/1999/xlink" width="200" zoomAndPan="magnify" viewBox="0 0 150 74.999997" height="100" preserveAspectRatio="xMidYMid meet" version="1.0"><defs><g/><clipPath id="acf65b6fd9"><path d="M 28.046875 1.050781 L 128 1.050781 L 128 75 L 28.046875 75 Z M 28.046875 1.050781 " clip-rule="nonzero"/></clipPath></defs><g clip-path="url(#acf65b6fd9)"><path fill="#000000" d="M 114.453125 15.527344 C 109.886719 16.632812 105.140625 17.191406 100.515625 18.054688 C 95.871094 18.917969 91.265625 19.921875 86.660156 21.027344 C 86.097656 21.167969 85.859375 20.324219 86.417969 20.183594 C 91.082031 18.980469 95.75 17.875 100.476562 16.890625 C 105 15.96875 109.6875 14.945312 114.3125 14.542969 C 114.871094 14.484375 114.992188 15.386719 114.453125 15.527344 Z M 60.1875 47.621094 C 54.058594 46.65625 47.933594 45.632812 41.765625 44.910156 C 41.445312 44.871094 41.363281 45.433594 41.683594 45.492188 C 47.8125 46.777344 54.019531 47.742188 60.207031 48.765625 C 66.394531 49.789062 72.582031 50.871094 78.789062 51.777344 C 79.488281 51.875 79.808594 50.8125 79.070312 50.671875 C 72.800781 49.546875 66.472656 48.605469 60.1875 47.621094 Z M 47.210938 64.5625 C 42.625 63.136719 38.058594 61.691406 33.496094 60.226562 C 32.894531 60.023438 32.652344 60.988281 33.253906 61.167969 C 37.761719 62.613281 42.265625 64.039062 46.769531 65.445312 C 48.933594 66.105469 51.097656 66.769531 53.277344 67.410156 C 55.921875 68.175781 58.625 69.238281 61.328125 69.660156 C 61.648438 69.71875 61.910156 69.257812 61.546875 69.097656 C 59.164062 68.035156 56.484375 67.453125 53.980469 66.667969 C 51.738281 65.964844 49.472656 65.265625 47.210938 64.5625 Z M 33.515625 56.292969 C 32.972656 56.132812 32.753906 56.972656 33.292969 57.15625 C 42.464844 60.046875 51.65625 62.855469 60.847656 65.644531 C 61.269531 65.765625 61.429688 65.125 61.027344 64.984375 C 51.855469 62.03125 42.707031 59.121094 33.515625 56.292969 Z M 78.628906 46.257812 C 65.832031 44.070312 53.019531 42 40.222656 39.832031 C 39.742188 39.753906 39.761719 40.355469 40.242188 40.457031 C 40.242188 40.457031 65.652344 45.050781 78.386719 47.402344 C 79.390625 47.582031 79.628906 46.4375 78.628906 46.257812 Z M 114.410156 10.167969 C 104.738281 11.632812 95.128906 13.417969 85.539062 15.328125 C 85.136719 15.40625 85.316406 16.007812 85.71875 15.929688 C 95.347656 14.203125 105 12.597656 114.671875 11.050781 C 115.253906 10.972656 114.992188 10.089844 114.410156 10.167969 Z M 126.027344 35.820312 C 125.964844 35.917969 125.886719 35.960938 125.785156 35.980469 C 125.683594 36.039062 125.585938 36.082031 125.464844 36.082031 C 124.382812 36.222656 123.300781 36.359375 122.242188 36.5 C 123.921875 40.074219 124.503906 45.132812 121.921875 48.382812 C 121.878906 48.425781 121.839844 48.464844 121.800781 48.503906 C 121.71875 48.585938 121.601562 48.644531 121.460938 48.664062 C 120.277344 48.925781 119.097656 49.1875 117.9375 49.449219 C 119.9375 53.121094 119.796875 57.476562 117.894531 61.167969 C 117.835938 61.308594 117.714844 61.371094 117.617188 61.410156 C 117.535156 61.449219 117.457031 61.492188 117.355469 61.511719 C 99.074219 66.046875 80.871094 70.925781 62.507812 75.160156 C 62.308594 75.257812 62.070312 75.28125 61.808594 75.199219 C 50.777344 72.027344 39.941406 68.234375 28.988281 64.882812 C 28.308594 64.683594 28.390625 63.777344 28.890625 63.558594 C 31.574219 59.90625 31.453125 54.945312 28.46875 51.476562 C 28.046875 50.972656 28.308594 50.351562 28.730469 50.089844 C 28.789062 50.03125 28.871094 49.988281 28.949219 49.96875 C 31.652344 49.308594 34.296875 48.382812 37 47.761719 C 37.839844 47.582031 38.199219 48.804688 37.359375 49.046875 C 35.257812 49.667969 33.113281 50.109375 30.972656 50.570312 C 35.996094 52.058594 41.023438 53.523438 46.03125 55.046875 C 48.8125 55.890625 51.578125 56.714844 54.359375 57.554688 C 55.722656 57.976562 57.101562 58.398438 58.464844 58.820312 C 59.425781 59.121094 60.445312 59.324219 61.367188 59.746094 C 66.214844 58.761719 71.058594 57.757812 75.925781 56.875 C 70.980469 55.808594 66.015625 54.765625 61.066406 53.742188 C 57.34375 52.960938 53.617188 52.15625 49.894531 51.292969 C 46.210938 50.429688 42.605469 49.246094 38.941406 48.445312 C 38.921875 48.445312 38.902344 48.425781 38.882812 48.425781 C 38.621094 48.382812 38.382812 48.183594 38.261719 47.84375 C 37.839844 46.496094 37.878906 44.972656 37.78125 43.566406 L 37.441406 38.890625 C 37.378906 38.1875 38.582031 38.007812 38.679688 38.710938 C 38.921875 40.253906 39.160156 41.800781 39.402344 43.324219 C 39.621094 44.710938 40.023438 46.195312 39.921875 47.601562 C 39.921875 47.640625 39.902344 47.679688 39.902344 47.722656 C 43.445312 48.464844 47.109375 48.867188 50.675781 49.527344 C 54.320312 50.210938 57.984375 50.894531 61.628906 51.574219 C 69.097656 53 76.585938 54.265625 84.074219 55.527344 C 84.136719 55.550781 84.214844 55.550781 84.277344 55.570312 C 85.898438 52.316406 85.796875 48.523438 84.136719 45.292969 C 84.015625 45.152344 83.894531 45.011719 83.773438 44.890625 C 83.753906 44.871094 83.753906 44.871094 83.734375 44.851562 C 82.09375 44.75 80.410156 44.390625 78.789062 44.167969 C 77.628906 44.007812 76.445312 43.828125 75.285156 43.648438 C 75.265625 43.648438 75.246094 43.648438 75.203125 43.648438 C 60.285156 41.179688 45.390625 38.609375 30.453125 36.179688 C 29.589844 36.039062 29.949219 34.777344 30.792969 34.894531 C 30.953125 34.917969 31.113281 34.9375 31.273438 34.957031 C 31.070312 31.542969 30.953125 28.152344 30.832031 24.738281 C 30.53125 24.699219 30.25 24.640625 29.949219 24.597656 C 29.832031 24.578125 29.730469 24.539062 29.671875 24.457031 C 29.25 24.21875 29.167969 23.433594 29.789062 23.253906 C 32.914062 22.332031 36.058594 21.367188 39.261719 20.785156 C 38.101562 19.199219 37.578125 16.972656 37.480469 15.144531 C 37.320312 12.675781 37.941406 10.269531 39.183594 8.160156 C 39.203125 7.980469 39.320312 7.820312 39.5625 7.757812 C 44.867188 6.496094 50.214844 4.988281 55.601562 4.066406 C 58.90625 3.285156 62.871094 2.542969 65.03125 2.058594 C 67.316406 1.558594 69.335938 1.257812 71.679688 1.195312 C 76.726562 1.074219 81.851562 1.597656 86.878906 1.820312 C 97.589844 2.320312 107.5625 3.003906 119.058594 4.328125 C 119.519531 4.386719 119.65625 4.808594 119.578125 5.152344 C 119.617188 5.53125 119.398438 5.914062 118.9375 5.894531 C 118.65625 5.933594 118.375 5.992188 118.097656 6.035156 C 117.636719 8.222656 117.394531 10.429688 117.515625 12.65625 C 117.617188 14.644531 118.074219 16.53125 118.515625 18.457031 C 118.835938 18.417969 119.15625 18.355469 119.476562 18.296875 C 120.296875 18.175781 120.699219 19.421875 119.839844 19.582031 C 116.855469 20.125 113.851562 20.6875 110.867188 21.269531 C 115.875 21.527344 120.777344 22.070312 125.726562 23.074219 C 125.84375 23.09375 125.925781 23.132812 126.003906 23.195312 C 126.285156 23.292969 126.445312 23.574219 126.464844 23.855469 C 128.546875 27.628906 128.347656 32.167969 126.027344 35.820312 Z M 117.054688 6.214844 C 105.402344 8.121094 93.746094 10.027344 82.113281 12.09375 C 82.113281 12.113281 82.09375 12.15625 82.09375 12.175781 C 81.070312 14.503906 80.730469 17.050781 81.070312 19.582031 C 81.230469 20.707031 81.53125 21.789062 81.914062 22.851562 C 82.214844 23.65625 82.652344 24.378906 83.015625 25.160156 C 94.527344 22.792969 106 20.445312 117.617188 18.617188 C 116.113281 14.703125 116.234375 10.269531 117.054688 6.214844 Z M 43.105469 8.160156 C 55.703125 9.105469 68.296875 10.027344 80.890625 11.171875 C 80.933594 11.152344 80.972656 11.132812 81.03125 11.132812 C 91.824219 8.824219 102.738281 7.039062 113.652344 5.332031 C 113.929688 5.289062 114.191406 5.269531 114.472656 5.230469 C 105.582031 4.367188 96.691406 3.707031 87.761719 3.265625 C 82.632812 3.003906 77.507812 2.640625 72.363281 2.402344 C 71.601562 2.359375 70.859375 2.359375 70.140625 2.402344 C 66.953125 3.0625 63.769531 3.746094 60.585938 4.386719 C 58.304688 4.96875 55.800781 5.59375 54.140625 5.933594 C 50.457031 6.757812 46.769531 7.417969 43.105469 8.160156 Z M 80.851562 12.636719 C 75.625 12.175781 70.398438 11.714844 65.171875 11.230469 C 64.410156 15.507812 64.632812 19.601562 66.195312 23.65625 C 71.058594 24.15625 75.925781 24.621094 80.8125 25 C 79.929688 23.316406 79.609375 21.148438 79.53125 19.441406 C 79.429688 17.09375 79.890625 14.765625 80.851562 12.636719 Z M 63.691406 11.113281 C 60.085938 10.789062 56.484375 10.449219 52.878906 10.109375 C 51.816406 14.203125 52.175781 18.496094 54 22.332031 C 57.625 22.753906 61.25 23.175781 64.871094 23.554688 C 63.191406 19.683594 62.628906 15.207031 63.691406 11.113281 Z M 40.824219 20.707031 C 44.628906 21.1875 48.433594 21.648438 52.257812 22.109375 C 50.554688 18.238281 50.195312 14.082031 51.277344 9.949219 C 47.472656 9.585938 43.667969 9.203125 39.863281 8.824219 C 39.78125 8.84375 39.683594 8.84375 39.621094 8.824219 C 38.722656 10.730469 38.339844 12.777344 38.5625 14.886719 C 38.800781 17.152344 39.882812 18.777344 40.824219 20.707031 Z M 75.546875 31.363281 C 61.007812 29.257812 46.429688 27.269531 31.933594 24.902344 C 32.074219 28.292969 32.234375 31.683594 32.292969 35.078125 C 46.609375 37.082031 60.886719 39.171875 75.164062 41.4375 C 75.183594 41.359375 75.203125 41.296875 75.246094 41.21875 C 76.6875 38.105469 76.847656 34.574219 75.546875 31.363281 Z M 76.546875 29.578125 C 91.265625 27.148438 106.0625 25.363281 120.878906 23.695312 C 116.414062 22.972656 111.929688 22.25 107.402344 21.96875 C 107.382812 21.96875 107.382812 21.96875 107.363281 21.96875 C 99.234375 23.574219 91.125 25.261719 83.035156 26.949219 C 82.992188 26.949219 82.953125 26.949219 82.914062 26.96875 C 82.8125 27.007812 82.671875 27.027344 82.535156 27.007812 C 68.496094 25.84375 54.558594 23.917969 40.625 21.910156 C 40.542969 21.929688 40.464844 21.910156 40.363281 21.890625 C 40.324219 21.910156 40.304688 21.910156 40.261719 21.929688 C 37.800781 22.574219 35.335938 23.15625 32.875 23.777344 C 47.3125 25.542969 61.730469 27.371094 76.125 29.417969 C 76.304688 29.4375 76.425781 29.496094 76.546875 29.578125 Z M 109.066406 36.640625 C 111.109375 36.359375 113.128906 36.101562 115.171875 35.839844 C 116.011719 32.566406 115.851562 29.175781 114.371094 26.164062 C 112.328125 26.40625 110.285156 26.648438 108.246094 26.886719 C 109.664062 29.878906 110.207031 33.492188 109.066406 36.640625 Z M 98.792969 38.085938 C 101.738281 37.664062 104.679688 37.246094 107.625 36.84375 C 108.363281 33.53125 108.585938 30.359375 107.183594 27.148438 C 107.164062 27.109375 107.144531 27.046875 107.144531 27.007812 C 104.21875 27.347656 101.296875 27.710938 98.371094 28.070312 C 99.675781 31.203125 100.035156 34.894531 98.792969 38.085938 Z M 90.082031 39.410156 C 92.527344 39.03125 94.988281 38.648438 97.453125 38.289062 C 98.453125 34.835938 98.714844 31.5625 97.351562 28.191406 C 94.769531 28.492188 92.183594 28.8125 89.621094 29.117188 C 91.183594 32.347656 91.425781 36.082031 90.082031 39.410156 Z M 88.902344 39.613281 C 89.742188 36.160156 89.984375 32.628906 88.480469 29.277344 C 88.480469 29.277344 88.480469 29.277344 88.480469 29.257812 C 84.617188 29.71875 80.730469 30.160156 76.847656 30.582031 C 78.429688 34.132812 78.507812 38.085938 76.925781 41.660156 C 80.910156 40.9375 84.894531 40.253906 88.902344 39.613281 Z M 97.070312 40.035156 C 91.5625 40.835938 86.058594 41.640625 80.53125 42.421875 C 81.710938 42.523438 82.914062 42.601562 84.035156 42.84375 C 88.378906 41.878906 92.726562 40.9375 97.070312 40.035156 Z M 61.066406 61.769531 C 60.988281 61.691406 60.929688 61.609375 60.886719 61.511719 C 59.886719 61.328125 58.945312 60.929688 57.984375 60.628906 C 56.621094 60.1875 55.242188 59.765625 53.878906 59.34375 C 51.117188 58.480469 48.351562 57.617188 45.570312 56.753906 C 40.664062 55.226562 35.777344 53.664062 30.910156 52.058594 C 33.015625 55.769531 32.773438 60.265625 30.132812 63.738281 C 40.824219 66.667969 51.394531 69.960938 62.050781 73.03125 C 63.710938 69.316406 64.210938 64.882812 61.066406 61.769531 Z M 82.171875 63.617188 C 81.933594 61.53125 81.273438 59.605469 80.210938 57.835938 C 74.523438 59.222656 68.738281 60.1875 63.011719 61.308594 C 65.972656 64.683594 65.394531 69.539062 63.730469 73.492188 C 69.777344 71.867188 75.824219 70.261719 81.871094 68.675781 C 81.894531 68.054688 82.09375 67.429688 82.171875 66.769531 C 82.292969 65.726562 82.273438 64.660156 82.171875 63.617188 Z M 101.816406 53.421875 C 99.953125 53.921875 98.09375 54.425781 96.230469 54.945312 C 94.367188 55.46875 92.503906 55.992188 90.644531 56.511719 C 88.820312 57.035156 86.980469 57.554688 85.15625 58.117188 C 84.535156 58.300781 83.773438 58.441406 83.15625 58.300781 C 82.652344 58.179688 82.3125 58.097656 81.671875 57.9375 C 82.613281 59.523438 83.355469 61.449219 83.636719 63.277344 C 83.835938 64.5625 84.035156 66.667969 83.59375 68.234375 C 90.164062 66.507812 96.730469 64.800781 103.296875 63.117188 C 103.839844 59.746094 103.480469 56.453125 101.816406 53.421875 Z M 117.496094 55.066406 C 117.457031 53.441406 116.894531 51.113281 115.554688 50.007812 C 111.347656 50.992188 107.144531 52.015625 102.957031 53.121094 C 104.601562 56.03125 105.320312 59.484375 104.699219 62.753906 C 108.644531 61.75 112.589844 60.746094 116.554688 59.765625 C 117.234375 58.257812 117.535156 56.695312 117.496094 55.066406 Z M 121.761719 42.503906 C 121.761719 40.597656 121.320312 38.730469 120.457031 37.023438 C 120.417969 36.964844 120.398438 36.882812 120.378906 36.824219 C 114.652344 38.085938 108.804688 38.96875 103.039062 40.132812 C 97.109375 41.339844 91.203125 42.601562 85.296875 43.90625 C 85.296875 43.949219 85.296875 43.96875 85.296875 44.007812 C 87.058594 46.816406 87.539062 50.171875 86.777344 53.300781 C 86.636719 54.363281 86.359375 55.390625 85.976562 56.414062 C 97.550781 52.980469 109.226562 49.988281 120.960938 47.160156 C 121.320312 45.613281 121.761719 44.128906 121.761719 42.503906 Z M 125.042969 24.921875 C 121.902344 25.261719 118.738281 25.625 115.59375 26.003906 C 117.113281 29.195312 117.253906 32.328125 116.453125 35.660156 C 119.4375 35.277344 122.441406 34.894531 125.425781 34.535156 C 125.425781 34.535156 125.445312 34.535156 125.445312 34.535156 C 126.6875 31.625 126.867188 27.628906 125.042969 24.921875 Z M 125.042969 24.921875 " fill-opacity="1" fill-rule="nonzero"/></g><g fill="#000000" fill-opacity="1"><g transform="translate(76.520442, 37.370138)"><g><path d="M 0.515625 -0.25 L 0.140625 -0.25 C 0.140625 -0.1875 0.15625 -0.140625 0.1875 -0.109375 C 0.21875 -0.078125 0.257812 -0.0625 0.3125 -0.0625 C 0.351562 -0.0625 0.382812 -0.0664062 0.40625 -0.078125 C 0.425781 -0.0976562 0.441406 -0.117188 0.453125 -0.140625 L 0.46875 -0.140625 L 0.515625 -0.109375 C 0.503906 -0.078125 0.476562 -0.046875 0.4375 -0.015625 C 0.40625 0.00390625 0.363281 0.015625 0.3125 0.015625 C 0.257812 0.015625 0.210938 0.00390625 0.171875 -0.015625 C 0.140625 -0.0351562 0.113281 -0.0664062 0.09375 -0.109375 C 0.0703125 -0.148438 0.0625 -0.203125 0.0625 -0.265625 C 0.0625 -0.328125 0.0703125 -0.378906 0.09375 -0.421875 C 0.113281 -0.460938 0.140625 -0.492188 0.171875 -0.515625 C 0.210938 -0.535156 0.257812 -0.546875 0.3125 -0.546875 C 0.375 -0.546875 0.425781 -0.523438 0.46875 -0.484375 C 0.507812 -0.453125 0.53125 -0.394531 0.53125 -0.3125 C 0.53125 -0.28125 0.53125 -0.257812 0.53125 -0.25 Z M 0.453125 -0.3125 C 0.441406 -0.375 0.425781 -0.414062 0.40625 -0.4375 C 0.382812 -0.46875 0.351562 -0.484375 0.3125 -0.484375 C 0.257812 -0.484375 0.21875 -0.46875 0.1875 -0.4375 C 0.164062 -0.414062 0.148438 -0.375 0.140625 -0.3125 Z M 0.453125 -0.3125 "/></g></g></g></svg>