<svg xmlns="http://www.w3.org/2000/svg" xmlns:xlink="http://www.w3.org/1999/xlink" width="200" zoomAndPan="magnify" viewBox="0 0 150 149.999998" height="200" preserveAspectRatio="xMidYMid meet" version="1.0"><defs><g/><clipPath id="e020529e1d"><path d="M 2.171875 66.648438 L 147.671875 66.648438 L 147.671875 148.398438 L 2.171875 148.398438 Z M 2.171875 66.648438 " clip-rule="nonzero"/></clipPath></defs><g clip-path="url(#e020529e1d)"><path fill="#000000" d="M 140.773438 118.691406 C 141.15625 119 141.539062 119.25 141.863281 119.558594 C 142.410156 120.0625 142.941406 120.585938 143.445312 121.132812 C 144.007812 121.738281 144.539062 122.363281 145.074219 122.984375 C 145.234375 123.171875 145.371094 123.425781 145.253906 123.652344 C 145.140625 123.871094 144.886719 123.960938 144.621094 123.949219 C 144.5625 123.945312 144.503906 123.945312 144.445312 123.949219 C 144.261719 123.972656 144.011719 123.851562 143.929688 124.085938 C 143.898438 124.167969 144.09375 124.328125 144.191406 124.449219 C 144.675781 125.050781 145.164062 125.648438 145.648438 126.257812 C 145.824219 126.472656 145.835938 126.726562 145.636719 126.925781 C 145.367188 127.203125 145.316406 127.53125 145.269531 127.890625 C 145.195312 128.472656 145.050781 129.050781 144.933594 129.628906 C 144.921875 129.667969 144.925781 129.707031 144.921875 129.742188 C 144.882812 130.332031 144.816406 130.921875 144.808594 131.511719 C 144.796875 133.703125 144.808594 135.898438 144.800781 138.085938 C 144.800781 138.324219 144.902344 138.582031 144.699219 138.808594 C 144.65625 138.859375 144.742188 139.058594 144.808594 139.160156 C 145.351562 139.96875 145.578125 140.917969 146.023438 141.769531 C 146.347656 142.398438 146.664062 143.03125 146.980469 143.664062 C 147.125 143.941406 147.242188 144.226562 147.402344 144.488281 C 147.589844 144.796875 147.503906 145.125 147.503906 145.441406 C 147.503906 145.628906 147.078125 145.820312 146.855469 145.769531 C 146.675781 145.730469 146.496094 145.683594 146.308594 145.664062 C 145.691406 145.597656 145.070312 145.601562 144.464844 145.429688 C 144.390625 145.410156 144.308594 145.425781 144.230469 145.425781 C 143.582031 145.4375 142.953125 145.324219 142.328125 145.199219 C 141.878906 145.109375 141.417969 145.125 140.964844 145.066406 C 140.539062 145.015625 140.121094 144.921875 139.699219 144.859375 C 139.328125 144.804688 138.953125 144.765625 138.578125 144.71875 C 137.640625 144.601562 136.707031 144.519531 135.78125 144.355469 C 134.929688 144.203125 134.078125 144.097656 133.222656 144 C 132.492188 143.917969 131.753906 143.835938 131.023438 143.761719 C 130.09375 143.667969 129.164062 143.601562 128.238281 143.519531 C 127.683594 143.46875 127.117188 143.515625 126.582031 143.40625 C 125.847656 143.261719 125.113281 143.390625 124.390625 143.300781 C 122.683594 143.078125 120.96875 143.230469 119.257812 143.199219 C 117.53125 143.167969 115.800781 143.109375 114.078125 143.222656 C 112.953125 143.296875 111.824219 143.195312 110.714844 143.335938 C 109.648438 143.46875 108.574219 143.316406 107.523438 143.445312 C 106.457031 143.582031 105.386719 143.441406 104.335938 143.570312 C 103.597656 143.664062 102.863281 143.566406 102.144531 143.683594 C 101.445312 143.796875 100.746094 143.6875 100.074219 143.804688 C 99.378906 143.925781 98.679688 143.804688 98.003906 143.917969 C 97.390625 144.019531 96.777344 143.960938 96.167969 144.027344 C 95.199219 144.136719 94.234375 144.226562 93.261719 144.261719 C 92.449219 144.289062 91.632812 144.378906 90.824219 144.496094 C 90.054688 144.605469 89.28125 144.667969 88.507812 144.738281 C 87.675781 144.804688 86.84375 144.882812 86.015625 144.980469 C 85.035156 145.089844 84.046875 145.167969 83.082031 145.421875 C 82.214844 145.65625 81.359375 145.90625 80.621094 146.429688 C 79.832031 146.988281 78.914062 147.25 78.015625 147.527344 C 77.03125 147.828125 76.007812 147.824219 74.996094 147.757812 C 74.273438 147.707031 73.5625 147.5 72.84375 147.425781 C 72.042969 147.347656 71.304688 147.089844 70.550781 146.847656 C 69.863281 146.628906 69.242188 146.285156 68.636719 145.9375 C 68.300781 145.746094 67.964844 145.605469 67.617188 145.558594 C 66.710938 145.429688 65.824219 145.238281 64.929688 145.082031 C 64.203125 144.957031 63.464844 144.9375 62.734375 144.828125 C 61.828125 144.699219 60.910156 144.679688 60.007812 144.570312 C 59.25 144.484375 58.5 144.546875 57.757812 144.480469 C 55.378906 144.265625 52.992188 144.296875 50.621094 144.398438 C 48.28125 144.496094 45.9375 144.378906 43.605469 144.507812 C 42.738281 144.558594 41.863281 144.496094 41.003906 144.621094 C 40.25 144.730469 39.496094 144.621094 38.753906 144.738281 C 38.039062 144.847656 37.324219 144.742188 36.628906 144.855469 C 35.949219 144.964844 35.273438 144.859375 34.617188 144.96875 C 33.976562 145.078125 33.339844 144.980469 32.722656 145.085938 C 32.125 145.1875 31.523438 145.097656 30.945312 145.203125 C 30.382812 145.304688 29.828125 145.238281 29.285156 145.308594 C 28.378906 145.4375 27.460938 145.460938 26.550781 145.539062 C 25.796875 145.601562 25.046875 145.6875 24.292969 145.769531 C 23.617188 145.84375 22.9375 145.90625 22.273438 146.007812 C 21.582031 146.121094 20.890625 146.195312 20.191406 146.25 C 19.394531 146.316406 18.605469 146.488281 17.804688 146.585938 C 17.257812 146.65625 16.691406 146.617188 16.152344 146.722656 C 15.632812 146.824219 15.109375 146.765625 14.59375 146.925781 C 14.203125 147.046875 13.765625 147.023438 13.351562 147.058594 C 12.859375 147.101562 12.351562 147.082031 11.871094 147.1875 C 11.214844 147.328125 10.535156 147.308594 9.886719 147.519531 C 9.570312 147.621094 9.214844 147.597656 8.878906 147.648438 C 8.144531 147.761719 7.410156 147.890625 6.667969 148 C 6.273438 148.058594 5.875 148.066406 5.480469 148.125 C 5.058594 148.1875 4.644531 148.308594 4.226562 148.347656 C 3.777344 148.386719 3.320312 148.398438 2.871094 148.34375 C 2.414062 148.289062 2.277344 147.867188 2.515625 147.382812 C 2.675781 147.058594 2.84375 146.738281 3.011719 146.417969 C 3.519531 145.46875 4.015625 144.519531 4.542969 143.585938 C 4.945312 142.871094 5.332031 142.148438 5.503906 141.34375 C 5.558594 141.085938 5.652344 140.796875 5.578125 140.5625 C 5.410156 140.027344 5.542969 139.488281 5.472656 138.964844 C 5.324219 137.847656 5.460938 136.71875 5.335938 135.609375 C 5.183594 134.289062 5.304688 132.980469 5.238281 131.664062 C 5.203125 131.011719 5.246094 130.367188 5.148438 129.710938 C 5.058594 129.101562 5.195312 128.457031 5.246094 127.828125 C 5.257812 127.730469 5.371094 127.648438 5.4375 127.558594 C 5.949219 126.847656 6.464844 126.144531 6.972656 125.429688 C 7 125.390625 6.964844 125.246094 6.945312 125.242188 C 6.742188 125.210938 6.621094 125.105469 6.65625 124.898438 C 6.683594 124.699219 6.699219 124.46875 6.8125 124.320312 C 7.257812 123.71875 7.75 123.140625 8.21875 122.546875 C 8.878906 121.707031 9.488281 120.820312 10.195312 120.023438 C 10.925781 119.203125 11.441406 118.222656 12.246094 117.46875 C 12.347656 117.371094 12.347656 117.273438 12.167969 117.242188 C 11.769531 117.167969 11.367188 117.082031 10.96875 117.007812 C 10.609375 116.945312 10.25 116.886719 9.921875 116.691406 C 9.53125 116.453125 9.492188 116.246094 9.800781 115.921875 C 10.371094 115.3125 10.921875 114.691406 11.515625 114.105469 C 12.285156 113.34375 13.101562 112.621094 13.871094 111.859375 C 14.558594 111.171875 15.195312 110.445312 15.878906 109.753906 C 16.378906 109.25 16.925781 108.785156 17.445312 108.292969 C 17.519531 108.226562 17.546875 108.109375 17.597656 108.011719 C 17.503906 108 17.417969 107.972656 17.324219 107.964844 C 16.453125 107.886719 15.582031 107.84375 14.714844 107.722656 C 13.554688 107.5625 12.394531 107.363281 11.246094 107.132812 C 10.652344 107.015625 10.0625 106.933594 9.460938 106.894531 C 9.183594 106.875 8.871094 106.761719 8.65625 106.589844 C 8.402344 106.390625 8.492188 106.03125 8.574219 105.78125 C 8.800781 105.074219 9.089844 104.390625 9.367188 103.703125 C 9.761719 102.714844 10.277344 101.792969 10.902344 100.929688 C 11.21875 100.488281 11.542969 100.050781 11.898438 99.640625 C 12.566406 98.871094 13.25 98.121094 13.933594 97.367188 C 14.507812 96.742188 15.097656 96.125 15.683594 95.507812 C 16.472656 94.675781 17.25 93.84375 18.058594 93.027344 C 21.234375 89.8125 24.410156 86.605469 27.59375 83.40625 C 28.375 82.625 29.167969 81.847656 30.003906 81.128906 C 30.988281 80.277344 32.027344 79.488281 33.042969 78.671875 C 33.996094 77.910156 34.941406 77.128906 35.925781 76.394531 C 36.710938 75.8125 37.550781 75.296875 38.355469 74.738281 C 39.03125 74.269531 39.691406 74.378906 40.371094 74.710938 C 41.253906 75.136719 42.144531 75.539062 43.03125 75.957031 C 44 76.414062 44.984375 76.84375 45.929688 77.347656 C 46.238281 77.515625 46.292969 77.398438 46.425781 77.191406 C 47.136719 76.054688 47.855469 74.925781 48.582031 73.796875 C 49.265625 72.738281 49.820312 71.613281 50.34375 70.476562 C 50.757812 69.585938 51.203125 68.707031 51.292969 67.699219 C 51.3125 67.492188 51.417969 67.285156 51.5 67.085938 C 51.660156 66.714844 51.996094 66.636719 52.296875 66.898438 C 52.90625 67.417969 53.53125 67.929688 54.113281 68.484375 C 54.863281 69.191406 55.632812 69.898438 56.304688 70.679688 C 57.28125 71.808594 58.171875 72.996094 59.105469 74.15625 C 59.664062 74.851562 60.269531 75.507812 60.804688 76.214844 C 61.597656 77.277344 62.421875 78.3125 63.207031 79.386719 C 64.082031 80.585938 64.945312 81.792969 65.761719 83.03125 C 66.371094 83.949219 66.945312 84.886719 67.511719 85.828125 C 68.1875 86.953125 68.875 88.074219 69.503906 89.230469 C 70.101562 90.328125 70.632812 91.464844 71.183594 92.585938 C 72.035156 94.328125 72.742188 96.125 73.453125 97.929688 C 74.074219 99.515625 74.558594 101.148438 75.164062 102.742188 C 75.359375 103.25 75.414062 103.808594 75.550781 104.34375 C 75.578125 104.464844 75.660156 104.570312 75.71875 104.683594 C 75.777344 104.589844 75.847656 104.503906 75.902344 104.410156 C 76.035156 104.152344 76.152344 103.886719 76.308594 103.640625 C 76.914062 102.671875 77.496094 101.691406 78.144531 100.761719 C 78.828125 99.78125 79.578125 98.84375 80.304688 97.890625 C 81.050781 96.902344 81.871094 95.964844 82.757812 95.089844 C 84.027344 93.835938 85.269531 92.5625 86.550781 91.316406 C 87.59375 90.3125 88.664062 89.335938 89.738281 88.371094 C 90.578125 87.617188 91.425781 86.882812 92.300781 86.171875 C 93.28125 85.386719 94.296875 84.648438 95.292969 83.882812 C 96.773438 82.746094 98.402344 81.84375 99.964844 80.832031 C 102.058594 79.484375 104.308594 78.4375 106.527344 77.332031 C 107.613281 76.789062 108.730469 76.316406 109.832031 75.796875 C 110.292969 75.578125 110.742188 75.332031 111.179688 75.074219 C 111.386719 74.953125 111.535156 74.976562 111.75 75.074219 C 112.433594 75.378906 113.042969 75.773438 113.625 76.238281 C 114.589844 77.011719 115.585938 77.746094 116.578125 78.488281 C 117.191406 78.949219 117.8125 79.390625 118.417969 79.863281 C 119.207031 80.472656 119.988281 81.097656 120.757812 81.730469 C 121.144531 82.046875 121.507812 82.386719 121.878906 82.726562 C 122.53125 83.332031 123.183594 83.9375 123.828125 84.550781 C 124.800781 85.472656 125.78125 86.390625 126.730469 87.335938 C 127.347656 87.949219 127.941406 88.589844 128.523438 89.242188 C 129.21875 90.023438 129.894531 90.816406 130.5625 91.625 C 131.390625 92.628906 132.21875 93.632812 133.015625 94.65625 C 134.21875 96.191406 135.5 97.667969 136.605469 99.28125 C 137.421875 100.472656 138.3125 101.613281 139.082031 102.835938 C 139.664062 103.753906 140.105469 104.761719 140.59375 105.730469 C 140.769531 106.082031 140.394531 106.644531 139.980469 106.679688 C 139.410156 106.726562 138.832031 106.730469 138.265625 106.804688 C 137.582031 106.890625 136.910156 107.035156 136.230469 107.148438 C 135.894531 107.203125 135.554688 107.222656 135.222656 107.269531 C 134.617188 107.355469 134.019531 107.507812 133.421875 107.585938 C 132.859375 107.660156 132.304688 107.746094 131.753906 107.855469 C 130.90625 108.027344 130.058594 108.214844 129.21875 108.410156 C 128.339844 108.609375 127.464844 108.8125 126.59375 109.03125 C 125.527344 109.300781 124.457031 109.546875 123.410156 109.871094 C 122.039062 110.300781 120.6875 110.773438 119.335938 111.265625 C 118.246094 111.664062 117.179688 112.113281 116.109375 112.5625 C 112.6875 113.984375 109.382812 115.667969 106.097656 117.371094 C 104.671875 118.109375 103.28125 118.921875 101.878906 119.699219 C 101.03125 120.167969 100.179688 120.625 99.351562 121.125 C 98.316406 121.75 97.269531 122.371094 96.273438 123.066406 C 95.125 123.867188 94.019531 124.738281 92.90625 125.589844 C 91.980469 126.300781 91.058594 127.019531 90.152344 127.75 C 89.558594 128.230469 89.003906 128.75 88.414062 129.238281 C 87.878906 129.679688 87.320312 130.089844 86.773438 130.527344 C 86.460938 130.78125 86.160156 131.046875 85.863281 131.3125 C 85.28125 131.847656 84.699219 132.390625 84.121094 132.929688 C 82.917969 134.050781 81.695312 135.15625 80.515625 136.300781 C 79.65625 137.140625 78.847656 138.03125 78.015625 138.902344 C 77.976562 138.941406 77.964844 139.007812 77.941406 139.066406 C 78.007812 139.046875 78.082031 139.039062 78.140625 139.003906 C 78.9375 138.519531 79.804688 138.148438 80.546875 137.558594 C 81.304688 136.949219 82.101562 136.390625 82.878906 135.808594 C 83.6875 135.203125 84.492188 134.589844 85.300781 133.984375 C 85.925781 133.511719 86.554688 133.039062 87.1875 132.578125 C 87.894531 132.058594 88.601562 131.539062 89.316406 131.042969 C 90.546875 130.1875 91.785156 129.34375 93.035156 128.511719 C 93.554688 128.167969 94.113281 127.890625 94.648438 127.578125 C 95.167969 127.269531 95.652344 126.867188 96.210938 126.664062 C 96.972656 126.386719 97.65625 125.988281 98.378906 125.640625 C 100.125 124.789062 101.910156 124.03125 103.726562 123.339844 C 105.726562 122.578125 107.738281 121.84375 109.789062 121.207031 C 111.234375 120.761719 112.675781 120.292969 114.144531 119.929688 C 115.070312 119.703125 115.980469 119.425781 116.917969 119.238281 C 117.566406 119.105469 118.199219 118.90625 118.84375 118.773438 C 119.738281 118.59375 120.636719 118.453125 121.535156 118.300781 C 122.429688 118.144531 123.324219 117.964844 124.226562 117.839844 C 124.996094 117.726562 125.769531 117.6875 126.539062 117.589844 C 127.339844 117.488281 128.128906 117.347656 128.925781 117.246094 C 129.457031 117.183594 129.996094 117.207031 130.523438 117.109375 C 131.097656 117.007812 131.695312 117.105469 132.257812 116.890625 C 132.34375 116.859375 132.453125 116.890625 132.546875 116.886719 C 133.21875 116.847656 133.894531 116.8125 134.558594 116.769531 C 134.933594 116.746094 135.316406 116.691406 135.691406 116.652344 C 136.066406 116.613281 136.445312 116.574219 136.820312 116.539062 C 136.859375 116.53125 136.917969 116.550781 136.9375 116.53125 C 137.277344 116.128906 137.730469 116.332031 138.140625 116.308594 C 138.625 116.28125 139.121094 116.320312 139.609375 116.300781 C 140.339844 116.273438 141.070312 116.226562 141.796875 116.183594 C 141.847656 116.179688 141.898438 116.152344 141.953125 116.132812 C 141.933594 116.066406 141.933594 115.980469 141.886719 115.933594 C 140.976562 115.0625 140.070312 114.179688 139.148438 113.324219 C 138.675781 112.886719 138.167969 112.480469 137.660156 112.074219 C 137.015625 111.566406 136.355469 111.066406 135.695312 110.582031 C 135.023438 110.085938 134.335938 109.605469 133.648438 109.128906 C 133.304688 108.886719 132.9375 108.664062 132.59375 108.421875 C 132.4375 108.3125 132.324219 108.140625 132.480469 107.988281 C 132.582031 107.886719 132.808594 107.824219 132.941406 107.863281 C 133.203125 107.933594 133.453125 108.066406 133.671875 108.214844 C 134.867188 109.035156 136.058594 109.859375 137.234375 110.707031 C 138.203125 111.40625 139.136719 112.148438 140 112.984375 C 140.761719 113.726562 141.550781 114.445312 142.316406 115.1875 C 142.523438 115.382812 142.695312 115.613281 142.859375 115.84375 C 143.023438 116.082031 142.878906 116.480469 142.636719 116.652344 C 142.339844 116.871094 141.992188 116.941406 141.660156 116.984375 C 140.976562 117.074219 140.28125 117.082031 139.589844 117.113281 C 139.453125 117.125 139.3125 117.105469 139.1875 117.132812 C 139.082031 117.160156 139 117.234375 138.910156 117.292969 C 138.980469 117.351562 139.054688 117.410156 139.132812 117.46875 C 139.679688 117.882812 140.214844 118.269531 140.773438 118.691406 M 124.964844 108.566406 C 125.023438 108.566406 125.082031 108.582031 125.140625 108.566406 C 126.046875 108.332031 126.945312 108.085938 127.855469 107.867188 C 128.625 107.683594 129.402344 107.527344 130.175781 107.367188 C 130.9375 107.210938 131.703125 107.066406 132.464844 106.925781 C 132.996094 106.828125 133.53125 106.75 134.0625 106.660156 C 134.667969 106.554688 135.265625 106.425781 135.871094 106.34375 C 136.363281 106.273438 136.863281 106.292969 137.351562 106.210938 C 138.042969 106.089844 138.726562 105.984375 139.433594 105.984375 C 139.808594 105.984375 139.832031 105.953125 139.648438 105.601562 C 139.199219 104.746094 138.765625 103.886719 138.269531 103.0625 C 137.8125 102.304688 137.296875 101.582031 136.777344 100.863281 C 136.171875 100.027344 135.542969 99.214844 134.914062 98.402344 C 134.253906 97.535156 133.585938 96.675781 132.902344 95.828125 C 132.492188 95.308594 132.039062 94.816406 131.625 94.304688 C 131.03125 93.574219 130.460938 92.828125 129.867188 92.09375 C 129.578125 91.742188 129.253906 91.410156 128.953125 91.0625 C 128.273438 90.269531 127.636719 89.429688 126.90625 88.6875 C 125.59375 87.351562 124.234375 86.066406 122.878906 84.777344 C 122.140625 84.078125 121.371094 83.410156 120.605469 82.746094 C 119.859375 82.097656 119.109375 81.449219 118.335938 80.835938 C 117.617188 80.273438 116.859375 79.757812 116.128906 79.210938 C 115.453125 78.707031 114.785156 78.191406 114.117188 77.675781 C 113.429688 77.152344 112.757812 76.613281 112.058594 76.109375 C 111.804688 75.925781 111.527344 75.867188 111.175781 76.039062 C 109.496094 76.859375 107.78125 77.609375 106.105469 78.433594 C 104.769531 79.089844 103.453125 79.796875 102.148438 80.523438 C 101.042969 81.132812 99.9375 81.753906 98.894531 82.464844 C 97.214844 83.597656 95.464844 84.636719 93.933594 85.972656 C 93.132812 86.667969 92.28125 87.292969 91.472656 87.972656 C 90.769531 88.566406 90.082031 89.175781 89.402344 89.796875 C 88.234375 90.871094 87.066406 91.9375 85.925781 93.042969 C 85.214844 93.726562 84.589844 94.496094 83.878906 95.183594 C 82.585938 96.421875 81.417969 97.761719 80.347656 99.1875 C 79.84375 99.855469 79.34375 100.527344 78.875 101.222656 C 78.171875 102.253906 77.46875 103.292969 76.816406 104.363281 C 76.359375 105.109375 75.972656 105.90625 75.929688 106.808594 C 75.902344 107.515625 75.851562 108.226562 75.832031 108.929688 C 75.714844 112.375 75.941406 115.824219 75.699219 119.269531 C 75.652344 119.992188 75.699219 120.722656 75.789062 121.453125 C 75.914062 122.503906 75.75 123.570312 75.910156 124.632812 C 76.03125 125.425781 75.902344 126.242188 76.023438 127.050781 C 76.148438 127.882812 76.109375 128.742188 76.132812 129.582031 C 76.21875 132.519531 76.121094 135.460938 76.28125 138.390625 C 76.285156 138.507812 76.257812 138.636719 76.285156 138.742188 C 76.335938 138.90625 76.425781 139.058594 76.5 139.210938 C 76.632812 139.148438 76.785156 139.109375 76.882812 139.011719 C 77.476562 138.402344 78.054688 137.777344 78.636719 137.160156 C 79.261719 136.5 79.878906 135.828125 80.511719 135.179688 C 80.789062 134.890625 81.121094 134.652344 81.417969 134.386719 C 82.015625 133.839844 82.621094 133.296875 83.199219 132.726562 C 84.214844 131.730469 85.273438 130.796875 86.386719 129.902344 C 87.183594 129.257812 87.949219 128.570312 88.742188 127.917969 C 89.554688 127.242188 90.386719 126.585938 91.210938 125.921875 C 91.859375 125.398438 92.476562 124.832031 93.152344 124.351562 C 94.664062 123.28125 96.101562 122.101562 97.722656 121.1875 C 98.917969 120.511719 100.058594 119.746094 101.265625 119.089844 C 102.273438 118.542969 103.253906 117.949219 104.289062 117.449219 C 105.371094 116.925781 106.394531 116.28125 107.46875 115.75 C 109.589844 114.707031 111.722656 113.707031 113.847656 112.691406 C 114.339844 112.460938 114.820312 112.191406 115.324219 111.992188 C 116.386719 111.570312 117.476562 111.214844 118.527344 110.773438 C 120.101562 110.109375 121.726562 109.585938 123.351562 109.054688 C 123.835938 108.871094 124.34375 108.722656 124.964844 108.566406 M 66.082031 144.140625 C 66.316406 144.140625 66.621094 144.230469 66.773438 144.121094 C 67.097656 143.890625 67.265625 144.121094 67.472656 144.242188 C 67.929688 144.503906 68.3125 144.898438 68.855469 145.027344 C 68.957031 145.050781 69.0625 145.121094 69.136719 145.195312 C 69.636719 145.6875 70.289062 145.890625 70.925781 146.136719 C 72.179688 146.609375 73.503906 146.796875 74.824219 146.9375 C 75.65625 147.023438 76.523438 147.066406 77.363281 146.839844 C 77.605469 146.769531 77.84375 146.65625 78.09375 146.609375 C 78.992188 146.449219 79.777344 146.015625 80.535156 145.558594 C 81.097656 145.222656 81.578125 144.757812 82.109375 144.371094 C 82.359375 144.195312 82.625 144.039062 82.960938 144.015625 C 83.578125 143.96875 84.195312 143.867188 84.808594 143.789062 C 85.105469 143.75 85.40625 143.726562 85.699219 143.667969 C 86.277344 143.5625 86.851562 143.421875 87.4375 143.324219 C 88.230469 143.195312 89.023438 143.078125 89.824219 142.96875 C 90.753906 142.84375 91.6875 142.726562 92.617188 142.621094 C 93.40625 142.527344 94.199219 142.421875 94.996094 142.390625 C 96.027344 142.359375 97.050781 142.265625 98.078125 142.15625 C 98.628906 142.097656 99.183594 142.097656 99.738281 142.050781 C 100.871094 141.964844 102.015625 142.003906 103.160156 141.925781 C 105.046875 141.800781 106.933594 141.980469 108.824219 141.816406 C 110.523438 141.667969 112.242188 141.78125 113.957031 141.703125 C 116.425781 141.589844 118.898438 141.648438 121.371094 141.683594 C 123.828125 141.71875 126.285156 141.550781 128.746094 141.785156 C 129.820312 141.886719 130.914062 141.71875 131.992188 141.890625 C 132.632812 141.996094 133.292969 141.929688 133.945312 142.003906 C 134.714844 142.089844 135.488281 142.128906 136.257812 142.25 C 137.023438 142.371094 137.804688 142.46875 138.574219 142.484375 C 139.761719 142.507812 140.945312 142.582031 142.128906 142.71875 C 142.707031 142.78125 143.292969 142.785156 143.855469 142.960938 C 143.996094 143.003906 144.128906 142.96875 144.097656 142.761719 C 144.054688 142.484375 143.992188 142.207031 143.988281 141.929688 C 143.96875 141.304688 143.96875 140.679688 143.988281 140.050781 C 143.996094 139.707031 143.917969 139.425781 143.664062 139.183594 C 143.472656 138.988281 143.492188 138.789062 143.753906 138.636719 C 143.964844 138.511719 143.976562 138.363281 143.984375 138.164062 C 144.046875 135.660156 143.839844 133.144531 144.097656 130.640625 C 144.132812 130.324219 144.117188 130.011719 144.195312 129.683594 C 144.382812 128.90625 144.421875 128.097656 144.589844 127.3125 C 144.636719 127.113281 144.617188 127.050781 144.472656 127 C 144.324219 126.941406 144.15625 126.902344 143.992188 126.878906 C 143.378906 126.792969 142.765625 126.71875 142.148438 126.640625 C 141.152344 126.519531 140.164062 126.363281 139.171875 126.300781 C 138.339844 126.246094 137.511719 126.144531 136.679688 126.066406 C 135.71875 125.972656 134.75 125.929688 133.785156 125.945312 C 132.289062 125.96875 130.789062 125.808594 129.300781 126.046875 C 128.652344 126.152344 127.996094 126.210938 127.339844 126.285156 C 126.589844 126.367188 125.832031 126.445312 125.078125 126.523438 C 124.683594 126.5625 124.285156 126.585938 123.894531 126.648438 C 123.3125 126.746094 122.738281 126.886719 122.152344 126.988281 C 121.597656 127.085938 121.015625 127.082031 120.492188 127.246094 C 119.898438 127.4375 119.285156 127.449219 118.691406 127.570312 C 118.121094 127.6875 117.535156 127.71875 116.964844 127.820312 C 116.222656 127.953125 115.484375 128.128906 114.746094 128.285156 C 114.292969 128.378906 113.828125 128.4375 113.386719 128.566406 C 113.109375 128.648438 112.886719 128.71875 112.65625 128.480469 C 112.601562 128.421875 112.476562 128.390625 112.398438 128.410156 C 112.042969 128.5 111.695312 128.609375 111.347656 128.707031 C 110.328125 129 109.3125 129.292969 108.292969 129.578125 C 107.042969 129.917969 105.785156 130.246094 104.527344 130.578125 C 103.714844 130.789062 102.898438 131 102.089844 131.222656 C 101.140625 131.484375 100.195312 131.765625 99.25 132.042969 C 98.460938 132.277344 97.675781 132.507812 96.894531 132.746094 C 95.339844 133.210938 93.78125 133.660156 92.234375 134.148438 C 90.535156 134.683594 88.835938 135.21875 87.15625 135.816406 C 85.769531 136.304688 84.40625 136.859375 83.058594 137.429688 C 81.5625 138.066406 80.152344 138.867188 78.765625 139.707031 C 78.355469 139.957031 77.925781 140.175781 77.550781 140.464844 C 77.132812 140.789062 76.535156 140.382812 76.179688 140.851562 C 75.847656 140.621094 75.410156 140.835938 75.0625 140.558594 C 74.691406 140.261719 74.273438 140.011719 73.847656 139.808594 C 73.359375 139.578125 72.828125 139.429688 72.332031 139.207031 C 71.503906 138.839844 70.691406 138.4375 69.863281 138.058594 C 68.578125 137.46875 67.285156 136.886719 65.996094 136.316406 C 65.3125 136.011719 64.632812 135.726562 63.941406 135.457031 C 63.148438 135.144531 62.34375 134.863281 61.546875 134.566406 C 60.335938 134.121094 59.132812 133.652344 57.921875 133.226562 C 56.757812 132.8125 55.585938 132.429688 54.40625 132.050781 C 53.160156 131.648438 51.917969 131.226562 50.652344 130.886719 C 49.46875 130.570312 48.289062 130.238281 47.097656 129.957031 C 46.746094 129.871094 46.292969 129.558594 45.941406 130.042969 C 45.914062 130.082031 45.792969 130.0625 45.71875 130.050781 C 45.308594 130.003906 44.894531 129.96875 44.492188 129.890625 C 43.640625 129.726562 42.796875 129.523438 41.949219 129.351562 C 41.4375 129.25 40.917969 129.199219 40.402344 129.105469 C 39.597656 128.960938 38.800781 128.804688 38 128.644531 C 37.476562 128.542969 36.953125 128.410156 36.429688 128.324219 C 35.839844 128.222656 35.246094 128.140625 34.648438 128.0625 C 34.238281 128.007812 33.8125 128.011719 33.402344 127.9375 C 32.769531 127.808594 32.140625 127.699219 31.5 127.707031 C 31.421875 127.707031 31.339844 127.722656 31.265625 127.707031 C 30.617188 127.5625 29.964844 127.464844 29.304688 127.472656 C 29.148438 127.472656 28.976562 127.511719 28.835938 127.46875 C 28.078125 127.222656 27.273438 127.472656 26.519531 127.242188 C 24.160156 127.3125 21.800781 127.121094 19.441406 127.347656 C 18.328125 127.453125 17.199219 127.269531 16.078125 127.464844 C 15.550781 127.558594 15.011719 127.519531 14.476562 127.5625 C 13.46875 127.644531 12.460938 127.671875 11.457031 127.820312 C 10.765625 127.921875 10.058594 127.9375 9.378906 128.066406 C 8.386719 128.261719 7.410156 128.527344 6.429688 128.761719 C 5.972656 128.867188 5.964844 128.863281 5.96875 129.28125 C 5.984375 130.183594 5.976562 131.085938 6.066406 131.992188 C 6.203125 133.476562 5.984375 134.976562 6.1875 136.464844 C 6.300781 137.28125 6.21875 138.109375 6.289062 138.941406 C 6.386719 140.039062 6.390625 141.148438 6.542969 142.246094 C 6.628906 142.886719 6.648438 143.542969 6.660156 144.195312 C 6.664062 144.460938 6.757812 144.535156 6.992188 144.496094 C 7.082031 144.480469 7.171875 144.457031 7.257812 144.4375 C 7.925781 144.300781 8.59375 144.144531 9.269531 144.03125 C 9.859375 143.929688 10.464844 143.890625 11.058594 143.789062 C 11.859375 143.65625 12.648438 143.457031 13.453125 143.335938 C 14.402344 143.1875 15.355469 143.085938 16.304688 142.980469 C 17.09375 142.890625 17.890625 142.78125 18.683594 142.75 C 19.597656 142.71875 20.503906 142.617188 21.410156 142.519531 C 22.058594 142.449219 22.710938 142.464844 23.363281 142.410156 C 24.753906 142.289062 26.152344 142.429688 27.554688 142.296875 C 29.136719 142.144531 30.734375 142.304688 32.332031 142.183594 C 34.445312 142.023438 36.574219 142.207031 38.703125 142.070312 C 40.128906 141.980469 41.570312 141.957031 43.011719 142.144531 C 43.945312 142.265625 44.894531 142.148438 45.851562 142.25 C 46.875 142.359375 47.90625 142.367188 48.933594 142.503906 C 49.59375 142.589844 50.273438 142.589844 50.945312 142.628906 C 51.023438 142.636719 51.105469 142.617188 51.179688 142.636719 C 51.863281 142.785156 52.554688 142.878906 53.257812 142.867188 C 53.355469 142.867188 53.480469 142.828125 53.550781 142.871094 C 53.816406 143.050781 54.109375 142.957031 54.386719 142.984375 C 54.664062 143.019531 54.941406 143.078125 55.21875 143.097656 C 55.851562 143.144531 56.492188 143.121094 57.109375 143.238281 C 57.527344 143.316406 57.960938 143.246094 58.351562 143.359375 C 58.675781 143.449219 58.992188 143.421875 59.308594 143.457031 C 59.644531 143.488281 59.980469 143.542969 60.324219 143.570312 C 60.875 143.621094 61.433594 143.609375 61.980469 143.703125 C 62.671875 143.816406 63.367188 143.867188 64.058594 143.945312 C 64.632812 144.007812 65.203125 144.039062 65.777344 144.046875 C 65.839844 144.027344 65.902344 144.101562 66.082031 144.140625 M 75.09375 105.570312 C 75.09375 105.472656 75.117188 105.367188 75.085938 105.28125 C 74.875 104.566406 74.652344 103.855469 74.425781 103.148438 C 73.800781 101.222656 73.164062 99.292969 72.386719 97.421875 C 71.824219 96.066406 71.324219 94.6875 70.710938 93.355469 C 70.148438 92.136719 69.496094 90.957031 68.84375 89.785156 C 68.167969 88.570312 67.402344 87.410156 66.742188 86.191406 C 65.832031 84.527344 64.734375 82.984375 63.679688 81.414062 C 63.019531 80.4375 62.277344 79.527344 61.566406 78.589844 C 60.691406 77.445312 59.824219 76.289062 58.941406 75.15625 C 58.390625 74.457031 57.804688 73.785156 57.234375 73.097656 C 56.625 72.371094 56.019531 71.648438 55.40625 70.917969 C 55.316406 70.816406 55.199219 70.734375 55.117188 70.628906 C 54.363281 69.625 53.414062 68.820312 52.429688 68.058594 C 52.226562 67.898438 52.132812 67.851562 52.128906 68.171875 C 52.128906 68.253906 52.03125 68.332031 52.019531 68.417969 C 51.882812 69.351562 51.40625 70.160156 51.0625 71.015625 C 50.8125 71.636719 50.460938 72.21875 50.125 72.804688 C 49.507812 73.878906 48.898438 74.96875 48.21875 76.007812 C 47.121094 77.675781 46.066406 79.371094 44.832031 80.949219 C 44.144531 81.832031 43.503906 82.753906 42.808594 83.632812 C 42.183594 84.417969 41.488281 85.15625 40.863281 85.945312 C 40.3125 86.644531 39.789062 87.371094 39.300781 88.113281 C 38.589844 89.203125 37.941406 90.332031 37.230469 91.425781 C 36.339844 92.789062 35.523438 94.191406 34.785156 95.644531 C 34.160156 96.886719 33.582031 98.15625 32.996094 99.421875 C 32.949219 99.511719 32.96875 99.628906 32.964844 99.734375 C 33.074219 99.726562 33.179688 99.730469 33.28125 99.710938 C 33.730469 99.613281 34.183594 99.523438 34.632812 99.410156 C 35.160156 99.28125 35.703125 99.230469 36.238281 99.164062 C 36.910156 99.074219 37.582031 98.941406 38.261719 98.949219 C 38.859375 98.960938 39.445312 99.015625 40.039062 99.0625 C 40.433594 99.089844 40.835938 99.128906 41.230469 99.183594 C 41.480469 99.214844 41.742188 99.269531 41.988281 99.335938 C 42.917969 99.589844 43.859375 99.816406 44.734375 100.234375 C 45.683594 100.6875 46.660156 101.105469 47.570312 101.632812 C 48.398438 102.121094 49.191406 102.671875 49.964844 103.261719 C 51.050781 104.085938 52.140625 104.902344 53.117188 105.855469 C 54.222656 106.941406 55.328125 108.023438 56.289062 109.234375 C 56.9375 110.054688 57.65625 110.824219 58.320312 111.628906 C 58.972656 112.410156 59.597656 113.214844 60.238281 114.003906 C 60.625 114.472656 61.027344 114.925781 61.398438 115.402344 C 62.121094 116.332031 62.816406 117.28125 63.527344 118.21875 C 64.273438 119.203125 65.066406 120.152344 65.761719 121.167969 C 66.90625 122.839844 68.011719 124.539062 69.082031 126.25 C 69.878906 127.519531 70.5625 128.851562 71.355469 130.121094 C 72.253906 131.542969 73.03125 133.023438 73.808594 134.507812 C 74.316406 135.488281 74.957031 136.410156 75.230469 137.503906 C 75.242188 137.566406 75.335938 137.617188 75.390625 137.667969 C 75.410156 137.601562 75.453125 137.539062 75.453125 137.46875 C 75.394531 135.882812 75.519531 134.296875 75.359375 132.703125 C 75.21875 131.261719 75.417969 129.800781 75.230469 128.347656 C 75.136719 127.628906 75.230469 126.898438 75.125 126.164062 C 74.988281 125.160156 74.996094 124.125 74.988281 123.105469 C 74.976562 120.367188 74.96875 117.628906 74.988281 114.886719 C 75.007812 111.949219 75.0625 109.011719 75.105469 106.070312 C 75.097656 105.933594 75.132812 105.785156 75.09375 105.570312 M 39.996094 85.734375 C 40.050781 85.644531 40.09375 85.535156 40.164062 85.453125 C 40.992188 84.464844 41.84375 83.492188 42.652344 82.488281 C 43.203125 81.808594 43.710938 81.089844 44.234375 80.386719 C 44.671875 79.789062 45.089844 79.171875 45.535156 78.574219 C 45.792969 78.230469 45.789062 78.144531 45.398438 77.929688 C 45.320312 77.886719 45.238281 77.847656 45.152344 77.8125 C 44.214844 77.378906 43.273438 76.953125 42.335938 76.523438 C 41.511719 76.144531 40.6875 75.765625 39.859375 75.390625 C 39.445312 75.199219 39.066406 75.199219 38.691406 75.519531 C 38.445312 75.734375 38.128906 75.867188 37.859375 76.054688 C 37.085938 76.605469 36.3125 77.15625 35.554688 77.730469 C 34.894531 78.234375 34.292969 78.824219 33.613281 79.292969 C 32.234375 80.246094 31.011719 81.375 29.761719 82.46875 C 28.601562 83.476562 27.527344 84.578125 26.429688 85.652344 C 26.046875 86.027344 25.722656 86.46875 25.339844 86.84375 C 24.035156 88.125 22.707031 89.382812 21.398438 90.667969 C 20.878906 91.183594 20.398438 91.742188 19.894531 92.273438 C 19.324219 92.882812 18.761719 93.488281 18.1875 94.09375 C 17.382812 94.941406 16.574219 95.773438 15.777344 96.621094 C 15.285156 97.136719 14.792969 97.65625 14.320312 98.191406 C 13.550781 99.0625 12.78125 99.941406 12.03125 100.828125 C 11.539062 101.40625 11.128906 102.042969 10.800781 102.722656 C 10.503906 103.324219 10.21875 103.929688 9.953125 104.542969 C 9.78125 104.941406 9.636719 105.351562 9.507812 105.765625 C 9.480469 105.855469 9.371094 106.089844 9.664062 106.105469 C 10.46875 106.144531 11.261719 106.300781 12.050781 106.449219 C 12.839844 106.601562 13.648438 106.644531 14.433594 106.824219 C 15.238281 107.007812 16.074219 106.984375 16.882812 107.160156 C 17.121094 107.210938 17.371094 107.203125 17.621094 107.214844 C 17.882812 107.230469 18.230469 107.355469 18.394531 107.234375 C 18.746094 106.984375 18.765625 107.480469 19.042969 107.421875 C 19.359375 107.355469 19.714844 107.464844 20.046875 107.527344 C 20.574219 107.628906 21.089844 107.769531 21.609375 107.863281 C 22.339844 108 23.085938 108.074219 23.8125 108.234375 C 24.542969 108.390625 25.253906 108.671875 25.988281 108.792969 C 27.230469 108.992188 28.40625 109.410156 29.625 109.691406 C 30.710938 109.945312 31.777344 110.269531 32.847656 110.570312 C 34.023438 110.90625 35.207031 111.226562 36.371094 111.59375 C 38.21875 112.1875 40.070312 112.769531 41.882812 113.488281 C 43.078125 113.964844 44.277344 114.429688 45.4375 115 C 47.054688 115.789062 48.652344 116.621094 50.246094 117.441406 C 50.957031 117.804688 51.675781 118.164062 52.375 118.558594 C 53.828125 119.367188 55.269531 120.1875 56.710938 121.023438 C 57.390625 121.417969 58.066406 121.824219 58.726562 122.261719 C 59.863281 123.019531 61 123.792969 62.113281 124.585938 C 62.699219 125 63.253906 125.453125 63.800781 125.910156 C 64.433594 126.4375 65.042969 126.988281 65.660156 127.527344 C 66.59375 128.34375 67.5625 129.128906 68.464844 129.984375 C 69.925781 131.371094 71.324219 132.828125 72.636719 134.359375 C 72.6875 134.417969 72.773438 134.441406 72.84375 134.480469 C 72.835938 134.386719 72.871094 134.265625 72.824219 134.207031 C 72.460938 133.78125 72.261719 133.265625 71.992188 132.789062 C 71.320312 131.617188 70.613281 130.460938 69.914062 129.304688 C 69.433594 128.503906 68.953125 127.703125 68.460938 126.917969 C 67.894531 126.011719 67.28125 125.140625 66.742188 124.222656 C 65.933594 122.847656 64.972656 121.582031 64.046875 120.289062 C 63.535156 119.582031 63.027344 118.867188 62.496094 118.171875 C 61.875 117.367188 61.234375 116.574219 60.59375 115.789062 C 60.1875 115.289062 59.757812 114.808594 59.347656 114.308594 C 58.757812 113.574219 58.191406 112.828125 57.597656 112.101562 C 57.175781 111.585938 56.738281 111.085938 56.304688 110.574219 C 55.628906 109.78125 54.972656 108.964844 54.261719 108.195312 C 53.515625 107.394531 52.710938 106.644531 51.9375 105.867188 C 51.839844 105.769531 51.753906 105.664062 51.644531 105.582031 C 50.839844 104.96875 50.046875 104.335938 49.21875 103.761719 C 48.300781 103.113281 47.378906 102.453125 46.394531 101.914062 C 45.460938 101.402344 44.457031 101.003906 43.464844 100.621094 C 42.890625 100.394531 42.269531 100.269531 41.664062 100.144531 C 40.953125 99.996094 40.230469 99.828125 39.515625 99.804688 C 38.492188 99.769531 37.464844 99.832031 36.445312 99.914062 C 35.84375 99.964844 35.246094 100.125 34.648438 100.261719 C 34.042969 100.402344 33.449219 100.574219 32.84375 100.722656 C 32.589844 100.785156 32.328125 100.816406 32.070312 100.835938 C 31.859375 100.851562 31.753906 100.722656 31.773438 100.511719 C 31.78125 100.386719 31.792969 100.246094 31.839844 100.128906 C 32.347656 98.949219 32.847656 97.769531 33.382812 96.601562 C 33.636719 96.035156 33.953125 95.503906 34.246094 94.957031 C 34.71875 94.074219 35.171875 93.183594 35.679688 92.324219 C 36.105469 91.59375 36.636719 90.925781 37.066406 90.191406 C 37.9375 88.664062 38.910156 87.210938 39.996094 85.734375 M 74.210938 138.621094 C 74.492188 138.765625 74.78125 138.917969 75.0625 139.0625 C 74.917969 138.742188 74.824219 138.378906 74.613281 138.101562 C 73.832031 137.046875 73.03125 136.003906 72.203125 134.988281 C 71.726562 134.40625 71.203125 133.863281 70.664062 133.332031 C 69.195312 131.882812 67.707031 130.449219 66.21875 129.019531 C 65.890625 128.699219 65.542969 128.398438 65.1875 128.105469 C 64.371094 127.4375 63.550781 126.765625 62.71875 126.113281 C 61.984375 125.539062 61.25 124.953125 60.472656 124.425781 C 59.425781 123.703125 58.359375 123.003906 57.28125 122.34375 C 56 121.5625 54.695312 120.824219 53.394531 120.082031 C 52.808594 119.746094 52.199219 119.460938 51.605469 119.140625 C 50.242188 118.402344 48.898438 117.625 47.527344 116.914062 C 46.316406 116.292969 45.082031 115.722656 43.839844 115.164062 C 42.878906 114.734375 41.90625 114.332031 40.917969 113.980469 C 39.550781 113.488281 38.167969 113.042969 36.789062 112.585938 C 35.90625 112.292969 35.023438 112 34.132812 111.746094 C 33.042969 111.433594 31.9375 111.171875 30.84375 110.882812 C 30.007812 110.664062 29.1875 110.429688 28.355469 110.214844 C 27.339844 109.960938 26.324219 109.707031 25.304688 109.472656 C 24.28125 109.242188 23.253906 109.027344 22.226562 108.804688 C 21.707031 108.691406 21.1875 108.570312 20.65625 108.480469 C 20.066406 108.375 19.472656 108.304688 18.878906 108.214844 C 18.632812 108.183594 18.429688 108.246094 18.269531 108.453125 C 18.058594 108.726562 17.84375 108.992188 17.601562 109.234375 C 16.511719 110.332031 15.410156 111.425781 14.316406 112.519531 C 14.203125 112.628906 14.089844 112.734375 13.984375 112.851562 C 13.578125 113.289062 13.195312 113.75 12.769531 114.167969 C 12.152344 114.78125 11.5 115.363281 10.871094 115.960938 C 10.828125 116 10.824219 116.089844 10.824219 116.160156 C 10.824219 116.171875 10.921875 116.191406 10.972656 116.203125 C 11.511719 116.28125 12.054688 116.328125 12.582031 116.445312 C 13.371094 116.613281 14.144531 116.851562 14.929688 117.019531 C 16.140625 117.273438 17.363281 117.480469 18.582031 117.730469 C 19.628906 117.949219 20.664062 118.1875 21.703125 118.433594 C 22.539062 118.632812 23.378906 118.84375 24.210938 119.066406 C 25.304688 119.359375 26.394531 119.664062 27.488281 119.960938 C 28.5625 120.253906 29.640625 120.546875 30.710938 120.847656 C 31.429688 121.050781 32.140625 121.273438 32.859375 121.484375 C 33.910156 121.785156 34.972656 122.066406 36.019531 122.386719 C 36.871094 122.648438 37.703125 122.964844 38.546875 123.246094 C 40.066406 123.75 41.585938 124.238281 43.105469 124.75 C 44.117188 125.097656 45.109375 125.5 46.132812 125.824219 C 47.726562 126.332031 49.253906 127 50.808594 127.617188 C 51.535156 127.902344 52.238281 128.238281 52.960938 128.527344 C 54.222656 129.03125 55.496094 129.507812 56.753906 130.023438 C 57.859375 130.472656 58.953125 130.957031 60.054688 131.429688 C 61.4375 132.027344 62.820312 132.621094 64.195312 133.230469 C 64.84375 133.519531 65.445312 133.921875 66.109375 134.152344 C 67.253906 134.550781 68.261719 135.210938 69.328125 135.761719 C 70.414062 136.320312 71.460938 136.960938 72.515625 137.578125 C 73.058594 137.886719 73.601562 138.226562 74.210938 138.621094 M 90.519531 131.285156 C 89.769531 131.796875 89.015625 132.300781 88.273438 132.824219 C 87.4375 133.417969 86.613281 134.027344 85.785156 134.628906 C 85.152344 135.089844 84.519531 135.550781 83.890625 136.019531 C 83.84375 136.058594 83.832031 136.148438 83.804688 136.210938 C 83.859375 136.199219 83.917969 136.183594 83.96875 136.164062 C 85.410156 135.617188 86.835938 135.03125 88.289062 134.519531 C 89.507812 134.085938 90.742188 133.722656 91.980469 133.339844 C 93.386719 132.902344 94.800781 132.476562 96.210938 132.046875 C 96.976562 131.8125 97.742188 131.5625 98.511719 131.347656 C 99.601562 131.046875 100.707031 130.785156 101.800781 130.484375 C 102.839844 130.199219 103.867188 129.871094 104.902344 129.585938 C 106.382812 129.183594 107.875 128.804688 109.359375 128.40625 C 110.226562 128.179688 111.089844 127.9375 111.949219 127.703125 C 112.832031 127.464844 113.714844 127.21875 114.605469 127.003906 C 115.339844 126.824219 116.09375 126.730469 116.820312 126.519531 C 118.109375 126.144531 119.425781 125.890625 120.730469 125.585938 C 121.664062 125.367188 122.609375 125.203125 123.542969 124.984375 C 124.519531 124.757812 125.507812 124.625 126.484375 124.425781 C 127.054688 124.308594 127.640625 124.28125 128.210938 124.179688 C 129.011719 124.039062 129.800781 123.851562 130.605469 123.71875 C 131.4375 123.578125 132.269531 123.46875 133.109375 123.363281 C 133.820312 123.269531 134.535156 123.1875 135.246094 123.128906 C 136.011719 123.070312 136.785156 123.003906 137.550781 123.019531 C 138.96875 123.046875 140.382812 122.910156 141.800781 123.109375 C 142.492188 123.207031 143.214844 123.128906 143.917969 123.125 C 143.972656 123.125 144.027344 123.105469 144.078125 123.089844 C 144.039062 123.039062 144.007812 122.972656 143.964844 122.925781 C 143.757812 122.71875 143.519531 122.53125 143.34375 122.300781 C 142.625 121.328125 141.785156 120.46875 140.851562 119.703125 C 140.617188 119.511719 140.382812 119.320312 140.144531 119.132812 C 139.644531 118.742188 139.132812 118.359375 138.636719 117.953125 C 138.425781 117.785156 138.269531 117.542969 138.046875 117.402344 C 137.9375 117.332031 137.738281 117.082031 137.570312 117.371094 C 137.117188 117.371094 136.640625 117.273438 136.21875 117.398438 C 135.582031 117.574219 134.945312 117.433594 134.308594 117.585938 C 133.664062 117.734375 132.960938 117.632812 132.304688 117.746094 C 131.886719 117.820312 131.472656 117.804688 131.058594 117.847656 C 130.222656 117.945312 129.394531 118.089844 128.554688 118.1875 C 127.726562 118.285156 126.894531 118.347656 126.0625 118.425781 C 125.707031 118.460938 125.347656 118.488281 124.992188 118.546875 C 124.3125 118.652344 123.636719 118.785156 122.960938 118.890625 C 122.386719 118.984375 121.804688 119.027344 121.238281 119.132812 C 120.511719 119.269531 119.796875 119.441406 119.074219 119.601562 C 118.425781 119.742188 117.773438 119.867188 117.132812 120.027344 C 116.332031 120.222656 115.539062 120.441406 114.746094 120.660156 C 113.53125 120.992188 112.3125 121.304688 111.113281 121.6875 C 108.394531 122.550781 105.691406 123.441406 103.042969 124.507812 C 101.714844 125.046875 100.386719 125.582031 99.09375 126.1875 C 97.582031 126.902344 96.125 127.726562 94.648438 128.523438 C 94.082031 128.828125 93.535156 129.164062 93.003906 129.523438 C 92.179688 130.078125 91.382812 130.660156 90.519531 131.285156 M 12.621094 124.183594 C 13.175781 124.222656 13.726562 124.261719 14.28125 124.300781 C 14.875 124.34375 15.464844 124.324219 16.058594 124.386719 C 17.023438 124.488281 17.992188 124.542969 18.960938 124.632812 C 19.675781 124.703125 20.386719 124.773438 21.097656 124.878906 C 21.886719 124.988281 22.679688 125.042969 23.476562 125.121094 C 23.847656 125.160156 24.230469 125.183594 24.605469 125.242188 C 25.320312 125.347656 26.035156 125.488281 26.757812 125.585938 C 27.230469 125.648438 27.722656 125.613281 28.171875 125.726562 C 28.519531 125.808594 28.867188 125.75 29.1875 125.839844 C 29.96875 126.050781 30.789062 126.003906 31.578125 126.167969 C 32.039062 126.265625 32.527344 126.25 33 126.300781 C 33.316406 126.332031 33.632812 126.371094 33.949219 126.425781 C 34.59375 126.53125 35.230469 126.660156 35.867188 126.765625 C 36.402344 126.851562 36.945312 126.910156 37.476562 127.007812 C 38.199219 127.144531 38.917969 127.3125 39.636719 127.46875 C 40.125 127.578125 40.605469 127.6875 41.09375 127.789062 C 41.867188 127.960938 42.640625 128.128906 43.414062 128.285156 C 44.066406 128.417969 44.734375 128.503906 45.378906 128.667969 C 46.816406 129.03125 48.242188 129.425781 49.667969 129.820312 C 51.007812 130.1875 52.339844 130.558594 53.671875 130.949219 C 54.578125 131.21875 55.476562 131.519531 56.375 131.8125 C 57.648438 132.238281 58.929688 132.648438 60.191406 133.109375 C 61.28125 133.507812 62.335938 134.011719 63.429688 134.382812 C 64.929688 134.890625 66.339844 135.597656 67.789062 136.226562 C 68.6875 136.621094 69.542969 137.105469 70.421875 137.542969 C 70.582031 137.621094 70.773438 137.644531 70.953125 137.679688 C 70.988281 137.683594 71.035156 137.636719 71.078125 137.617188 C 71.046875 137.601562 71.011719 137.585938 70.980469 137.566406 C 70.597656 137.363281 70.214844 137.15625 69.824219 136.949219 C 68.664062 136.339844 67.511719 135.722656 66.339844 135.128906 C 65.597656 134.75 64.855469 134.363281 64.078125 134.058594 C 62.742188 133.53125 61.460938 132.890625 60.136719 132.339844 C 59.203125 131.949219 58.289062 131.5 57.347656 131.117188 C 56.207031 130.648438 55.050781 130.226562 53.90625 129.765625 C 53.214844 129.488281 52.542969 129.171875 51.851562 128.902344 C 50.382812 128.324219 48.914062 127.757812 47.433594 127.199219 C 46.175781 126.726562 44.914062 126.265625 43.644531 125.828125 C 41.359375 125.042969 39.070312 124.265625 36.777344 123.507812 C 35.621094 123.125 34.449219 122.773438 33.28125 122.425781 C 32.324219 122.140625 31.355469 121.878906 30.382812 121.601562 C 29.421875 121.328125 28.457031 121.039062 27.488281 120.785156 C 26.492188 120.527344 25.480469 120.339844 24.492188 120.050781 C 22.917969 119.601562 21.339844 119.1875 19.734375 118.898438 C 18.648438 118.699219 17.574219 118.441406 16.492188 118.199219 C 15.507812 117.972656 14.527344 117.722656 13.546875 117.503906 C 13.386719 117.46875 13.117188 117.5 13.039062 117.605469 C 12.386719 118.445312 11.78125 119.3125 11.140625 120.160156 C 10.484375 121.027344 9.796875 121.878906 9.125 122.730469 C 8.890625 123.027344 8.640625 123.308594 8.4375 123.625 C 8.3125 123.820312 7.917969 123.984375 8.105469 124.210938 C 8.222656 124.359375 8.621094 124.304688 8.890625 124.292969 C 10.097656 124.265625 11.300781 124.222656 12.621094 124.183594 M 26.394531 144.84375 C 26.460938 144.804688 26.519531 144.738281 26.582031 144.730469 C 27.53125 144.648438 28.476562 144.5625 29.425781 144.5 C 30.019531 144.460938 30.609375 144.507812 31.203125 144.390625 C 31.761719 144.285156 32.34375 144.378906 32.921875 144.28125 C 33.578125 144.175781 34.261719 144.257812 34.933594 144.15625 C 35.59375 144.050781 36.265625 144.160156 36.945312 144.042969 C 37.660156 143.921875 38.398438 144.039062 39.128906 143.921875 C 39.847656 143.804688 40.585938 143.886719 41.316406 143.816406 C 42.433594 143.703125 43.558594 143.726562 44.683594 143.695312 C 47.035156 143.621094 49.390625 143.675781 51.746094 143.667969 C 51.910156 143.667969 52.070312 143.625 52.234375 143.605469 C 52.058594 143.546875 51.890625 143.488281 51.714844 143.441406 C 51.640625 143.421875 51.558594 143.441406 51.480469 143.4375 C 51.003906 143.40625 50.53125 143.390625 50.054688 143.347656 C 49.070312 143.257812 48.074219 143.203125 47.09375 143.089844 C 46.582031 143.035156 46.066406 143.050781 45.546875 142.996094 C 44.652344 142.890625 43.738281 142.882812 42.832031 142.878906 C 40.746094 142.863281 38.667969 142.785156 36.578125 142.949219 C 34.601562 143.105469 32.609375 142.890625 30.625 143.070312 C 29.019531 143.21875 27.40625 143.0625 25.789062 143.179688 C 24.097656 143.296875 22.394531 143.21875 20.703125 143.4375 C 20.003906 143.527344 19.285156 143.523438 18.574219 143.5625 C 18.535156 143.5625 18.496094 143.558594 18.457031 143.5625 C 17.902344 143.640625 17.347656 143.730469 16.789062 143.789062 C 16.277344 143.847656 15.761719 143.867188 15.25 143.910156 C 14.894531 143.941406 14.535156 143.976562 14.179688 144.027344 C 13.480469 144.136719 12.785156 144.261719 12.089844 144.378906 C 11.554688 144.464844 11.019531 144.527344 10.484375 144.625 C 9.9375 144.722656 9.402344 144.855469 8.855469 144.964844 C 8.3125 145.078125 7.761719 145.15625 7.226562 145.289062 C 6.347656 145.515625 5.84375 145.144531 5.835938 144.242188 C 5.835938 143.929688 5.84375 143.617188 5.832031 143.304688 C 5.828125 143.230469 5.765625 143.160156 5.726562 143.089844 C 5.675781 143.15625 5.621094 143.21875 5.582031 143.289062 C 5.429688 143.578125 5.28125 143.867188 5.132812 144.160156 C 4.601562 145.175781 4.074219 146.1875 3.539062 147.199219 C 3.421875 147.421875 3.476562 147.570312 3.722656 147.546875 C 4.285156 147.488281 4.832031 147.390625 5.394531 147.320312 C 6.085938 147.230469 6.78125 147.183594 7.472656 147.078125 C 8.375 146.941406 9.265625 146.746094 10.167969 146.621094 C 10.914062 146.515625 11.671875 146.460938 12.421875 146.378906 C 12.777344 146.339844 13.144531 146.34375 13.488281 146.25 C 14.039062 146.097656 14.601562 146.121094 15.164062 146.039062 C 15.6875 145.957031 16.230469 145.96875 16.757812 145.90625 C 17.597656 145.804688 18.425781 145.664062 19.261719 145.5625 C 19.8125 145.5 20.367188 145.480469 20.917969 145.441406 C 20.976562 145.4375 21.039062 145.449219 21.089844 145.429688 C 21.550781 145.25 22.046875 145.285156 22.523438 145.210938 C 23.03125 145.140625 23.558594 145.167969 24.0625 145.078125 C 24.808594 144.9375 25.539062 144.835938 26.394531 144.84375 M 11.207031 127 C 11.933594 126.851562 12.679688 126.929688 13.410156 126.78125 C 13.964844 126.664062 14.542969 126.78125 15.128906 126.667969 C 15.820312 126.539062 16.539062 126.558594 17.25 126.53125 C 19.058594 126.464844 20.863281 126.625 22.675781 126.429688 C 23.625 126.328125 24.59375 126.402344 25.558594 126.417969 C 26.113281 126.425781 26.664062 126.492188 27.214844 126.523438 C 27.273438 126.527344 27.332031 126.480469 27.390625 126.453125 C 27.335938 126.441406 27.289062 126.421875 27.230469 126.410156 C 26.695312 126.332031 26.15625 126.210938 25.621094 126.1875 C 24.921875 126.152344 24.234375 126.0625 23.542969 125.949219 C 22.65625 125.808594 21.761719 125.703125 20.863281 125.597656 C 20.09375 125.503906 19.324219 125.402344 18.550781 125.367188 C 17.65625 125.328125 16.773438 125.226562 15.882812 125.132812 C 15.078125 125.046875 14.269531 125.023438 13.460938 125.011719 C 12.046875 125 10.632812 125.023438 9.214844 125.097656 C 8.53125 125.132812 8.003906 125.210938 7.644531 125.851562 C 7.265625 126.523438 6.820312 127.152344 6.40625 127.804688 C 6.386719 127.839844 6.382812 127.886719 6.371094 127.925781 C 6.410156 127.929688 6.460938 127.949219 6.484375 127.9375 C 7.019531 127.609375 7.652344 127.625 8.238281 127.488281 C 9.167969 127.261719 10.132812 127.152344 11.207031 127 M 132.617188 125.121094 C 133.878906 125.160156 135.132812 125.199219 136.394531 125.238281 C 136.453125 125.238281 136.515625 125.222656 136.570312 125.238281 C 137.234375 125.429688 137.917969 125.371094 138.59375 125.464844 C 139.121094 125.53125 139.660156 125.527344 140.1875 125.597656 C 140.949219 125.691406 141.699219 125.863281 142.457031 125.929688 C 143.058594 125.984375 143.65625 126.027344 144.246094 126.171875 C 144.308594 126.1875 144.382812 126.140625 144.453125 126.121094 C 144.425781 126.050781 144.410156 125.972656 144.367188 125.921875 C 144.265625 125.804688 144.128906 125.710938 144.039062 125.585938 C 143.699219 125.105469 143.378906 124.609375 143.03125 124.125 C 142.972656 124.042969 142.851562 123.964844 142.753906 123.953125 C 142.261719 123.902344 141.765625 123.832031 141.273438 123.839844 C 139.429688 123.859375 137.578125 123.746094 135.734375 123.945312 C 135.164062 124.007812 134.578125 123.972656 134.019531 124.085938 C 133.679688 124.152344 133.34375 124.144531 133.007812 124.1875 C 132.324219 124.285156 131.652344 124.425781 130.976562 124.53125 C 130.363281 124.625 129.742188 124.679688 129.128906 124.773438 C 128.453125 124.878906 127.777344 125.011719 127.097656 125.121094 C 126.78125 125.171875 126.453125 125.152344 126.148438 125.246094 C 125.191406 125.542969 124.183594 125.578125 123.214844 125.824219 C 122.765625 125.9375 122.308594 126.007812 121.859375 126.109375 C 121.773438 126.128906 121.699219 126.1875 121.617188 126.230469 C 121.699219 126.257812 121.785156 126.300781 121.863281 126.292969 C 122.140625 126.265625 122.429688 126.25 122.699219 126.171875 C 123.34375 125.988281 124.003906 125.878906 124.667969 125.824219 C 125.042969 125.792969 125.417969 125.75 125.792969 125.699219 C 126.238281 125.632812 126.671875 125.539062 127.113281 125.480469 C 127.546875 125.421875 127.984375 125.425781 128.417969 125.351562 C 129.1875 125.222656 129.957031 125.132812 130.738281 125.125 C 131.328125 125.113281 131.910156 125.121094 132.617188 125.121094 M 136.859375 143.082031 C 136.464844 143.042969 136.070312 143 135.671875 142.964844 C 135.121094 142.921875 134.546875 142.960938 134.015625 142.828125 C 133.226562 142.628906 132.421875 142.71875 131.632812 142.644531 C 130.011719 142.496094 128.371094 142.53125 126.738281 142.496094 C 126.660156 142.496094 126.554688 142.527344 126.511719 142.488281 C 126.207031 142.25 125.867188 142.4375 125.550781 142.382812 C 125.496094 142.371094 125.433594 142.441406 125.375 142.46875 C 125.4375 142.519531 125.496094 142.601562 125.5625 142.605469 C 126.097656 142.628906 126.632812 142.679688 127.164062 142.703125 C 128.390625 142.761719 129.613281 142.820312 130.835938 142.945312 C 131.585938 143.023438 132.339844 143.070312 133.089844 143.1875 C 133.835938 143.304688 134.59375 143.355469 135.34375 143.429688 C 135.679688 143.464844 136.019531 143.496094 136.355469 143.550781 C 136.976562 143.660156 137.589844 143.804688 138.210938 143.898438 C 138.941406 144 139.6875 144.015625 140.410156 144.160156 C 140.75 144.226562 141.09375 144.195312 141.421875 144.265625 C 142.269531 144.449219 143.128906 144.507812 143.988281 144.605469 C 144.125 144.621094 144.265625 144.585938 144.394531 144.617188 C 145.101562 144.765625 145.8125 144.855469 146.539062 144.84375 C 146.820312 144.839844 146.613281 144.730469 146.574219 144.660156 C 146.402344 144.339844 146.222656 144.023438 146.070312 143.695312 C 145.714844 142.921875 145.179688 142.230469 145.019531 141.367188 C 145.011719 141.308594 144.914062 141.265625 144.859375 141.210938 C 144.839844 141.265625 144.808594 141.316406 144.808594 141.367188 C 144.804688 141.503906 144.800781 141.644531 144.808594 141.78125 C 144.84375 142.230469 144.898438 142.6875 144.921875 143.140625 C 144.9375 143.378906 144.65625 143.78125 144.453125 143.785156 C 143.871094 143.796875 143.234375 143.910156 142.714844 143.71875 C 141.933594 143.421875 141.132812 143.46875 140.34375 143.339844 C 139.667969 143.226562 138.96875 143.371094 138.273438 143.210938 C 137.855469 143.117188 137.414062 143.121094 136.859375 143.082031 M 93.640625 143.550781 C 93.78125 143.515625 93.917969 143.457031 94.0625 143.441406 C 94.535156 143.390625 95.007812 143.347656 95.484375 143.324219 C 96.042969 143.296875 96.585938 143.304688 97.148438 143.226562 C 97.8125 143.136719 98.5 143.210938 99.171875 143.101562 C 99.53125 143.042969 99.917969 143.125 100.289062 143.082031 C 100.609375 143.042969 100.941406 143.019531 101.261719 142.996094 C 102.5 142.90625 103.734375 142.890625 104.972656 142.859375 C 105.265625 142.847656 105.5625 142.859375 105.855469 142.855469 C 105.886719 142.855469 105.941406 142.78125 105.941406 142.742188 C 105.941406 142.703125 105.890625 142.636719 105.855469 142.628906 C 105.738281 142.617188 105.621094 142.621094 105.503906 142.625 C 104.480469 142.664062 103.457031 142.699219 102.433594 142.746094 C 101.683594 142.78125 100.941406 142.707031 100.183594 142.839844 C 99.53125 142.957031 98.847656 142.839844 98.179688 142.96875 C 97.734375 143.058594 97.269531 143.039062 96.816406 143.066406 C 95.730469 143.140625 94.644531 143.203125 93.5625 143.328125 C 92.753906 143.421875 91.941406 143.484375 91.132812 143.570312 C 91.078125 143.578125 91.035156 143.648438 90.988281 143.695312 C 91.039062 143.730469 91.105469 143.804688 91.148438 143.796875 C 91.929688 143.625 92.726562 143.546875 93.640625 143.550781 Z M 93.640625 143.550781 " fill-opacity="1" fill-rule="nonzero"/></g><path fill="#000000" d="M 83.097656 139.441406 C 84.394531 139.007812 85.625 138.578125 86.863281 138.148438 C 87.960938 137.769531 89.058594 137.371094 90.167969 137.042969 C 91.273438 136.710938 92.394531 136.445312 93.507812 136.15625 C 94.679688 135.847656 95.847656 135.539062 97.019531 135.25 C 97.789062 135.0625 98.570312 134.925781 99.34375 134.742188 C 100.507812 134.464844 101.679688 134.25 102.835938 133.9375 C 103.671875 133.707031 104.546875 133.621094 105.402344 133.449219 C 106.28125 133.269531 107.160156 133.046875 108.042969 132.871094 C 108.753906 132.730469 109.476562 132.640625 110.191406 132.511719 C 111.011719 132.367188 111.828125 132.1875 112.648438 132.050781 C 113.242188 131.949219 113.839844 131.90625 114.433594 131.808594 C 115.058594 131.707031 115.671875 131.566406 116.289062 131.464844 C 116.664062 131.402344 117.042969 131.402344 117.417969 131.339844 C 118.171875 131.207031 118.941406 131.203125 119.691406 131.003906 C 120.054688 130.90625 120.4375 130.992188 120.824219 130.898438 C 121.296875 130.777344 121.804688 130.804688 122.296875 130.757812 C 122.554688 130.730469 122.8125 130.683594 123.074219 130.640625 C 123.3125 130.601562 123.578125 130.75 123.792969 130.527344 C 123.8125 130.507812 123.871094 130.527344 123.910156 130.523438 C 124.523438 130.484375 125.148438 130.503906 125.742188 130.386719 C 126.316406 130.28125 126.914062 130.390625 127.472656 130.167969 C 127.507812 130.152344 127.550781 130.167969 127.589844 130.167969 C 128.320312 130.128906 129.050781 130.097656 129.777344 130.046875 C 130.113281 130.023438 130.449219 129.96875 130.789062 129.9375 C 131.105469 129.902344 131.441406 130.019531 131.746094 129.820312 C 131.773438 129.800781 131.824219 129.820312 131.863281 129.8125 C 132.613281 129.777344 133.363281 129.757812 134.105469 129.691406 C 134.609375 129.648438 135.101562 129.542969 135.601562 129.464844 C 135.699219 129.449219 135.8125 129.429688 135.894531 129.46875 C 136.015625 129.527344 136.109375 129.628906 136.214844 129.71875 C 136.117188 129.789062 136.019531 129.910156 135.914062 129.925781 C 135.441406 129.984375 134.964844 129.992188 134.492188 130.058594 C 133.527344 130.183594 132.558594 130.238281 131.589844 130.304688 C 130.679688 130.367188 129.773438 130.472656 128.863281 130.539062 C 127.953125 130.601562 127.046875 130.707031 126.136719 130.777344 C 125.40625 130.828125 124.664062 130.917969 123.9375 131.011719 C 123.085938 131.125 122.21875 131.140625 121.371094 131.332031 C 120.933594 131.4375 120.460938 131.40625 120.007812 131.464844 C 119.527344 131.527344 119.054688 131.625 118.574219 131.691406 C 118.21875 131.746094 117.855469 131.761719 117.5 131.8125 C 116.765625 131.925781 116.019531 131.984375 115.289062 132.152344 C 114.6875 132.289062 114.058594 132.304688 113.449219 132.40625 C 112.667969 132.539062 111.886719 132.703125 111.101562 132.84375 C 110.792969 132.902344 110.476562 132.929688 110.164062 132.988281 C 109.417969 133.128906 108.671875 133.28125 107.929688 133.425781 C 107.457031 133.519531 106.976562 133.597656 106.511719 133.691406 C 105.644531 133.871094 104.78125 134.070312 103.914062 134.25 C 103.261719 134.386719 102.605469 134.5 101.953125 134.628906 C 101.394531 134.742188 100.832031 134.859375 100.273438 134.984375 C 99.609375 135.136719 98.949219 135.289062 98.292969 135.457031 C 96.902344 135.800781 95.523438 136.183594 94.128906 136.488281 C 92.890625 136.757812 91.671875 137.089844 90.464844 137.460938 C 88.660156 138.011719 86.851562 138.582031 85.074219 139.226562 C 83.882812 139.660156 82.683594 140.089844 81.484375 140.507812 C 80.804688 140.746094 80.136719 141.039062 79.476562 141.328125 C 79.191406 141.457031 78.945312 141.65625 78.671875 141.804688 C 78.59375 141.847656 78.472656 141.867188 78.394531 141.839844 C 78.167969 141.746094 78.382812 141.5625 78.410156 141.542969 C 78.597656 141.371094 78.796875 141.199219 79.027344 141.097656 C 79.957031 140.6875 80.898438 140.304688 81.832031 139.917969 C 82.226562 139.746094 82.636719 139.601562 83.097656 139.441406 Z M 83.097656 139.441406 " fill-opacity="1" fill-rule="nonzero"/><path fill="#000000" d="M 36.351562 137.683594 C 38.449219 137.683594 40.488281 137.667969 42.53125 137.6875 C 43.53125 137.699219 44.546875 137.699219 45.539062 137.824219 C 46.136719 137.902344 46.726562 137.878906 47.316406 137.917969 C 48.382812 137.988281 49.449219 138.0625 50.515625 138.15625 C 51.308594 138.222656 52.101562 138.289062 52.890625 138.390625 C 53.679688 138.496094 54.46875 138.601562 55.269531 138.628906 C 55.90625 138.660156 56.539062 138.765625 57.171875 138.859375 C 57.925781 138.964844 58.683594 139.101562 59.441406 139.203125 C 59.894531 139.265625 60.351562 139.269531 60.804688 139.328125 C 61.230469 139.382812 61.648438 139.464844 62.066406 139.546875 C 62.359375 139.605469 62.65625 139.582031 62.957031 139.65625 C 63.609375 139.808594 64.304688 139.800781 64.972656 139.921875 C 66.070312 140.121094 67.1875 140.175781 68.265625 140.5 C 68.332031 140.519531 68.441406 140.5 68.480469 140.542969 C 68.542969 140.617188 68.609375 140.75 68.582031 140.816406 C 68.546875 140.886719 68.398438 140.957031 68.3125 140.945312 C 67.652344 140.847656 66.996094 140.730469 66.332031 140.621094 C 65.4375 140.464844 64.539062 140.289062 63.644531 140.15625 C 62.933594 140.046875 62.21875 140.007812 61.507812 139.910156 C 60.785156 139.816406 60.074219 139.675781 59.355469 139.566406 C 59 139.511719 58.644531 139.484375 58.28125 139.445312 C 57.449219 139.363281 56.617188 139.316406 55.789062 139.203125 C 55.019531 139.101562 54.246094 139.027344 53.476562 138.960938 C 52.746094 138.890625 52.015625 138.789062 51.28125 138.726562 C 50.253906 138.640625 49.226562 138.570312 48.203125 138.476562 C 47.6875 138.425781 47.164062 138.460938 46.660156 138.378906 C 45.8125 138.242188 44.953125 138.363281 44.121094 138.242188 C 43.367188 138.136719 42.621094 138.167969 41.871094 138.15625 C 39.476562 138.101562 37.070312 137.957031 34.683594 138.0625 C 32.1875 138.179688 29.6875 138.011719 27.199219 138.171875 C 25.878906 138.257812 24.554688 138.144531 23.246094 138.289062 C 22.296875 138.398438 21.339844 138.277344 20.410156 138.402344 C 19.695312 138.5 18.980469 138.410156 18.285156 138.519531 C 17.671875 138.609375 17.046875 138.539062 16.449219 138.640625 C 15.96875 138.722656 15.488281 138.664062 15.027344 138.746094 C 14.132812 138.902344 13.230469 138.867188 12.34375 139.070312 C 11.847656 139.183594 11.320312 139.160156 10.804688 139.203125 C 10.617188 139.21875 10.46875 139.136719 10.472656 138.976562 C 10.476562 138.886719 10.667969 138.75 10.785156 138.742188 C 11.355469 138.679688 11.929688 138.675781 12.5 138.609375 C 13.355469 138.511719 14.207031 138.382812 15.058594 138.265625 C 15.078125 138.261719 15.097656 138.265625 15.117188 138.265625 C 15.828125 138.226562 16.535156 138.179688 17.246094 138.148438 C 18.308594 138.105469 19.382812 138.148438 20.429688 138.007812 C 21.378906 137.878906 22.335938 138.027344 23.269531 137.902344 C 24.765625 137.703125 26.265625 137.90625 27.753906 137.785156 C 30.59375 137.558594 33.441406 137.757812 36.351562 137.683594 Z M 36.351562 137.683594 " fill-opacity="1" fill-rule="nonzero"/><path fill="#000000" d="M 43.292969 134.863281 C 42.363281 134.785156 41.492188 134.738281 40.625 134.621094 C 39.835938 134.511719 39.03125 134.488281 38.253906 134.363281 C 37.578125 134.25 36.878906 134.429688 36.226562 134.164062 C 36.195312 134.148438 36.148438 134.164062 36.109375 134.164062 C 35.226562 134.125 34.332031 134.136719 33.453125 134.03125 C 32.722656 133.945312 31.976562 134.023438 31.265625 133.90625 C 30.589844 133.796875 29.914062 133.90625 29.25 133.804688 C 28.285156 133.652344 27.308594 133.804688 26.359375 133.671875 C 25.328125 133.53125 24.308594 133.621094 23.285156 133.582031 C 21.828125 133.527344 20.371094 133.421875 18.921875 133.484375 C 17.367188 133.546875 15.816406 133.546875 14.261719 133.589844 C 13.332031 133.617188 12.402344 133.730469 11.476562 133.820312 C 11.277344 133.839844 11.078125 133.90625 10.878906 133.925781 C 10.8125 133.929688 10.703125 133.859375 10.691406 133.804688 C 10.675781 133.742188 10.734375 133.640625 10.789062 133.585938 C 10.851562 133.527344 10.945312 133.480469 11.03125 133.46875 C 11.445312 133.421875 11.859375 133.378906 12.28125 133.347656 C 13.011719 133.300781 13.75 133.339844 14.464844 133.207031 C 15.183594 133.078125 15.886719 133.121094 16.597656 133.117188 C 19.246094 133.101562 21.898438 133.0625 24.546875 133.128906 C 25.722656 133.160156 26.914062 133.140625 28.085938 133.25 C 28.859375 133.328125 29.632812 133.238281 30.394531 133.359375 C 31.089844 133.46875 31.785156 133.367188 32.464844 133.480469 C 33.042969 133.570312 33.613281 133.523438 34.183594 133.582031 C 35.269531 133.699219 36.355469 133.761719 37.441406 133.828125 C 38.292969 133.882812 39.136719 134.019531 39.992188 134.058594 C 40.84375 134.089844 41.695312 134.171875 42.542969 134.289062 C 43.253906 134.386719 43.976562 134.441406 44.683594 134.539062 C 45.515625 134.652344 46.367188 134.648438 47.191406 134.859375 C 47.589844 134.960938 48.015625 134.945312 48.429688 134.984375 C 48.953125 135.03125 49.46875 135.085938 49.984375 135.207031 C 50.3125 135.285156 50.652344 135.246094 50.996094 135.320312 C 51.679688 135.464844 52.386719 135.476562 53.070312 135.582031 C 53.933594 135.710938 54.785156 135.902344 55.644531 136.042969 C 56.257812 136.144531 56.875 136.183594 57.488281 136.285156 C 58.273438 136.417969 59.050781 136.585938 59.832031 136.730469 C 60.125 136.785156 60.421875 136.816406 60.71875 136.867188 C 61.335938 136.980469 61.953125 137.109375 62.574219 137.21875 C 63.128906 137.308594 63.6875 137.367188 64.238281 137.460938 C 64.710938 137.539062 65.183594 137.636719 65.65625 137.730469 C 65.960938 137.796875 66.269531 137.863281 66.574219 137.925781 C 66.632812 137.9375 66.710938 137.902344 66.75 137.929688 C 66.867188 138.019531 67.070312 138.140625 67.0625 138.226562 C 67.042969 138.378906 66.859375 138.425781 66.683594 138.398438 C 66.167969 138.308594 65.648438 138.242188 65.140625 138.144531 C 64.59375 138.042969 64.058594 137.917969 63.511719 137.808594 C 62.714844 137.648438 61.921875 137.484375 61.117188 137.34375 C 60.566406 137.246094 60 137.199219 59.453125 137.101562 C 58.632812 136.960938 57.816406 136.78125 56.996094 136.640625 C 56.40625 136.539062 55.804688 136.492188 55.210938 136.398438 C 54.3125 136.25 53.417969 136.082031 52.523438 135.929688 C 52.1875 135.878906 51.851562 135.847656 51.507812 135.808594 C 50.757812 135.730469 50 135.683594 49.253906 135.566406 C 48.285156 135.417969 47.316406 135.28125 46.335938 135.21875 C 45.621094 135.167969 44.910156 135.070312 44.199219 134.988281 C 43.914062 134.949219 43.636719 134.902344 43.292969 134.863281 Z M 43.292969 134.863281 " fill-opacity="1" fill-rule="nonzero"/><path fill="#000000" d="M 13.152344 131.460938 C 12.089844 131.5 11.078125 131.484375 10.082031 131.601562 C 9.566406 131.664062 9.054688 131.671875 8.539062 131.691406 C 8.421875 131.699219 8.316406 131.710938 8.316406 131.523438 C 8.316406 131.351562 8.394531 131.34375 8.523438 131.339844 C 9.117188 131.304688 9.722656 131.328125 10.296875 131.207031 C 11.050781 131.050781 11.800781 131.1875 12.546875 131.097656 C 14.472656 130.863281 16.398438 131.023438 18.328125 130.992188 C 20.269531 130.960938 22.214844 130.921875 24.152344 131.011719 C 25.277344 131.066406 26.402344 131.023438 27.515625 131.132812 C 28.148438 131.199219 28.78125 131.183594 29.410156 131.226562 C 30.476562 131.300781 31.542969 131.371094 32.609375 131.464844 C 33.382812 131.527344 34.152344 131.605469 34.921875 131.703125 C 35.722656 131.804688 36.511719 131.941406 37.308594 132.046875 C 37.761719 132.105469 38.21875 132.117188 38.671875 132.171875 C 39.097656 132.226562 39.511719 132.324219 39.933594 132.398438 C 40.25 132.449219 40.566406 132.484375 40.882812 132.523438 C 41.574219 132.605469 42.269531 132.660156 42.960938 132.765625 C 43.863281 132.902344 44.753906 133.085938 45.652344 133.226562 C 46.304688 133.328125 46.960938 133.371094 47.613281 133.46875 C 48.199219 133.5625 48.773438 133.703125 49.355469 133.804688 C 49.6875 133.863281 50.027344 133.878906 50.363281 133.9375 C 50.96875 134.039062 51.566406 134.160156 52.171875 134.261719 C 52.503906 134.320312 52.839844 134.34375 53.175781 134.40625 C 53.9375 134.546875 54.699219 134.703125 55.464844 134.84375 C 55.972656 134.941406 56.492188 135.011719 57 135.109375 C 57.707031 135.246094 58.410156 135.410156 59.113281 135.546875 C 59.644531 135.648438 60.183594 135.726562 60.710938 135.816406 C 60.769531 135.824219 60.84375 135.796875 60.886719 135.820312 C 61.035156 135.902344 61.164062 136 61.304688 136.089844 C 61.171875 136.15625 61.027344 136.28125 60.894531 136.277344 C 60.539062 136.261719 60.183594 136.207031 59.832031 136.144531 C 59.285156 136.046875 58.746094 135.925781 58.203125 135.816406 C 57.265625 135.621094 56.324219 135.421875 55.386719 135.238281 C 54.875 135.140625 54.351562 135.082031 53.835938 134.988281 C 53.058594 134.84375 52.277344 134.671875 51.496094 134.53125 C 50.964844 134.4375 50.421875 134.371094 49.886719 134.285156 C 49.191406 134.171875 48.496094 134.042969 47.796875 133.9375 C 47.183594 133.84375 46.566406 133.789062 45.953125 133.691406 C 45.308594 133.589844 44.675781 133.457031 44.039062 133.347656 C 43.722656 133.296875 43.40625 133.265625 43.089844 133.226562 C 42.121094 133.109375 41.144531 132.992188 40.175781 132.871094 C 39.285156 132.761719 38.390625 132.660156 37.5 132.511719 C 36.828125 132.402344 36.15625 132.34375 35.476562 132.269531 C 34.726562 132.1875 33.972656 132.105469 33.222656 132.039062 C 32.253906 131.945312 31.285156 131.882812 30.320312 131.789062 C 29.765625 131.738281 29.207031 131.785156 28.660156 131.691406 C 27.695312 131.53125 26.71875 131.691406 25.769531 131.5625 C 24.761719 131.425781 23.757812 131.480469 22.753906 131.472656 C 19.5625 131.445312 16.382812 131.460938 13.152344 131.460938 Z M 13.152344 131.460938 " fill-opacity="1" fill-rule="nonzero"/><path fill="#000000" d="M 113.484375 136.15625 C 114.746094 136.023438 115.949219 135.984375 117.152344 135.890625 C 117.785156 135.84375 118.421875 135.890625 119.046875 135.796875 C 120.007812 135.644531 120.988281 135.796875 121.9375 135.664062 C 122.964844 135.523438 123.988281 135.582031 125.011719 135.578125 C 128.78125 135.558594 132.542969 135.570312 136.3125 135.566406 C 136.929688 135.566406 137.539062 135.480469 138.125 135.257812 C 138.21875 135.222656 138.332031 135.261719 138.441406 135.269531 C 138.417969 135.378906 138.421875 135.5 138.367188 135.585938 C 138.167969 135.898438 137.804688 135.882812 137.511719 135.910156 C 135.488281 136.125 133.460938 136.128906 131.441406 136.007812 C 129.828125 135.910156 128.210938 135.886719 126.609375 135.957031 C 125.035156 136.023438 123.457031 135.945312 121.890625 136.070312 C 121.035156 136.140625 120.183594 136.0625 119.347656 136.179688 C 118.652344 136.277344 117.953125 136.1875 117.277344 136.300781 C 116.679688 136.398438 116.085938 136.332031 115.5 136.40625 C 114.554688 136.519531 113.605469 136.601562 112.65625 136.640625 C 111.863281 136.671875 111.074219 136.785156 110.28125 136.867188 C 109.5625 136.941406 108.851562 137.023438 108.140625 137.101562 C 107.488281 137.171875 106.832031 137.242188 106.179688 137.339844 C 105.519531 137.4375 104.863281 137.578125 104.207031 137.683594 C 103.871094 137.738281 103.535156 137.757812 103.199219 137.804688 C 102.480469 137.90625 101.753906 137.941406 101.046875 138.144531 C 100.707031 138.242188 100.335938 138.21875 99.980469 138.277344 C 99.359375 138.371094 98.734375 138.460938 98.121094 138.609375 C 97.601562 138.742188 97.050781 138.761719 96.515625 138.863281 C 95.753906 139.003906 95 139.222656 94.234375 139.308594 C 93.726562 139.367188 93.238281 139.464844 92.746094 139.566406 C 91.664062 139.796875 90.585938 140.03125 89.511719 140.285156 C 89.160156 140.367188 88.824219 140.519531 88.472656 140.609375 C 88.386719 140.636719 88.273438 140.5625 88.171875 140.539062 C 88.234375 140.445312 88.273438 140.324219 88.355469 140.265625 C 88.507812 140.167969 88.671875 140.078125 88.847656 140.039062 C 89.828125 139.796875 90.8125 139.566406 91.789062 139.328125 C 92.414062 139.179688 93.027344 138.988281 93.65625 138.867188 C 94.425781 138.722656 95.207031 138.640625 95.976562 138.503906 C 96.503906 138.410156 97.015625 138.25 97.542969 138.164062 C 98.148438 138.0625 98.769531 138.003906 99.386719 137.921875 C 99.941406 137.847656 100.5 137.777344 101.050781 137.683594 C 101.417969 137.625 101.769531 137.503906 102.132812 137.457031 C 103.101562 137.324219 104.078125 137.238281 105.046875 137.089844 C 105.996094 136.949219 106.941406 136.789062 107.898438 136.726562 C 108.570312 136.679688 109.242188 136.5625 109.917969 136.5 C 110.773438 136.417969 111.613281 136.285156 112.472656 136.277344 C 112.789062 136.261719 113.105469 136.191406 113.484375 136.15625 Z M 113.484375 136.15625 " fill-opacity="1" fill-rule="nonzero"/><path fill="#000000" d="M 103.972656 139.941406 C 103.875 139.988281 103.804688 140.023438 103.734375 140.027344 C 102.90625 140.070312 102.078125 140.089844 101.25 140.15625 C 100.4375 140.210938 99.625 140.285156 98.816406 140.390625 C 98.214844 140.476562 97.617188 140.625 97.019531 140.730469 C 96.925781 140.746094 96.800781 140.6875 96.71875 140.625 C 96.617188 140.546875 96.570312 140.4375 96.761719 140.386719 C 97.042969 140.308594 97.320312 140.207031 97.609375 140.160156 C 97.960938 140.097656 98.328125 140.105469 98.675781 140.027344 C 99.5625 139.839844 100.476562 139.910156 101.359375 139.683594 C 101.398438 139.675781 101.4375 139.683594 101.476562 139.683594 C 102.246094 139.644531 103.015625 139.636719 103.777344 139.5625 C 105.136719 139.429688 106.5 139.386719 107.859375 139.300781 C 108.492188 139.261719 109.128906 139.285156 109.753906 139.207031 C 110.796875 139.078125 111.851562 139.191406 112.878906 139.070312 C 113.855469 138.957031 114.820312 139.0625 115.777344 138.976562 C 117.902344 138.789062 120.027344 138.976562 122.148438 138.835938 C 123.570312 138.738281 124.984375 138.707031 126.398438 138.769531 C 128.742188 138.871094 131.078125 138.78125 133.414062 138.898438 C 134.480469 138.949219 135.554688 138.867188 136.605469 139.003906 C 137.554688 139.125 138.5 139.050781 139.445312 139.105469 C 139.582031 139.117188 139.714844 139.203125 139.847656 139.257812 C 139.707031 139.359375 139.5625 139.558594 139.425781 139.550781 C 138.714844 139.523438 137.992188 139.691406 137.292969 139.457031 C 137.152344 139.40625 136.980469 139.449219 136.824219 139.449219 C 134.566406 139.410156 132.300781 139.457031 130.046875 139.316406 C 127.035156 139.128906 124.03125 139.191406 121.027344 139.257812 C 119.375 139.289062 117.714844 139.207031 116.074219 139.359375 C 115.007812 139.457031 113.9375 139.339844 112.886719 139.46875 C 111.992188 139.582031 111.097656 139.460938 110.226562 139.589844 C 109.453125 139.707031 108.679688 139.585938 107.917969 139.703125 C 107.222656 139.808594 106.527344 139.710938 105.847656 139.824219 C 105.226562 139.917969 104.617188 139.882812 103.972656 139.941406 Z M 103.972656 139.941406 " fill-opacity="1" fill-rule="nonzero"/><path fill="#000000" d="M 123.847656 132.867188 C 123.609375 132.90625 123.429688 132.96875 123.246094 132.980469 C 122.492188 133.019531 121.738281 133.078125 120.988281 133.210938 C 120.519531 133.296875 120.035156 133.257812 119.570312 133.347656 C 118.933594 133.480469 118.277344 133.460938 117.652344 133.679688 C 117.339844 133.789062 116.980469 133.761719 116.644531 133.808594 C 115.800781 133.929688 114.960938 134.046875 114.128906 134.265625 C 113.605469 134.402344 113.050781 134.410156 112.519531 134.519531 C 111.5625 134.710938 110.585938 134.828125 109.636719 135.085938 C 108.960938 135.269531 108.246094 135.308594 107.554688 135.457031 C 106.566406 135.664062 105.585938 135.917969 104.601562 136.140625 C 104.347656 136.199219 104.089844 136.238281 103.832031 136.265625 C 103.734375 136.277344 103.585938 136.328125 103.589844 136.125 C 103.589844 135.992188 103.605469 135.941406 103.769531 135.90625 C 104.160156 135.824219 104.535156 135.65625 104.921875 135.570312 C 106.078125 135.324219 107.242188 135.105469 108.394531 134.859375 C 109.257812 134.671875 110.113281 134.449219 110.980469 134.28125 C 111.550781 134.167969 112.136719 134.136719 112.707031 134.03125 C 113.230469 133.941406 113.742188 133.785156 114.269531 133.691406 C 114.820312 133.589844 115.386719 133.566406 115.933594 133.445312 C 116.546875 133.304688 117.191406 133.328125 117.792969 133.117188 C 118.066406 133.019531 118.382812 133.089844 118.691406 133.003906 C 119.105469 132.886719 119.554688 132.921875 119.988281 132.863281 C 120.488281 132.800781 120.984375 132.703125 121.484375 132.636719 C 121.878906 132.582031 122.273438 132.542969 122.671875 132.519531 C 123.460938 132.46875 124.253906 132.488281 125.035156 132.382812 C 125.707031 132.289062 126.394531 132.371094 127.046875 132.261719 C 127.800781 132.128906 128.550781 132.230469 129.296875 132.164062 C 130.964844 132.011719 132.636719 132.078125 134.3125 132.039062 C 134.929688 132.023438 135.542969 131.886719 136.15625 131.820312 C 136.253906 131.808594 136.355469 131.871094 136.457031 131.898438 C 136.425781 132 136.421875 132.148438 136.351562 132.199219 C 136.207031 132.296875 136.019531 132.382812 135.851562 132.390625 C 134.691406 132.445312 133.527344 132.484375 132.367188 132.511719 C 131.78125 132.527344 131.191406 132.503906 130.601562 132.519531 C 129.460938 132.546875 128.3125 132.53125 127.175781 132.660156 C 126.539062 132.730469 125.90625 132.667969 125.285156 132.769531 C 124.8125 132.84375 124.363281 132.863281 123.847656 132.867188 Z M 123.847656 132.867188 " fill-opacity="1" fill-rule="nonzero"/><path fill="#000000" d="M 27.191406 135.363281 C 29.203125 135.332031 31.183594 135.332031 33.164062 135.332031 C 33.371094 135.332031 33.707031 135.261719 33.714844 135.5 C 33.726562 135.75 33.394531 135.679688 33.195312 135.683594 C 32.035156 135.722656 30.871094 135.777344 29.710938 135.800781 C 28.851562 135.820312 27.984375 135.75 27.121094 135.816406 C 25.394531 135.9375 23.65625 135.84375 21.929688 135.949219 C 21.019531 136.007812 20.109375 135.9375 19.214844 136.058594 C 18.554688 136.144531 17.902344 136.097656 17.261719 136.164062 C 16.390625 136.257812 15.523438 136.347656 14.652344 136.402344 C 13.851562 136.457031 13.058594 136.628906 12.265625 136.738281 C 12.070312 136.761719 11.871094 136.75 11.675781 136.730469 C 11.613281 136.726562 11.519531 136.648438 11.5 136.585938 C 11.460938 136.460938 11.511719 136.398438 11.675781 136.378906 C 12.136719 136.324219 12.589844 136.207031 13.050781 136.15625 C 13.914062 136.058594 14.796875 136.046875 15.652344 135.890625 C 16.117188 135.808594 16.574219 135.867188 17.015625 135.785156 C 17.730469 135.648438 18.449219 135.769531 19.144531 135.660156 C 19.957031 135.523438 20.765625 135.636719 21.570312 135.558594 C 23.378906 135.386719 25.1875 135.460938 26.996094 135.441406 C 27.0625 135.449219 27.113281 135.410156 27.191406 135.363281 Z M 27.191406 135.363281 " fill-opacity="1" fill-rule="nonzero"/><path fill="#000000" d="M 125.140625 128.523438 C 126.007812 128.484375 126.828125 128.519531 127.621094 128.386719 C 128.433594 128.25 129.242188 128.367188 130.046875 128.285156 C 131.359375 128.148438 132.683594 128.105469 133.996094 128.199219 C 135.277344 128.289062 136.550781 128.277344 137.828125 128.285156 C 138.066406 128.285156 138.304688 128.183594 138.542969 128.183594 C 138.667969 128.183594 138.796875 128.304688 138.917969 128.367188 C 138.816406 128.460938 138.722656 128.621094 138.617188 128.628906 C 137.96875 128.691406 137.304688 128.808594 136.667969 128.742188 C 134.628906 128.527344 132.582031 128.648438 130.539062 128.667969 C 129.597656 128.679688 128.644531 128.683594 127.707031 128.785156 C 127.152344 128.847656 126.59375 128.789062 126.050781 128.886719 C 125.128906 129.050781 124.171875 128.984375 123.253906 129.21875 C 122.851562 129.320312 122.421875 129.285156 122.011719 129.347656 C 121.425781 129.441406 120.851562 129.582031 120.265625 129.679688 C 119.304688 129.832031 118.363281 130.058594 117.4375 130.378906 C 117.367188 130.402344 117.253906 130.300781 117.15625 130.257812 C 117.210938 130.148438 117.234375 129.972656 117.316406 129.945312 C 117.710938 129.804688 118.109375 129.679688 118.519531 129.585938 C 119.253906 129.417969 119.996094 129.261719 120.734375 129.117188 C 121.367188 128.988281 122.007812 128.867188 122.648438 128.765625 C 123.019531 128.707031 123.398438 128.683594 123.773438 128.644531 C 124.210938 128.601562 124.644531 128.5625 125.140625 128.523438 Z M 125.140625 128.523438 " fill-opacity="1" fill-rule="nonzero"/><path fill="#000000" d="M 15.03125 129.582031 C 16.429688 129.542969 17.773438 129.582031 19.101562 129.441406 C 20.167969 129.324219 21.238281 129.460938 22.292969 129.328125 C 23.28125 129.203125 24.273438 129.332031 25.242188 129.207031 C 25.996094 129.105469 26.742188 129.148438 27.492188 129.121094 C 27.574219 129.117188 27.664062 129.203125 27.75 129.246094 C 27.671875 129.320312 27.605469 129.441406 27.511719 129.460938 C 27.199219 129.523438 26.878906 129.570312 26.5625 129.582031 C 25.125 129.628906 23.683594 129.582031 22.257812 129.730469 C 21.207031 129.839844 20.160156 129.710938 19.125 129.839844 C 18.039062 129.972656 16.949219 129.84375 15.878906 129.964844 C 15.21875 130.039062 14.566406 129.992188 13.925781 130.0625 C 12.800781 130.183594 11.675781 130.246094 10.550781 130.308594 C 9.679688 130.359375 8.816406 130.53125 7.941406 130.527344 C 7.882812 130.527344 7.804688 130.519531 7.773438 130.550781 C 7.570312 130.765625 7.417969 130.589844 7.394531 130.445312 C 7.367188 130.25 7.542969 130.1875 7.742188 130.171875 C 8.691406 130.105469 9.644531 130.050781 10.585938 129.9375 C 11.574219 129.8125 12.558594 129.71875 13.550781 129.703125 C 14.027344 129.6875 14.5 129.621094 15.03125 129.582031 Z M 15.03125 129.582031 " fill-opacity="1" fill-rule="nonzero"/><g fill="#000000" fill-opacity="1"><g transform="translate(75.268223, 139.907494)"><g><path d="M 0.265625 -1.25 C 0.234375 -1.25 0.207031 -1.257812 0.1875 -1.28125 C 0.164062 -1.300781 0.15625 -1.328125 0.15625 -1.359375 C 0.15625 -1.390625 0.164062 -1.414062 0.1875 -1.4375 C 0.207031 -1.457031 0.234375 -1.46875 0.265625 -1.46875 C 0.296875 -1.46875 0.320312 -1.457031 0.34375 -1.4375 C 0.363281 -1.414062 0.375 -1.390625 0.375 -1.359375 C 0.375 -1.328125 0.363281 -1.300781 0.34375 -1.28125 C 0.320312 -1.257812 0.296875 -1.25 0.265625 -1.25 Z M 0.1875 0 L 0.1875 -1.046875 L 0.34375 -1.046875 L 0.34375 0 Z M 0.1875 0 "/></g></g></g></svg>